<svg width="166" height="189" viewBox="0 0 166 189" fill="none" xmlns="http://www.w3.org/2000/svg">
<path opacity="0.1" d="M0.0763938 188.862L6.07639 152.499L85.1673 95.0441C90.44 91.2259 94.9855 87.6502 98.8037 84.3168C102.682 80.9229 105.804 77.4381 108.167 73.8623C110.531 70.2865 112.076 66.3168 112.804 61.9532C113.592 57.1653 113.228 53.0744 111.713 49.6805C110.258 46.2259 107.895 43.5896 104.622 41.7714C101.349 39.9532 97.4097 39.0441 92.8037 39.0441C88.137 39.0441 83.8643 39.9835 79.9855 41.8623C76.1067 43.7411 72.8643 46.4987 70.2582 50.135C67.7128 53.7714 66.0158 58.1956 65.1673 63.4078H17.1673C19.3491 50.3168 24.1673 39.0441 31.6218 29.5896C39.137 20.135 48.6522 12.8623 60.1673 7.77139C71.7431 2.68048 84.7431 0.135025 99.1673 0.135025C114.076 0.135025 126.622 2.52897 136.804 7.31685C146.985 12.0441 154.349 18.7108 158.895 27.3168C163.501 35.9229 164.804 46.0138 162.804 57.5896C161.592 64.7411 158.895 71.832 154.713 78.8623C150.592 85.8926 143.955 93.7108 134.804 102.317C125.713 110.862 113.107 121.044 96.9855 132.862L77.1673 147.408L76.9855 148.499H149.713L142.985 188.862H0.0763938Z" fill="#9A732B"/>
</svg>
