<svg width="165" height="192" viewBox="0 0 165 192" fill="none" xmlns="http://www.w3.org/2000/svg">
<path opacity="0.1" d="M71.3195 191.408C56.168 191.408 43.168 188.893 32.3195 183.862C21.471 178.771 13.471 171.771 8.31947 162.862C3.22856 153.953 1.68311 143.711 3.68311 132.135H53.8649C53.1983 135.711 53.6528 138.923 55.2286 141.771C56.8649 144.559 59.3498 146.741 62.6831 148.317C66.0164 149.893 69.8649 150.68 74.2286 150.68C79.4407 150.68 84.1377 149.62 88.3195 147.499C92.5619 145.377 96.0164 142.62 98.6831 139.226C101.41 135.832 103.077 132.256 103.683 128.499C104.35 124.62 103.713 121.468 101.774 119.044C99.8346 116.559 96.9558 114.741 93.1377 113.59C89.3195 112.377 84.8346 111.771 79.6831 111.771H59.6831L65.5013 76.8623H83.3195C88.471 76.8623 93.1983 75.9229 97.5013 74.0441C101.804 72.1653 105.38 69.5896 108.229 66.3168C111.077 62.9835 112.835 59.2259 113.501 55.0441C114.047 51.832 113.774 49.0441 112.683 46.6805C111.653 44.2562 109.804 42.3774 107.138 41.0441C104.532 39.7108 101.077 39.0441 96.774 39.0441C92.1074 39.0441 87.6225 39.8623 83.3195 41.4987C79.0164 43.135 75.4104 45.4078 72.5013 48.3168C69.5922 51.2259 67.8649 54.5593 67.3195 58.3168H19.3195C21.1983 46.9229 25.8952 36.8623 33.4104 28.135C40.9255 19.4078 50.3801 12.5593 61.774 7.58957C73.2286 2.61987 85.7437 0.135025 99.3195 0.135025C113.501 0.135025 125.562 2.74108 135.501 7.9532C145.441 13.1653 152.744 20.0744 157.41 28.6805C162.077 37.2865 163.562 46.6805 161.865 56.8623C160.047 67.832 155.107 76.135 147.047 81.7714C138.986 87.4078 128.895 90.7411 116.774 91.7714V93.2259C129.986 94.7411 140.198 99.5896 147.41 107.771C154.623 115.953 157.259 126.014 155.319 137.953C153.683 148.135 148.986 157.256 141.229 165.317C133.471 173.377 123.532 179.741 111.41 184.408C99.3498 189.074 85.9861 191.408 71.3195 191.408Z" fill="#9A732B"/>
</svg>
