<svg width="178" height="176" viewBox="0 0 178 176" fill="none" xmlns="http://www.w3.org/2000/svg">
<path d="M177.315 142.037C176.853 144.157 176.553 146.337 175.901 148.402C171.393 162.671 161.84 171.776 147.119 174.372C132.198 177.005 119.953 171.706 110.843 159.521C110.003 158.403 109.241 158.2 107.975 158.407C91.4101 161.11 74.7437 161.641 58.0081 160.809C41.7169 160.045 25.5738 157.351 9.91671 152.786C7.60399 152.102 5.29435 151.374 2.98779 150.601C1.03383 149.94 0.216217 148.753 0.280886 146.698C0.742815 136.387 3.28342 126.696 8.86814 117.919C10.2539 115.753 12.1571 115.12 13.9493 116.196C15.7416 117.273 16.1481 119.43 14.7485 121.629C10.7112 128.031 8.53093 135.052 7.54702 142.512C7.33453 144.138 7.65326 144.988 9.39473 145.418C13.0624 146.314 16.6793 147.437 20.615 148.55V139.473C20.615 138.494 20.615 137.514 20.615 136.535C20.675 134.332 22.1209 132.798 24.0887 132.817C26.0565 132.835 27.5208 134.373 27.5439 136.577C27.5855 140.383 27.5439 144.185 27.5439 147.991V150.365L58.1143 154.259C57.1674 151.608 56.3451 149.598 55.7492 147.52C55.4242 146.436 55.3453 145.293 55.5183 144.175C57.6432 132.807 59.8558 121.453 62.013 110.09C62.1844 109.366 62.1749 108.61 61.9853 107.891C60.6965 104.196 59.3061 100.542 57.8279 96.5829C54.7053 97.2804 51.5041 97.7377 48.4831 98.7401C43.7992 100.292 39.2445 102.186 34.6253 104.001C33.2395 104.547 31.7983 104.925 30.7497 103.84C29.9644 103.031 29.2484 101.623 29.387 100.606C29.523 100.014 29.7871 99.4597 30.1606 98.9808C30.5341 98.502 31.0079 98.1108 31.5488 97.8348C36.5746 95.7237 41.7112 93.8622 46.7925 91.9221C47.3191 91.7234 47.8826 91.6172 48.6817 91.3955C47.3883 90.43 46.2243 89.6217 45.1203 88.7394C38.1913 83.2332 33.2487 76.4336 31.17 67.6985C31.0374 67.3521 30.8366 67.0358 30.5796 66.7684C30.3225 66.501 30.0143 66.288 29.6734 66.1418C21.9546 62.9083 18.2961 53.4527 21.8622 45.8863C22.7537 43.9924 24.0656 43.0316 26.1858 43.1517C27.4977 43.2256 28.8188 43.1517 30.3894 43.1517C30.3894 41.6181 30.3894 40.2046 30.3894 38.7911C30.4956 24.5544 36.8102 13.8469 49.213 7.0612C62.4888 -0.144884 76.342 -1.0826 90.2322 4.8809C102.917 10.3224 109.855 20.4294 111.943 33.9362C112.405 36.8879 112.488 39.8951 112.765 43.1424C114.054 43.1424 115.472 43.2117 116.881 43.1424C119.089 43.0085 120.424 44.0293 121.306 45.9925C124.678 53.4711 120.904 62.9869 113.236 65.9986C112.76 66.1476 112.335 66.4262 112.009 66.8031C111.683 67.1801 111.468 67.6405 111.389 68.1328C109.079 77.4545 103.573 84.5405 95.9232 90.1113C95.5028 90.4162 95.0686 90.7026 94.6482 91.0074C94.5651 91.0675 94.5281 91.1922 94.4589 91.3077C97.951 92.5503 101.476 93.682 104.903 95.0539C111.228 97.5541 117.122 101.032 122.369 105.36C123.145 105.997 123.704 106.108 124.646 105.655C146.989 94.8738 172.88 108.427 176.904 132.946C177.024 133.676 177.176 134.396 177.315 135.117V142.037ZM105.388 50.1129H103.078C94.0939 50.1129 85.1094 50.2423 76.1295 50.0205C66.9695 49.7942 58.4377 47.2859 50.8805 41.9091C50.6096 41.736 50.3272 41.5817 50.0352 41.4472L50.3308 41.9091C48.5432 43.7984 46.9957 46.0664 44.8939 47.4799C42.7922 48.8934 40.1222 49.5448 37.5031 50.5933C37.5031 54.2564 37.2536 58.2429 37.5862 62.1785C37.8105 65.0367 38.4807 67.8422 39.5725 70.4932C45.67 84.776 62.207 93.5896 77.5292 90.4947C89.5393 88.0788 98.5146 81.4086 103.494 69.962C106.28 63.6474 105.152 56.9402 105.388 50.1037V50.1129ZM111.056 138.415C111.053 142.31 111.818 146.168 113.308 149.767C114.798 153.366 116.984 156.635 119.74 159.389C122.495 162.142 125.767 164.324 129.367 165.811C132.967 167.297 136.826 168.059 140.721 168.052C157.004 168.052 170.395 154.735 170.358 138.535C170.349 130.666 167.218 123.121 161.653 117.557C156.089 111.992 148.544 108.862 140.675 108.852C124.396 108.861 111.042 122.178 111.056 138.406V138.415ZM105.744 43.1655C105.494 40.1491 105.444 37.3822 105.005 34.6753C103.157 23.1271 97.0272 14.7615 85.9316 10.655C73.8568 6.16968 62.1331 7.47693 51.1115 14.0779C44.8015 17.8565 40.4871 23.3165 38.4593 30.5041C37.3183 34.5875 37.3922 38.7449 37.5354 42.9438C41.2308 42.4819 43.2448 40.6619 43.8638 37.3406C44.0394 36.3844 43.8638 35.3127 44.2149 34.4489C44.6299 33.3139 45.3222 32.3008 46.2289 31.5018C47.3098 30.675 48.6633 31.0399 49.758 31.8899C50.22 32.2409 50.6172 32.652 51.0376 33.0493C57.0437 38.8107 64.9026 42.249 73.2101 42.7498C80.2684 43.2117 87.3683 43.0639 94.4589 43.147C98.0896 43.1932 101.716 43.1563 105.744 43.1563V43.1655ZM117.163 110.298C117.096 110.165 117.015 110.039 116.922 109.923C116.655 109.702 116.382 109.494 116.105 109.286C107.203 102.639 97.1196 98.8187 86.2642 96.8786C85.971 96.8948 85.6864 96.984 85.4364 97.1381C85.1863 97.2922 84.9787 97.5062 84.8323 97.7608C83.5065 101.133 82.2824 104.542 81.0768 107.96C80.9022 108.498 80.8672 109.072 80.9752 109.628C83.137 120.987 85.3635 132.336 87.4422 143.709C87.6259 145.165 87.508 146.643 87.0957 148.051C86.6338 149.954 85.8346 151.774 85.0401 154.056L106.414 151.802C101.295 135.51 104.857 121.795 117.163 110.298ZM68.7433 112.071C67.2097 120.072 65.8701 128.137 64.0778 136.092C62.8029 141.76 61.9068 147.243 64.9601 152.601C65.0157 152.702 65.0561 152.811 65.0802 152.924C65.2696 153.848 65.7916 154.199 66.7847 154.181C69.9489 154.116 73.1224 154.121 76.2912 154.181C77.2474 154.181 77.7278 153.904 78.0234 152.975C78.6563 151.007 79.5108 149.104 80.0652 147.113C80.4297 145.93 80.529 144.681 80.3562 143.455C78.7071 134.456 76.9471 125.481 75.2195 116.497C74.268 111.554 74.2633 111.554 69.1452 111.919C69.0136 111.96 68.8854 112.011 68.7618 112.071H68.7433ZM65.8424 97.9687C66.6184 100.107 67.3206 102.223 68.152 104.279C68.5493 105.253 74.5497 105.249 74.947 104.279C75.8016 102.195 76.5176 100.057 77.2797 97.9733L65.8424 97.9687ZM112.437 50.1499V58.326C115.042 56.2935 116.133 52.9399 115.139 50.1499H112.437ZM30.4725 49.7526C29.2992 50.1684 27.9596 50.2561 27.761 50.7827C27.0958 52.5057 27.9966 56.8802 30.3663 58.0904C30.4164 57.8139 30.4503 57.5348 30.4679 57.2543C30.4771 54.9632 30.4725 52.6674 30.4725 49.7526Z" fill="url(#paint0_linear_234_316)"/>
<defs>
<linearGradient id="paint0_linear_234_316" x1="156.61" y1="184.89" x2="56.3053" y2="-25.7177" gradientUnits="userSpaceOnUse">
<stop stop-color="#9A732B"/>
<stop offset="0.13" stop-color="#F0BD51"/>
<stop offset="0.31" stop-color="#FEEC6E"/>
<stop offset="0.68" stop-color="#DD9C2B"/>
<stop offset="0.85" stop-color="#FCD755"/>
</linearGradient>
</defs>
</svg>
