<svg width="165" height="66" viewBox="0 0 165 66" fill="none" xmlns="http://www.w3.org/2000/svg">
<path d="M139.385 63.7856L161.946 2.78564H25.7372L3.17558 63.7856L139.385 63.7856Z" fill="#030303" stroke="url(#paint0_linear_233_102)" stroke-width="4"/>
<path d="M49.5605 44.7856V21.5129H59.6515C61.4242 21.5129 62.9128 21.7516 64.1174 22.2288C65.3295 22.7061 66.2424 23.3803 66.856 24.2516C67.4772 25.1228 67.7878 26.1493 67.7878 27.3311C67.7878 28.1872 67.5984 28.9675 67.2196 29.672C66.8484 30.3766 66.3257 30.9675 65.6515 31.4447C64.9772 31.9144 64.1893 32.2402 63.2878 32.422V32.6493C64.2878 32.6872 65.1969 32.9409 66.0151 33.4106C66.8333 33.8728 67.4848 34.5129 67.9696 35.3311C68.4545 36.1417 68.6969 37.0963 68.6969 38.1947C68.6969 39.4675 68.3636 40.6 67.6969 41.5925C67.0378 42.5849 66.0984 43.3652 64.8787 43.9334C63.659 44.5016 62.2045 44.7856 60.5151 44.7856H49.5605ZM55.8787 39.7402H58.8333C59.8939 39.7402 60.6893 39.5432 61.2196 39.1493C61.7499 38.7478 62.0151 38.1569 62.0151 37.3766C62.0151 36.8311 61.8901 36.369 61.6401 35.9902C61.3901 35.6114 61.034 35.3235 60.5719 35.1266C60.1174 34.9296 59.5681 34.8311 58.9242 34.8311H55.8787V39.7402ZM55.8787 30.922H58.4696C59.0227 30.922 59.5113 30.8349 59.9355 30.6606C60.3598 30.4864 60.6893 30.2364 60.9242 29.9106C61.1666 29.5773 61.2878 29.172 61.2878 28.6947C61.2878 27.975 61.0302 27.4258 60.5151 27.047C59.9999 26.6606 59.3484 26.4675 58.5605 26.4675H55.8787V30.922ZM84.7083 21.5129H91.0265V36.422C91.0265 38.1947 90.6022 39.7288 89.7537 41.0243C88.9128 42.3122 87.7386 43.3084 86.231 44.0129C84.7234 44.7099 82.9734 45.0584 80.981 45.0584C78.9734 45.0584 77.2159 44.7099 75.7083 44.0129C74.2007 43.3084 73.0265 42.3122 72.1855 41.0243C71.3522 39.7288 70.9355 38.1947 70.9355 36.422V21.5129H77.2537V35.8766C77.2537 36.5963 77.4128 37.2402 77.731 37.8084C78.0492 38.369 78.4886 38.8084 79.0492 39.1266C79.6174 39.4447 80.2613 39.6038 80.981 39.6038C81.7083 39.6038 82.3522 39.4447 82.9128 39.1266C83.4734 38.8084 83.9128 38.369 84.231 37.8084C84.5492 37.2402 84.7083 36.5963 84.7083 35.8766V21.5129ZM93.0748 21.5129H100.12L104.666 30.9675H104.847L109.393 21.5129H116.438L107.893 37.4675V44.7856H101.62V37.4675L93.0748 21.5129Z" fill="white"/>
<defs>
<linearGradient id="paint0_linear_233_102" x1="-35.8806" y1="69.4669" x2="-27.6806" y2="-26.3139" gradientUnits="userSpaceOnUse">
<stop stop-color="#9A732B"/>
<stop offset="0.13" stop-color="#F0BD51"/>
<stop offset="0.31" stop-color="#FEEC6E"/>
<stop offset="0.68" stop-color="#DD9C2B"/>
<stop offset="0.85" stop-color="#FCD755"/>
</linearGradient>
</defs>
</svg>
