<svg width="261" height="189" viewBox="0 0 261 189" fill="none" xmlns="http://www.w3.org/2000/svg">
<path d="M189.268 186.848L257.311 2.87695L71.0299 2.87696L2.98593 186.848L189.268 186.848Z" fill="#030303" stroke="url(#paint0_linear_234_290)" stroke-width="4"/>
<path fill-rule="evenodd" clip-rule="evenodd" d="M101.501 43.8726C100.264 44.6742 80.7938 64.2067 80.5301 64.9097C79.9418 66.4794 80.4843 68.2899 81.7792 69.0778C82.3736 69.4396 82.8011 69.4783 86.2216 69.4789L90.0062 69.4797V77.2084C90.0062 84.7224 90.0179 84.9521 90.4247 85.468C91.0187 86.2218 92.2263 86.2178 92.8238 85.4601C93.242 84.9293 93.2475 84.7974 93.1916 76.51C93.1367 68.3747 93.1211 68.0804 92.7186 67.5425C91.7266 66.217 91.5292 66.1616 87.5334 66.0923L83.8778 66.0288L93.5517 56.3721C101.173 48.7647 103.333 46.7155 103.732 46.7155C104.131 46.7155 106.291 48.7647 113.912 56.3721L123.586 66.0288L119.93 66.0923C115.934 66.1616 115.737 66.217 114.745 67.5427C114.334 68.0913 114.328 68.3056 114.274 83.115C114.223 97.2481 114.2 98.1245 113.871 98.0199C113.679 97.9587 112.737 97.6359 111.777 97.3029C106.865 95.5966 100.466 95.6329 95.4258 97.3954C94.6099 97.6809 93.7834 97.9635 93.589 98.0237C93.2616 98.1251 93.2358 97.8678 93.2358 94.5104C93.2358 91.1508 93.2055 90.8496 92.8173 90.3573C92.2665 89.6582 91.0296 89.6119 90.4178 90.2674C90.029 90.6838 90.0056 90.9662 89.9937 95.3541L89.9814 99.9998L88.5691 101.007C84.7431 103.736 81.3073 108.463 79.7102 113.195C78.5169 116.731 78.1294 122.223 78.8128 125.915C80.166 133.223 84.4932 139.423 90.9234 143.267C92.9962 144.506 95.8469 145.61 98.3455 146.142C100.239 146.545 107.225 146.545 109.118 146.142C114.964 144.898 120.271 141.503 123.936 136.664C127.367 132.135 128.963 127.271 128.963 121.339C128.963 115.908 127.667 111.507 124.806 107.215C123.405 105.114 120.764 102.34 118.894 101.007L117.482 99.9998L117.47 84.7397L117.457 69.4797L121.242 69.4789C124.662 69.4783 125.09 69.4396 125.684 69.0778C126.979 68.2899 127.522 66.4794 126.933 64.9097C126.67 64.2067 107.199 44.6742 105.963 43.8726C105.204 43.3803 104.861 43.2908 103.732 43.2908C102.603 43.2908 102.26 43.3803 101.501 43.8726ZM151.67 43.6899C141.43 45.7475 133.455 53.8564 131.68 64.0145C131.288 66.258 131.297 70.9739 131.697 73.134C132.845 79.3378 136.418 85.1668 141.251 88.7231L142.888 89.9272L142.889 105.187L142.89 120.447L139.105 120.448C135.685 120.449 135.257 120.487 134.663 120.849C133.367 121.637 132.824 123.452 133.416 125.017C133.64 125.611 152.705 144.841 154.072 145.852C154.8 146.39 154.994 146.435 156.628 146.435C158.381 146.435 158.404 146.428 159.373 145.65C161.122 144.247 179.595 125.601 179.816 125.017C180.407 123.452 179.864 121.637 178.568 120.849C177.974 120.487 177.546 120.449 174.126 120.448L170.341 120.447L170.342 105.187L170.343 89.9272L171.98 88.7231C175.924 85.8207 179.178 81.2155 180.715 76.3567C181.679 73.3121 181.901 71.5214 181.793 67.6666C181.711 64.7216 181.609 63.8261 181.177 62.2274C180.543 59.8839 179.891 58.2453 179.355 57.6443C178.795 57.0168 177.745 57.0359 177.094 57.6856C176.466 58.3117 176.47 58.8986 177.11 60.4687C178.081 62.8495 178.441 64.6033 178.558 67.525C178.727 71.7555 178.097 74.759 176.284 78.3648C172.567 85.7579 164.996 90.434 156.716 90.4511C154.087 90.4566 152.362 90.2074 150.102 89.4958C142.088 86.972 136.135 80.1055 134.811 71.8562C134.458 69.6588 134.661 65.1962 135.205 63.1964C137.677 54.1064 145.631 47.4139 154.762 46.7415C161.336 46.2574 167.263 48.3908 172.028 52.9561C173.506 54.3729 173.805 54.5722 174.45 54.5722C175.457 54.5722 175.993 54.0063 175.993 52.943C175.993 52.2077 175.858 51.9797 174.731 50.8058C172.183 48.1507 168.199 45.6452 164.689 44.4888C160.956 43.259 155.485 42.9232 151.67 43.6899ZM141.252 61.6873C139.411 62.3746 138.449 63.734 138.449 65.6476C138.449 66.9478 139.123 68.2381 140.113 68.8324C140.475 69.0498 141.561 69.5212 142.526 69.88C143.491 70.2388 144.444 70.712 144.644 70.9316C144.994 71.3183 144.988 71.3459 144.441 71.8155C143.523 72.6034 141.94 72.4082 140.853 71.3731C140.101 70.6574 139.096 70.5405 138.399 71.0877C137.947 71.4426 137.844 71.6844 137.844 72.3919C137.844 73.154 137.946 73.3524 138.677 74.0116C140.026 75.2277 141.103 75.6202 143.092 75.6196C144.461 75.6192 144.971 75.5317 145.615 75.1868C148.465 73.6606 148.997 70.1759 146.69 68.1537C146.302 67.8143 145.016 67.1479 143.832 66.6728C141.678 65.809 141.303 65.4643 142.069 65.0548C142.721 64.7065 143.751 64.8239 144.677 65.3523C146.346 66.3048 147.734 65.7677 147.734 64.169C147.734 63.2814 147.198 62.6978 145.755 62.0134C144.582 61.4568 142.309 61.2924 141.252 61.6873ZM150.486 61.8392L149.955 62.2566V68.5731V74.8897L150.486 75.3071C150.967 75.6842 151.291 75.7247 153.826 75.7247C156.538 75.7247 156.651 75.7078 157.129 75.2302C157.8 74.5609 157.814 73.3532 157.158 72.738C156.752 72.3576 156.459 72.3 154.937 72.3H153.184V71.2928V70.2855H154.671C155.848 70.2855 156.264 70.2023 156.667 69.8858C157.29 69.3961 157.492 68.6809 157.213 67.9488C156.875 67.0602 156.451 66.8741 154.748 66.8672L153.184 66.8608V65.8535V64.8463H154.873C156.275 64.8463 156.651 64.7756 157.093 64.4287C157.822 63.8565 157.84 62.6248 157.129 61.9161C156.651 61.4385 156.538 61.4216 153.826 61.4216C151.291 61.4216 150.967 61.4621 150.486 61.8392ZM160.047 61.8245C159.66 62.2103 159.643 62.4959 159.643 68.5381V74.8486L160.11 75.2868C160.539 75.6889 160.783 75.7241 163.088 75.7183C165.863 75.7112 166.196 75.5948 166.503 74.5251C166.909 73.1135 166.045 72.3 164.14 72.3H162.873V67.6966C162.873 62.9443 162.744 61.9856 162.058 61.6188C161.448 61.2932 160.48 61.3924 160.047 61.8245ZM168.9 61.8063L168.424 62.1913L168.364 68.1017C168.331 71.3526 168.356 74.2187 168.42 74.4707C168.483 74.7229 168.714 75.1081 168.933 75.3269C169.287 75.6802 169.612 75.7247 171.828 75.7247C174.047 75.7247 174.382 75.6784 174.855 75.3071C175.284 74.9703 175.387 74.7203 175.387 74.0124C175.387 72.7307 174.771 72.3 172.938 72.3H171.552V67.2988C171.552 62.3315 171.549 62.2947 171.085 61.8595C170.504 61.315 169.538 61.2916 168.9 61.8063ZM150.534 93.2092C152.334 93.6973 152.783 93.7362 156.616 93.7362C160.448 93.7362 160.897 93.6973 162.697 93.2092C163.767 92.9193 165.196 92.4588 165.873 92.1856L167.104 91.6893L167.158 106.759C167.212 121.622 167.218 121.836 167.629 122.384C168.62 123.709 168.82 123.765 172.81 123.838L176.462 123.906L166.792 133.558C159.174 141.163 157.014 143.211 156.616 143.211C156.217 143.211 154.057 141.163 146.439 133.558L136.769 123.906L140.421 123.838C144.411 123.765 144.611 123.709 145.602 122.384C146.013 121.836 146.019 121.622 146.073 106.759L146.127 91.6893L147.358 92.1856C148.035 92.4588 149.465 92.9193 150.534 93.2092ZM106.184 99.5794C106.922 99.634 108.253 99.864 109.142 100.09C116.828 102.049 123.028 108.206 125.143 115.982C125.686 117.977 125.889 122.442 125.536 124.637C123.823 135.308 114.601 143.209 103.833 143.232C101.203 143.237 99.4783 142.988 97.2186 142.276C89.2039 139.753 83.2514 132.886 81.9273 124.637C81.5749 122.442 81.7778 117.977 82.3205 115.982C84.7839 106.926 92.716 100.225 101.814 99.5153C102.813 99.4373 103.903 99.3974 104.236 99.4269C104.569 99.4561 105.446 99.5248 106.184 99.5794ZM87.0704 114.697L86.5748 115.191V121.354V127.516L87.0704 128.011C87.5471 128.487 87.6664 128.505 90.2495 128.501C93.2691 128.496 94.0468 128.275 95.2003 127.091C96.6559 125.598 96.8797 123.153 95.73 121.307C95.3003 120.617 95.1652 120.211 95.2736 119.934C95.5407 119.253 95.4686 117.443 95.1436 116.666C94.3457 114.76 93.1889 114.213 89.9467 114.207C87.685 114.202 87.5409 114.227 87.0704 114.697ZM98.5189 114.668C98.094 115.12 98.0801 115.285 98.0801 119.87V124.605L98.6352 125.699C99.58 127.561 101.688 128.652 103.948 128.449C105.85 128.279 107.618 127.143 108.359 125.617C108.748 124.814 108.778 124.401 108.778 119.88C108.778 115.277 108.756 114.986 108.374 114.605C107.7 113.933 106.219 114.135 105.829 114.952C105.735 115.149 105.611 117.301 105.553 119.735L105.447 124.159L104.762 124.62C104.384 124.873 103.794 125.08 103.45 125.08C102.634 125.079 101.55 124.411 101.418 123.828C101.36 123.575 101.29 121.479 101.261 119.17C101.21 115.03 101.202 114.966 100.732 114.587C100.07 114.053 99.0637 114.09 98.5189 114.668ZM111.2 114.605C110.34 115.463 110.594 116.358 112.53 119.295L114.228 121.87V124.75C114.228 127.499 114.249 127.649 114.695 128.067C115.276 128.612 116.242 128.635 116.88 128.121C117.334 127.754 117.361 127.591 117.458 124.646L117.559 121.555L119.224 119.037C121.085 116.223 121.262 115.564 120.393 114.697C119.908 114.212 119.233 114.076 118.572 114.329C118.389 114.399 117.693 115.268 117.024 116.26C116.356 117.252 115.778 118.032 115.74 117.994C115.701 117.956 115.201 117.2 114.628 116.315C114.055 115.43 113.441 114.593 113.263 114.454C112.765 114.066 111.659 114.147 111.2 114.605ZM91.9843 117.869C92.673 118.556 91.996 119.239 90.6251 119.239H89.8044V118.433V117.627H90.7732C91.3061 117.627 91.8511 117.736 91.9843 117.869ZM92.8321 123.066C93.353 123.586 93.3427 124.035 92.797 124.615C92.4278 125.007 92.1549 125.081 91.0813 125.081H89.8044V123.872V122.663H91.1164C92.1593 122.663 92.5111 122.746 92.8321 123.066Z" fill="url(#paint1_linear_234_290)"/>
<defs>
<linearGradient id="paint0_linear_234_290" x1="154.215" y1="199.493" x2="293.467" y2="51.5543" gradientUnits="userSpaceOnUse">
<stop stop-color="#9A732B"/>
<stop offset="0.13" stop-color="#F0BD51"/>
<stop offset="0.31" stop-color="#FEEC6E"/>
<stop offset="0.68" stop-color="#DD9C2B"/>
<stop offset="0.85" stop-color="#FCD755"/>
</linearGradient>
<linearGradient id="paint1_linear_234_290" x1="169.732" y1="152.287" x2="109.718" y2="28.1757" gradientUnits="userSpaceOnUse">
<stop stop-color="#9A732B"/>
<stop offset="0.13" stop-color="#F0BD51"/>
<stop offset="0.31" stop-color="#FEEC6E"/>
<stop offset="0.68" stop-color="#DD9C2B"/>
<stop offset="0.85" stop-color="#FCD755"/>
</linearGradient>
</defs>
</svg>
