<svg width="261" height="189" viewBox="0 0 261 189" fill="none" xmlns="http://www.w3.org/2000/svg">
<path d="M189.434 186.848L257.477 2.87695L71.1959 2.87696L3.15195 186.848L189.434 186.848Z" fill="#030303" stroke="url(#paint0_linear_234_284)" stroke-width="4"/>
<path fill-rule="evenodd" clip-rule="evenodd" d="M128.181 43.3275C123.831 44.0161 120.634 45.5835 117.772 48.4306C115.421 50.7693 113.79 53.7326 112.915 57.2588C112.309 59.6964 112.311 63.7751 112.919 66.025C113.46 68.0318 114.531 70.3366 115.652 71.9067C116.594 73.2271 118.975 75.5864 119.941 76.1577L120.518 76.4984L120.573 96.5489C120.604 107.576 120.552 116.599 120.459 116.599C120.366 116.599 118.075 114.64 115.37 112.246C112.664 109.851 110.084 107.706 109.637 107.477C108.528 106.912 106.531 106.912 105.253 107.477C102.287 108.789 100.791 112.263 102.011 115.001C102.254 115.544 105.972 120.05 111.514 126.515L120.619 137.137V141.372V145.607L121.15 146.025C122.014 146.705 122.87 146.548 123.348 145.622C123.72 144.904 123.782 136.593 123.421 135.919C123.299 135.69 119.115 130.739 114.124 124.917C109.134 119.094 104.919 114.017 104.759 113.633C103.968 111.74 106.28 109.425 108.171 110.215C108.542 110.37 111.59 112.936 114.946 115.917C118.301 118.899 121.268 121.423 121.538 121.528C122.204 121.785 123.066 121.46 123.384 120.83C123.583 120.438 123.638 115.635 123.64 98.5817L123.644 76.8338L124.299 76.1794C125.469 75.0115 127.422 75.0568 128.594 76.279L129.189 76.9003L129.29 91.8256C129.387 106.306 129.402 106.759 129.782 107.037C130.197 107.341 131.258 107.416 131.629 107.169C132.163 106.812 132.314 106.036 132.315 103.656C132.316 101.521 132.373 101.079 132.723 100.505C133.765 98.7971 136.722 98.8961 137.607 100.669C137.903 101.261 137.96 101.951 137.96 104.963C137.961 108.546 137.961 108.552 138.478 109.069C138.897 109.488 139.117 109.562 139.635 109.458C140.788 109.228 140.875 108.996 140.985 105.855C141.05 104.012 141.182 102.82 141.354 102.517C141.903 101.554 143.839 101.184 145.127 101.795C146.437 102.417 146.519 102.723 146.632 107.39C146.724 111.251 146.764 111.615 147.124 111.877C147.707 112.303 148.722 112.234 149.171 111.739C149.498 111.379 149.57 110.897 149.656 108.496L149.757 105.676L150.404 105.099C151.296 104.302 152.293 104.146 153.441 104.624C155.157 105.339 155.188 105.446 155.303 111.086C155.402 115.983 155.408 116.035 155.879 116.416C156.531 116.943 157.24 116.899 157.845 116.293L158.352 115.786L158.289 110.697C158.23 105.867 158.203 105.566 157.772 104.758C156.269 101.945 153.252 100.661 150.413 101.624L149.254 102.017L148.753 101.161C147.378 98.8154 143.664 97.7568 141.104 98.9808C140.457 99.2905 140.298 99.3078 140.221 99.0774C140.003 98.4305 138.691 97.2577 137.717 96.8388C136.032 96.1135 134.278 96.078 132.667 96.7364C132.334 96.8723 132.314 96.3835 132.314 88.1102V79.3397L133.272 79.2007C134.707 78.9928 137.691 77.9525 139.156 77.1492C143.75 74.6314 146.79 70.475 147.88 65.2192C148.443 62.5084 148.308 58.7952 147.556 56.249C145.258 48.4709 138.95 43.6275 130.701 43.3063C129.648 43.2651 128.513 43.2748 128.181 43.3275ZM132.789 46.5262C138.982 47.6063 143.375 51.7276 144.833 57.8263C145.395 60.1769 145.3 63.7149 144.617 65.8842C143.036 70.9021 139.357 74.4596 134.299 75.8612C132.373 76.3948 131.984 76.3857 131.838 75.8032C131.582 74.7844 130.541 73.6933 129.189 73.0278C128.056 72.4703 127.634 72.3707 126.404 72.3715C124.929 72.3723 123.398 72.8568 122.607 73.5727C122.067 74.0613 121.53 73.758 119.708 71.9355C117.145 69.3727 115.714 66.1905 115.446 62.4562C115.058 57.0636 118.048 51.1402 122.503 48.4707C125.775 46.5107 129.097 45.8826 132.789 46.5262ZM126.567 53.4132C126.346 53.4743 126.005 53.6652 125.811 53.8372C125.488 54.1242 125.458 54.7422 125.458 61.2551C125.458 67.9557 125.48 68.3873 125.845 68.8362C126.221 69.2997 126.312 69.312 129.323 69.3032C131.666 69.2963 132.586 69.2183 133.121 68.9809C134.985 68.1534 136.14 66.3704 136.144 64.315C136.146 62.9397 135.753 61.8897 134.908 61.0174C134.315 60.4036 134.306 60.3673 134.61 59.7782C135.681 57.7081 134.715 54.902 132.576 53.8663C131.826 53.5033 131.236 53.4122 129.316 53.3624C128.026 53.3291 126.789 53.3519 126.567 53.4132ZM131.055 56.5206C131.824 56.7886 132.216 57.6202 131.93 58.3738C131.651 59.1061 131.13 59.3306 129.706 59.3306H128.483V57.9527C128.483 57.1947 128.544 56.5141 128.618 56.4403C128.827 56.2312 130.371 56.282 131.055 56.5206ZM132.532 62.9448C132.967 63.3805 133.121 63.7257 133.121 64.2688C133.121 65.8035 132.233 66.3883 129.901 66.3883H128.483V64.3718V62.3553H130.213C131.855 62.3553 131.972 62.385 132.532 62.9448ZM94.1018 65.5105C91.7893 65.8824 89.3935 66.7874 87.4165 68.036C85.6065 69.1792 85.2768 69.9831 86.2284 70.9345C86.9217 71.628 87.4298 71.5548 89.1614 70.5125C89.9932 70.0116 91.3997 69.361 92.287 69.0664C93.6901 68.6008 94.2416 68.5296 96.5216 68.5206C98.7208 68.5117 99.3867 68.5857 100.655 68.9803C103.379 69.8273 105.201 70.9236 107.23 72.9359C109.261 74.9506 110.267 76.541 111.103 79.0586C111.554 80.4157 111.618 80.9499 111.622 83.4277C111.627 86.096 111.591 86.3559 110.969 88.1665C109.24 93.1981 105.451 96.7939 100.42 98.1772C98.6533 98.6628 94.7773 98.6581 92.9927 98.1683C87.0181 96.5285 82.6626 91.3842 81.8578 85.0163C81.5735 82.7671 81.9347 80.1241 82.805 78.084C83.5795 76.2684 83.6666 75.4124 83.1313 74.877C82.637 74.3827 81.7677 74.3287 81.1601 74.7544C80.6486 75.1127 79.6155 77.5125 79.1477 79.4292C78.7327 81.1301 78.6841 85.152 79.0577 86.8558C80.609 93.9256 85.5779 99.2762 92.287 101.101C94.57 101.722 98.8412 101.72 101.16 101.096C107.677 99.3433 112.648 94.2507 114.308 87.6279C114.827 85.5555 114.772 80.9198 114.204 78.8344C112.542 72.7387 107.698 67.9273 101.361 66.079C99.9601 65.6703 98.9949 65.5339 97.1266 65.4815C95.7957 65.444 94.4345 65.4571 94.1018 65.5105ZM160.344 65.7705C156.665 66.5474 153.571 68.2996 150.939 71.0968C149.191 72.9538 148.352 74.2363 147.334 76.6081C146.302 79.0092 145.955 81.0926 146.082 84.1188C146.214 87.2655 146.699 89.21 148.024 91.897C150.236 96.3841 154.126 99.5385 159.136 100.907C160.608 101.309 161.301 101.373 164.074 101.362C166.994 101.35 167.472 101.296 169.1 100.798C175.596 98.8092 179.809 94.312 181.454 87.6093C181.98 85.469 181.94 81.0448 181.377 78.9914C180.78 76.8114 180.075 75.2684 178.797 73.3452C174.811 67.3427 167.367 64.2871 160.344 65.7705ZM167.502 68.9231C168.298 69.0804 169.75 69.6129 170.83 70.1439C172.426 70.9285 173.033 71.3751 174.471 72.8203C176.43 74.7899 177.558 76.718 178.323 79.4062C178.988 81.7434 178.988 85.6314 178.322 87.7632C175.326 97.3603 164.757 101.482 156.162 96.4049C154.545 95.4497 152.091 92.9654 151.111 91.2921C149.77 89.0017 149.204 87.0459 149.097 84.3265C148.912 79.6647 150.28 75.9225 153.291 72.8456C156.814 69.2465 161.959 67.8267 167.502 68.9231ZM96.0796 75.6662C95.8366 75.764 95.5037 76.0532 95.3401 76.3087C94.9566 76.9074 90.1696 89.5962 90.1696 90.014C90.1696 90.6647 90.972 91.3929 91.6889 91.3929C92.5562 91.3929 92.995 90.9273 93.4842 89.4879L93.8649 88.3681H96.7281H99.5911L100.034 89.524C100.604 91.0158 100.96 91.3929 101.796 91.3929C102.603 91.3929 103.277 90.7978 103.277 90.086C103.277 89.651 98.7273 77.1879 98.228 76.2548C98.1259 76.0643 97.7549 75.808 97.4032 75.6854C96.6682 75.4293 96.6678 75.4293 96.0796 75.6662ZM162.799 75.6666C160.367 76.1778 158.144 77.883 157.073 80.059C156.453 81.3195 156.412 81.5342 156.412 83.5243C156.412 85.4636 156.462 85.7495 157.004 86.8532C159.333 91.5956 165.749 92.9964 168.998 89.4718C169.94 88.4498 170.011 88.0068 169.356 87.2452C168.611 86.3791 167.973 86.4942 166.365 87.7852C164.563 89.231 161.14 88.1669 159.897 85.7741C157.692 81.5288 162.264 76.9737 166.538 79.1592C167.804 79.8067 168.001 79.8176 168.685 79.2792C169.417 78.7039 169.418 77.647 168.689 76.9711C167.546 75.9116 164.667 75.274 162.799 75.6666ZM97.6079 83.0488C97.933 83.9228 98.2623 84.7963 98.3397 84.9905C98.4667 85.3091 98.3217 85.3434 96.8457 85.3434C95.9465 85.3434 95.2089 85.2752 95.2065 85.1922C95.204 85.1091 95.5408 84.1107 95.9546 82.9736C96.4416 81.6351 96.7614 81.0039 96.8618 81.1832C96.9471 81.3356 97.2828 82.1751 97.6079 83.0488ZM155.721 123.18C155.454 123.519 155.301 124.011 155.299 124.541C155.293 125.887 154.771 127.968 154.099 129.323C153.343 130.845 152.697 131.71 150.513 134.119L148.85 135.954V140.704V145.453L149.345 145.948C149.617 146.22 150.075 146.443 150.362 146.443C150.649 146.443 151.107 146.22 151.379 145.948C151.873 145.455 151.874 145.439 151.882 141.26L151.889 137.067L153.646 135.116C156.29 132.181 157.449 130.028 158.036 126.958C158.473 124.675 158.425 123.617 157.861 123.087C157.2 122.467 156.249 122.508 155.721 123.18Z" fill="url(#paint1_linear_234_284)"/>
<defs>
<linearGradient id="paint0_linear_234_284" x1="154.381" y1="199.493" x2="293.633" y2="51.5543" gradientUnits="userSpaceOnUse">
<stop stop-color="#9A732B"/>
<stop offset="0.13" stop-color="#F0BD51"/>
<stop offset="0.31" stop-color="#FEEC6E"/>
<stop offset="0.68" stop-color="#DD9C2B"/>
<stop offset="0.85" stop-color="#FCD755"/>
</linearGradient>
<linearGradient id="paint1_linear_234_284" x1="169.776" y1="152.287" x2="109.647" y2="28.3224" gradientUnits="userSpaceOnUse">
<stop stop-color="#9A732B"/>
<stop offset="0.13" stop-color="#F0BD51"/>
<stop offset="0.31" stop-color="#FEEC6E"/>
<stop offset="0.68" stop-color="#DD9C2B"/>
<stop offset="0.85" stop-color="#FCD755"/>
</linearGradient>
</defs>
</svg>
