<svg width="637" height="149" viewBox="0 0 637 149" fill="none" xmlns="http://www.w3.org/2000/svg">
<g filter="url(#filter0_d_400_1366)">
<path d="M76.3339 24.3054L61.838 24.3054L24.7949 124.459L39.2908 124.459L76.3339 24.3054Z" fill="#FEEC6E"/>
<path d="M105.661 24.3054L91.1652 24.3054L54.1222 124.459L68.6181 124.459L105.661 24.3054Z" fill="#FEEC6E"/>
<path d="M613 24H123.087L86.0443 124.153L575.957 124.153L613 24Z" fill="#FEEC6E"/>
<g filter="url(#filter1_d_400_1366)">
<path d="M179.92 61.56C180.693 61.0533 181.627 60.6667 182.72 60.4C183.84 60.1333 184.96 60 186.08 60C187.12 60 188.133 60.1333 189.12 60.4C190.133 60.6667 191.027 61.08 191.8 61.64C192.573 62.1733 193.187 62.8667 193.64 63.72C194.12 64.5467 194.36 65.5467 194.36 66.72C194.36 67.8667 194.093 68.8533 193.56 69.68C193.027 70.48 192.48 71.0533 191.92 71.4C192.213 71.5067 192.587 71.6 193.04 71.68C193.493 71.76 194.013 71.8 194.6 71.8C195.48 71.8 196.24 71.72 196.88 71.56C197.547 71.4 198.067 71.2 198.44 70.96V64.48H196.36V60.32H207.16V64.48H203.96V86H198.44V75.72C198.307 75.8267 198.04 75.9067 197.64 75.96C197.24 76.0133 196.8 76.04 196.32 76.04C195.413 76.04 194.547 75.8667 193.72 75.52L193.64 75.64C193.987 76.0133 194.253 76.5067 194.44 77.12C194.653 77.7067 194.76 78.32 194.76 78.96C194.76 81.04 193.987 82.64 192.44 83.76C190.893 84.88 188.827 85.44 186.24 85.44C184.693 85.44 183.267 85.24 181.96 84.84C180.68 84.44 179.693 83.9733 179 83.44L180.6 79.72C181.213 80.1733 181.907 80.5333 182.68 80.8C183.48 81.04 184.36 81.16 185.32 81.16C186.52 81.16 187.453 80.8667 188.12 80.28C188.813 79.6933 189.16 78.9333 189.16 78C189.16 76.9867 188.813 76.1733 188.12 75.56C187.427 74.92 186.467 74.6 185.24 74.6H182.28V70.4H184.72C185.893 70.4 186.853 70.12 187.6 69.56C188.373 69 188.76 68.2533 188.76 67.32C188.76 66.3067 188.413 65.5467 187.72 65.04C187.053 64.5333 186.213 64.28 185.2 64.28C183.813 64.28 182.533 64.6533 181.36 65.4L179.92 61.56ZM220.293 80.32C220.08 80.5333 219.747 80.7467 219.293 80.96C218.84 81.1733 218.173 81.28 217.293 81.28C216.573 81.28 215.88 81.16 215.213 80.92C214.547 80.6533 213.96 80.2933 213.453 79.84C212.947 79.3867 212.533 78.8533 212.213 78.24C211.92 77.6267 211.773 76.9733 211.773 76.28C211.773 75.7467 211.867 75.28 212.053 74.88C212.24 74.48 212.48 74.1467 212.773 73.88C213.067 73.6133 213.373 73.4133 213.693 73.28C214.04 73.1467 214.373 73.08 214.693 73.08H214.813V66.36C214.813 64.9467 214.28 64.24 213.213 64.24C212.707 64.24 212.293 64.4267 211.973 64.8C211.653 65.1733 211.493 65.68 211.493 66.32C211.493 67.0933 211.68 67.7333 212.053 68.24C212.453 68.72 212.8 69.0533 213.093 69.24L209.853 72C209.533 71.8133 209.187 71.5467 208.813 71.2C208.467 70.8267 208.133 70.3867 207.813 69.88C207.52 69.3733 207.267 68.8 207.053 68.16C206.867 67.4933 206.773 66.76 206.773 65.96C206.773 65.08 206.933 64.28 207.253 63.56C207.6 62.84 208.067 62.2133 208.653 61.68C209.267 61.1467 209.973 60.7333 210.773 60.44C211.573 60.1467 212.44 60 213.373 60C215.48 60 217.16 60.5733 218.413 61.72C219.667 62.84 220.293 64.5333 220.293 66.8V73.08H225.413V64.48H222.373V60.32H234.133V64.48H230.933V86H225.413V77.28H220.293V80.32ZM236.527 64.48H233.327V60.32H236.007C235.767 59.5733 235.5 58.8667 235.207 58.2C234.94 57.5067 234.62 56.9067 234.247 56.4C233.9 55.8667 233.5 55.4533 233.047 55.16C232.593 54.8667 232.087 54.72 231.527 54.72C230.833 54.72 230.26 54.9333 229.807 55.36C229.353 55.7867 229.127 56.4267 229.127 57.28C229.127 58.0267 229.233 58.7067 229.447 59.32C229.66 59.9333 229.927 60.52 230.247 61.08L226.207 63.08L225.927 62.68C225.313 61.8 224.833 60.88 224.487 59.92C224.113 58.96 223.927 57.9733 223.927 56.96C223.927 56 224.1 55.12 224.447 54.32C224.793 53.52 225.287 52.8267 225.927 52.24C226.54 51.6533 227.3 51.2 228.207 50.88C229.087 50.56 230.073 50.4 231.167 50.4C232.607 50.4 233.873 50.68 234.967 51.24C236.06 51.8 236.993 52.5467 237.767 53.48C238.567 54.4133 239.22 55.48 239.727 56.68C240.233 57.8533 240.647 59.0667 240.967 60.32H245.247V64.48H242.047V86H236.527V64.48ZM263.516 67C264.636 67 265.543 67.08 266.236 67.24C266.93 67.4 267.556 67.6267 268.116 67.92V64.48H253.756V60.32H276.836V64.48H273.636V86H268.116V81.56C267.903 81.7733 267.436 81.9867 266.716 82.2C266.023 82.3867 265.13 82.48 264.036 82.48C262.89 82.48 261.783 82.32 260.716 82C259.676 81.68 258.756 81.1867 257.956 80.52C257.156 79.8533 256.516 79.0267 256.036 78.04C255.583 77.0533 255.356 75.8933 255.356 74.56C255.356 73.4133 255.556 72.3733 255.956 71.44C256.356 70.5067 256.916 69.7067 257.636 69.04C258.356 68.3733 259.21 67.8667 260.196 67.52C261.21 67.1733 262.316 67 263.516 67ZM260.956 74.76C260.956 75.88 261.303 76.7333 261.996 77.32C262.716 77.88 263.623 78.16 264.716 78.16C264.903 78.16 265.103 78.1467 265.316 78.12C265.556 78.0933 265.756 78.04 265.916 77.96L261.836 72.44C261.596 72.6533 261.383 72.96 261.196 73.36C261.036 73.76 260.956 74.2267 260.956 74.76ZM268.156 72.4C267.783 72.0533 267.29 71.7867 266.676 71.6C266.063 71.3867 265.383 71.28 264.636 71.28C264.53 71.28 264.396 71.28 264.236 71.28C264.103 71.28 263.996 71.3067 263.916 71.36L267.796 76.68C268.036 76.4133 268.156 75.9067 268.156 75.16V72.4ZM268.102 50.68C268.609 50.4133 269.235 50.2 269.982 50.04C270.702 49.88 271.475 49.8 272.302 49.8C274.435 49.8 276.235 50.36 277.702 51.48C279.169 52.5733 280.382 54.0267 281.342 55.84L283.702 60.32H287.942V64.48H284.742V86H279.222V64.48H276.022V60.32H279.502L278.742 59.16C277.809 57.72 276.915 56.6533 276.062 55.96C275.182 55.2667 274.115 54.92 272.862 54.92C272.329 54.92 271.795 54.9867 271.262 55.12C270.729 55.2267 270.249 55.36 269.822 55.52L268.102 50.68ZM301.275 70.32V64.48H287.155V60.32H309.995V64.48H306.795V86H301.275V74.6H295.075L295.315 78.2C295.181 78.3333 294.888 78.4933 294.435 78.68C294.008 78.84 293.515 78.92 292.955 78.92C291.595 78.92 290.488 78.48 289.635 77.6C288.781 76.6933 288.355 75.52 288.355 74.08C288.355 71.5733 289.808 70.32 292.715 70.32H301.275ZM323.666 84.08L318.706 86.92L311.506 76.04C311.053 75.3467 310.719 74.76 310.506 74.28C310.293 73.7733 310.186 73.2933 310.186 72.84C310.186 72.0933 310.493 71.5067 311.106 71.08C311.746 70.6267 312.613 70.4 313.706 70.4L314.346 71.24C314.586 71.56 314.853 71.8267 315.146 72.04C315.466 72.2533 315.799 72.36 316.146 72.36C316.839 72.36 317.413 72.08 317.866 71.52C318.346 70.96 318.586 70.1067 318.586 68.96C318.586 67.9467 318.426 67.0533 318.106 66.28C317.813 65.5067 317.506 64.9067 317.186 64.48H309.186V60.32H338.266V64.48H335.066V86H329.546V76.8C329.226 76.9333 328.786 77.0533 328.226 77.16C327.693 77.24 326.986 77.28 326.106 77.28C325.146 77.28 324.159 77.16 323.146 76.92C322.159 76.6533 321.293 76.3067 320.546 75.88C319.613 76.36 318.679 76.6 317.746 76.6H317.586L323.666 84.08ZM325.506 72.84C326.466 72.84 327.266 72.7467 327.906 72.56C328.546 72.3467 329.093 72.0533 329.546 71.68V64.48H322.826C323.093 64.8533 323.386 65.4667 323.706 66.32C324.026 67.1467 324.186 68.2133 324.186 69.52C324.186 70.1333 324.133 70.6933 324.026 71.2C323.919 71.7067 323.773 72.1867 323.586 72.64C323.879 72.72 324.199 72.7733 324.546 72.8C324.919 72.8267 325.239 72.84 325.506 72.84ZM368.804 64.48H365.604V86H360.084V77.76C359.871 77.92 359.417 78.0933 358.724 78.28C358.057 78.4667 357.217 78.56 356.204 78.56C355.191 78.56 354.231 78.44 353.324 78.2C352.444 77.96 351.657 77.5733 350.964 77.04C350.297 76.48 349.764 75.7733 349.364 74.92C348.964 74.0667 348.764 73.0267 348.764 71.8V64.48H346.764V60.32H368.804V64.48ZM354.284 71.52C354.284 72.5067 354.564 73.2133 355.124 73.64C355.684 74.0667 356.351 74.28 357.124 74.28C357.871 74.28 358.484 74.1867 358.964 74C359.444 73.7867 359.817 73.5467 360.084 73.28V64.48H354.284V71.52ZM382.694 84.08L377.734 86.92L370.534 75.84C370.081 75.1467 369.747 74.56 369.534 74.08C369.321 73.5733 369.214 73.0933 369.214 72.64C369.214 71.8933 369.521 71.3067 370.134 70.88C370.774 70.4267 371.641 70.2 372.734 70.2L373.374 71.04C373.614 71.36 373.881 71.6267 374.174 71.84C374.494 72.0533 374.827 72.16 375.174 72.16C375.867 72.16 376.441 71.92 376.894 71.44C377.374 70.9333 377.614 70.1067 377.614 68.96C377.614 67.9467 377.454 67.0533 377.134 66.28C376.841 65.5067 376.534 64.9067 376.214 64.48H368.014V60.32H386.214V64.48H381.854C382.121 64.8533 382.414 65.4667 382.734 66.32C383.054 67.1467 383.214 68.2133 383.214 69.52C383.214 70.6933 383.001 71.72 382.574 72.6C382.147 73.4533 381.614 74.16 380.974 74.72C380.334 75.28 379.641 75.7067 378.894 76C378.147 76.2667 377.441 76.4 376.774 76.4H376.614L382.694 84.08ZM414.494 78.6C414.494 79.32 414.36 79.9467 414.094 80.48C413.854 81.0133 413.614 81.3867 413.374 81.6L416.254 87.52L411.174 89.24L409.534 83.8C409.214 83.9333 408.72 84.0533 408.054 84.16C407.414 84.2667 406.707 84.32 405.934 84.32C404.574 84.32 403.294 84.12 402.094 83.72C400.92 83.32 399.907 82.7467 399.054 82C398.2 81.2267 397.52 80.2933 397.014 79.2C396.534 78.08 396.294 76.8133 396.294 75.4C396.294 74.0933 396.52 72.9467 396.974 71.96C397.454 70.9467 398.094 70.1067 398.894 69.44C399.694 68.7467 400.627 68.2267 401.694 67.88C402.787 67.5333 403.947 67.36 405.174 67.36H407.054V64.48H394.694V60.32H417.334V64.48H412.534V71.6H406.974C406.28 71.6 405.627 71.68 405.014 71.84C404.427 72 403.907 72.2533 403.454 72.6C403 72.92 402.64 73.3467 402.374 73.88C402.107 74.3867 401.974 74.9867 401.974 75.68C401.974 76.4267 402.08 77.08 402.294 77.64C402.534 78.1733 402.854 78.6133 403.254 78.96C403.654 79.3067 404.107 79.5733 404.614 79.76C405.12 79.92 405.654 80 406.214 80C406.614 80 407 79.96 407.374 79.88C407.747 79.7733 408 79.6667 408.134 79.56L407.134 76C407.507 75.6267 407.974 75.3067 408.534 75.04C409.12 74.7733 409.8 74.64 410.574 74.64C411.8 74.64 412.76 75.0267 413.454 75.8C414.147 76.5733 414.494 77.5067 414.494 78.6ZM419.339 64.48H416.139V60.32H428.059V64.48H424.859V86H419.339V64.48ZM436.832 67C437.872 67 438.712 67.0933 439.352 67.28C440.019 67.44 440.645 67.6933 441.232 68.04V64.48H427.272V60.32H449.952V64.48H446.752V86H441.232V81.52C441.019 81.7333 440.579 81.9467 439.912 82.16C439.272 82.3733 438.472 82.48 437.512 82.48C436.365 82.48 435.272 82.32 434.232 82C433.192 81.6533 432.272 81.16 431.472 80.52C430.672 79.8533 430.032 79.0267 429.552 78.04C429.099 77.0267 428.872 75.8533 428.872 74.52C428.872 73.3733 429.059 72.3333 429.432 71.4C429.805 70.4667 430.339 69.68 431.032 69.04C431.725 68.3733 432.565 67.8667 433.552 67.52C434.539 67.1733 435.632 67 436.832 67ZM441.272 72.48C440.899 72.1067 440.445 71.8133 439.912 71.6C439.379 71.3867 438.765 71.28 438.072 71.28C436.925 71.28 436.032 71.5867 435.392 72.2C434.779 72.7867 434.472 73.64 434.472 74.76C434.472 75.88 434.805 76.7333 435.472 77.32C436.165 77.88 437.059 78.16 438.152 78.16C439.032 78.16 439.765 77.8933 440.352 77.36C440.965 76.8 441.272 76.0933 441.272 75.24V72.48ZM452.347 64.48H449.147V60.32H461.067V64.48H457.867V86H452.347V64.48ZM482.777 72.64C482.563 72.3733 482.217 72.1333 481.737 71.92C481.257 71.68 480.71 71.56 480.097 71.56C479.083 71.56 478.27 71.84 477.657 72.4C477.07 72.96 476.777 73.7467 476.777 74.76C476.777 75.8 477.07 76.6133 477.657 77.2C478.27 77.76 479.043 78.04 479.977 78.04C480.67 78.04 481.31 77.8133 481.897 77.36C482.483 76.9067 482.777 76.2133 482.777 75.28V72.64ZM488.177 86H482.737V81.32C482.523 81.5333 482.083 81.76 481.417 82C480.777 82.24 479.99 82.36 479.057 82.36C477.963 82.36 476.937 82.1867 475.977 81.84C475.017 81.4933 474.177 80.9867 473.457 80.32C472.763 79.6267 472.203 78.8 471.777 77.84C471.377 76.88 471.177 75.7733 471.177 74.52C471.177 73.32 471.363 72.28 471.737 71.4C472.137 70.4933 472.67 69.7333 473.337 69.12C474.003 68.5067 474.777 68.0533 475.657 67.76C476.537 67.44 477.483 67.28 478.497 67.28C479.27 67.28 480.057 67.3867 480.857 67.6C481.657 67.7867 482.283 68.0667 482.737 68.44V64.48H469.577V60.32H501.657V64.48H488.177V68.56C488.603 68.2133 489.177 67.9467 489.897 67.76C490.643 67.5467 491.523 67.44 492.537 67.44C493.603 67.44 494.577 67.6133 495.457 67.96C496.363 68.28 497.137 68.7467 497.777 69.36C498.443 69.9733 498.95 70.7333 499.297 71.64C499.67 72.5467 499.857 73.56 499.857 74.68C499.857 75.9067 499.643 76.9867 499.217 77.92C498.79 78.8533 498.217 79.6267 497.497 80.24C496.777 80.8533 495.923 81.32 494.937 81.64C493.977 81.96 492.937 82.12 491.817 82.12C491.523 82.12 491.15 82.1067 490.697 82.08C490.243 82.0267 489.91 81.9733 489.697 81.92L490.057 77.72C490.27 77.7733 490.443 77.8 490.577 77.8C490.737 77.8 490.95 77.8 491.217 77.8C492.017 77.8 492.723 77.5333 493.337 77C493.95 76.4667 494.257 75.6933 494.257 74.68C494.257 73.7467 493.99 73.0267 493.457 72.52C492.923 71.9867 492.163 71.72 491.177 71.72C490.27 71.72 489.537 72.0133 488.977 72.6C488.443 73.1867 488.177 74.04 488.177 75.16V86ZM516.132 84.08L511.172 86.92L503.972 75.84C503.518 75.1467 503.185 74.56 502.972 74.08C502.758 73.5733 502.652 73.0933 502.652 72.64C502.652 71.8933 502.958 71.3067 503.572 70.88C504.212 70.4267 505.078 70.2 506.172 70.2L506.812 71.04C507.052 71.36 507.318 71.6267 507.612 71.84C507.932 72.0533 508.265 72.16 508.612 72.16C509.305 72.16 509.878 71.92 510.332 71.44C510.812 70.9333 511.052 70.1067 511.052 68.96C511.052 67.9467 510.892 67.0533 510.572 66.28C510.278 65.5067 509.972 64.9067 509.652 64.48H501.452V60.32H519.652V64.48H515.292C515.558 64.8533 515.852 65.4667 516.172 66.32C516.492 67.1467 516.652 68.2133 516.652 69.52C516.652 70.6933 516.438 71.72 516.012 72.6C515.585 73.4533 515.052 74.16 514.412 74.72C513.772 75.28 513.078 75.7067 512.332 76C511.585 76.2667 510.878 76.4 510.212 76.4H510.052L516.132 84.08ZM512.776 55.04C512.776 54.72 512.843 54.4133 512.976 54.12C513.11 53.8 513.296 53.52 513.536 53.28C513.776 53.04 514.056 52.8533 514.376 52.72C514.696 52.56 515.043 52.48 515.416 52.48C516.216 52.48 516.843 52.76 517.296 53.32C517.776 53.8533 518.016 54.4267 518.016 55.04C518.016 55.76 517.776 56.3733 517.296 56.88C516.816 57.3867 516.19 57.64 515.416 57.64C514.643 57.64 514.016 57.3867 513.536 56.88C513.03 56.3733 512.776 55.76 512.776 55.04ZM497.216 50.68C497.723 50.4133 498.35 50.2 499.096 50.04C499.816 49.88 500.59 49.8 501.416 49.8C503.55 49.8 505.35 50.36 506.816 51.48C508.283 52.5733 509.496 54.0267 510.456 55.84L513.496 61.6H509.456L507.856 59.16C506.923 57.72 506.03 56.6533 505.176 55.96C504.296 55.2667 503.23 54.92 501.976 54.92C501.443 54.92 500.91 54.9867 500.376 55.12C499.843 55.2267 499.363 55.36 498.936 55.52L497.216 50.68Z" fill="black"/>
</g>
</g>
<defs>
<filter id="filter0_d_400_1366" x="0.794922" y="0" width="636.205" height="148.459" filterUnits="userSpaceOnUse" color-interpolation-filters="sRGB">
<feFlood flood-opacity="0" result="BackgroundImageFix"/>
<feColorMatrix in="SourceAlpha" type="matrix" values="0 0 0 0 0 0 0 0 0 0 0 0 0 0 0 0 0 0 127 0" result="hardAlpha"/>
<feOffset/>
<feGaussianBlur stdDeviation="12"/>
<feComposite in2="hardAlpha" operator="out"/>
<feColorMatrix type="matrix" values="0 0 0 0 0.941176 0 0 0 0 0.741176 0 0 0 0 0.317647 0 0 0 1 0"/>
<feBlend mode="normal" in2="BackgroundImageFix" result="effect1_dropShadow_400_1366"/>
<feBlend mode="normal" in="SourceGraphic" in2="effect1_dropShadow_400_1366" result="shape"/>
</filter>
<filter id="filter1_d_400_1366" x="155" y="25.8" width="388.652" height="87.4399" filterUnits="userSpaceOnUse" color-interpolation-filters="sRGB">
<feFlood flood-opacity="0" result="BackgroundImageFix"/>
<feColorMatrix in="SourceAlpha" type="matrix" values="0 0 0 0 0 0 0 0 0 0 0 0 0 0 0 0 0 0 127 0" result="hardAlpha"/>
<feOffset/>
<feGaussianBlur stdDeviation="12"/>
<feComposite in2="hardAlpha" operator="out"/>
<feColorMatrix type="matrix" values="0 0 0 0 1 0 0 0 0 1 0 0 0 0 1 0 0 0 0.6 0"/>
<feBlend mode="normal" in2="BackgroundImageFix" result="effect1_dropShadow_400_1366"/>
<feBlend mode="normal" in="SourceGraphic" in2="effect1_dropShadow_400_1366" result="shape"/>
</filter>
</defs>
</svg>
