<svg width="637" height="149" viewBox="0 0 637 149" fill="none" xmlns="http://www.w3.org/2000/svg">
<g filter="url(#filter0_d_234_379)">
<path d="M76.334 24.3057L61.8381 24.3057L24.795 124.459L39.2909 124.459L76.334 24.3057Z" fill="#FEEC6E"/>
<path d="M105.66 24.3057L91.1643 24.3057L54.1212 124.459L68.6171 124.459L105.66 24.3057Z" fill="#FEEC6E"/>
<path d="M612.74 24.3057H122.827L85.7845 124.459L575.697 124.459L612.74 24.3057Z" fill="#FEEC6E"/>
<g filter="url(#filter1_d_234_379)">
<path d="M196.892 71.0192H189.682C189.631 70.4226 189.495 69.8814 189.273 69.3956C189.06 68.9098 188.762 68.4922 188.378 68.1428C188.003 67.7848 187.547 67.5121 187.01 67.3246C186.473 67.1286 185.864 67.0305 185.182 67.0305C183.989 67.0305 182.979 67.3203 182.152 67.8999C181.334 68.4794 180.712 69.3104 180.286 70.3928C179.868 71.4751 179.659 72.7749 179.659 74.2919C179.659 75.8942 179.873 77.2365 180.299 78.3189C180.733 79.3928 181.36 80.2024 182.178 80.7479C182.996 81.2848 183.98 81.5533 185.131 81.5533C185.787 81.5533 186.375 81.4723 186.895 81.3104C187.415 81.1399 187.867 80.897 188.25 80.5817C188.634 80.2663 188.945 79.8871 189.184 79.4439C189.431 78.9922 189.597 78.4851 189.682 77.9226L196.892 77.9737C196.807 79.0817 196.496 80.2109 195.959 81.3615C195.422 82.5036 194.659 83.5604 193.671 84.532C192.691 85.495 191.476 86.2706 190.027 86.8587C188.578 87.4467 186.895 87.7408 184.978 87.7408C182.574 87.7408 180.418 87.2251 178.509 86.1939C176.608 85.1626 175.104 83.6456 173.996 81.6428C172.897 79.6399 172.347 77.1896 172.347 74.2919C172.347 71.3771 172.909 68.9226 174.034 66.9283C175.159 64.9254 176.676 63.4126 178.586 62.3899C180.495 61.3587 182.625 60.843 184.978 60.843C186.631 60.843 188.152 61.0689 189.542 61.5206C190.931 61.9723 192.15 62.6328 193.198 63.5021C194.246 64.3629 195.09 65.424 195.729 66.6854C196.368 67.9467 196.756 69.3913 196.892 71.0192ZM200.117 87.3828V61.201H207.225V81.6555H217.81V87.3828H200.117ZM227.485 87.3828H219.814L228.456 61.201H238.172L246.814 87.3828H239.144L233.417 68.4112H233.212L227.485 87.3828ZM226.053 77.0533H240.473V82.3714H226.053V77.0533ZM256.444 61.201V87.3828H249.336V61.201H256.444ZM259.812 61.201H268.659L274.744 76.0305H275.051L281.136 61.201H289.983V87.3828H283.028V72.2464H282.824L276.994 87.1783H272.801L266.972 72.1442H266.767V87.3828H259.812V61.201ZM300.523 87.3828V61.201H311.876C313.87 61.201 315.545 61.4695 316.9 62.0064C318.263 62.5433 319.29 63.3018 319.981 64.282C320.68 65.2621 321.029 66.4169 321.029 67.7464C321.029 68.7095 320.816 69.5874 320.39 70.38C319.972 71.1726 319.384 71.8374 318.626 72.3743C317.867 72.9027 316.981 73.2692 315.967 73.4737V73.7294C317.092 73.772 318.114 74.0575 319.035 74.5859C319.955 75.1058 320.688 75.826 321.234 76.7464C321.779 77.6584 322.052 78.7322 322.052 79.968C322.052 81.3999 321.677 82.674 320.927 83.7905C320.185 84.907 319.129 85.7848 317.756 86.424C316.384 87.0632 314.748 87.3828 312.847 87.3828H300.523ZM307.631 81.7067H310.955C312.148 81.7067 313.043 81.4851 313.64 81.0419C314.237 80.5902 314.535 79.9254 314.535 79.0476C314.535 78.4339 314.394 77.9141 314.113 77.4879C313.832 77.0618 313.431 76.7379 312.911 76.5163C312.4 76.2947 311.782 76.1839 311.058 76.1839H307.631V81.7067ZM307.631 71.7862H310.546C311.168 71.7862 311.718 71.6882 312.195 71.4922C312.673 71.2962 313.043 71.0149 313.308 70.6484C313.58 70.2734 313.717 69.8175 313.717 69.2805C313.717 68.4709 313.427 67.853 312.847 67.4268C312.268 66.9922 311.535 66.7749 310.648 66.7749H307.631V71.7862ZM349.934 74.2919C349.934 77.2067 349.367 79.6655 348.234 81.6683C347.1 83.6626 345.57 85.1754 343.644 86.2067C341.718 87.2294 339.57 87.7408 337.201 87.7408C334.815 87.7408 332.658 87.2251 330.732 86.1939C328.815 85.1541 327.289 83.6371 326.156 81.6428C325.031 79.6399 324.468 77.1896 324.468 74.2919C324.468 71.3771 325.031 68.9226 326.156 66.9283C327.289 64.9254 328.815 63.4126 330.732 62.3899C332.658 61.3587 334.815 60.843 337.201 60.843C339.57 60.843 341.718 61.3587 343.644 62.3899C345.57 63.4126 347.1 64.9254 348.234 66.9283C349.367 68.9226 349.934 71.3771 349.934 74.2919ZM342.621 74.2919C342.621 72.7237 342.413 71.4027 341.995 70.3288C341.586 69.2464 340.977 68.4283 340.167 67.8743C339.366 67.3118 338.377 67.0305 337.201 67.0305C336.025 67.0305 335.032 67.3118 334.222 67.8743C333.421 68.4283 332.812 69.2464 332.394 70.3288C331.985 71.4027 331.781 72.7237 331.781 74.2919C331.781 75.8601 331.985 77.1854 332.394 78.2678C332.812 79.3416 333.421 80.1598 334.222 80.7223C335.032 81.2763 336.025 81.5533 337.201 81.5533C338.377 81.5533 339.366 81.2763 340.167 80.7223C340.977 80.1598 341.586 79.3416 341.995 78.2678C342.413 77.1854 342.621 75.8601 342.621 74.2919ZM375.876 61.201V87.3828H369.944L360.484 73.6271H360.331V87.3828H353.223V61.201H359.257L368.564 74.9055H368.768V61.201H375.876ZM394.733 61.201H401.841V77.9737C401.841 79.968 401.363 81.6939 400.409 83.1513C399.463 84.6001 398.142 85.7209 396.446 86.5135C394.75 87.2976 392.781 87.6896 390.539 87.6896C388.281 87.6896 386.304 87.2976 384.608 86.5135C382.912 85.7209 381.591 84.6001 380.645 83.1513C379.707 81.6939 379.238 79.968 379.238 77.9737V61.201H386.346V77.3601C386.346 78.1697 386.525 78.8942 386.883 79.5334C387.241 80.1641 387.735 80.6584 388.366 81.0163C389.005 81.3743 389.73 81.5533 390.539 81.5533C391.358 81.5533 392.082 81.3743 392.713 81.0163C393.343 80.6584 393.838 80.1641 394.196 79.5334C394.554 78.8942 394.733 78.1697 394.733 77.3601V61.201ZM419.332 69.3828C419.264 68.5305 418.945 67.8658 418.374 67.3885C417.811 66.9112 416.955 66.6726 415.804 66.6726C415.071 66.6726 414.47 66.7621 414.001 66.941C413.541 67.1115 413.2 67.3459 412.979 67.6442C412.757 67.9425 412.642 68.2834 412.634 68.6669C412.616 68.9822 412.672 69.2678 412.8 69.5234C412.936 69.7706 413.149 69.9964 413.439 70.201C413.729 70.397 414.099 70.576 414.551 70.7379C415.003 70.8999 415.54 71.0447 416.162 71.1726L418.31 71.6328C419.759 71.9396 420.999 72.3445 422.03 72.8473C423.061 73.3501 423.905 73.9425 424.561 74.6243C425.217 75.2976 425.699 76.0561 426.006 76.8999C426.321 77.7436 426.483 78.6641 426.491 79.6612C426.483 81.3828 426.053 82.8402 425.2 84.0334C424.348 85.2266 423.129 86.1342 421.544 86.7564C419.967 87.3786 418.071 87.6896 415.855 87.6896C413.58 87.6896 411.594 87.353 409.898 86.6797C408.21 86.0064 406.898 84.9709 405.96 83.5732C405.031 82.1669 404.563 80.3686 404.554 78.1783H411.304C411.347 78.9794 411.547 79.6527 411.905 80.1982C412.263 80.7436 412.766 81.157 413.413 81.4382C414.07 81.7195 414.849 81.8601 415.753 81.8601C416.511 81.8601 417.146 81.7663 417.658 81.5788C418.169 81.3913 418.557 81.1314 418.821 80.799C419.085 80.4666 419.222 80.0874 419.23 79.6612C419.222 79.2607 419.089 78.9112 418.834 78.6129C418.587 78.3061 418.178 78.0334 417.607 77.7947C417.036 77.5476 416.264 77.3175 415.293 77.1044L412.685 76.5419C410.366 76.0391 408.538 75.1996 407.2 74.0234C405.871 72.8388 405.21 71.2237 405.219 69.1783C405.21 67.5163 405.653 66.0632 406.548 64.8189C407.452 63.5661 408.7 62.5902 410.294 61.8913C411.896 61.1925 413.733 60.843 415.804 60.843C417.918 60.843 419.746 61.1967 421.288 61.9041C422.831 62.6115 424.02 63.6087 424.855 64.8956C425.699 66.174 426.125 67.6697 426.134 69.3828H419.332ZM459.021 61.201V87.3828H453.089L443.629 73.6271H443.475V87.3828H436.367V61.201H442.401L451.708 74.9055H451.913V61.201H459.021ZM487.746 74.2919C487.746 77.2067 487.18 79.6655 486.046 81.6683C484.913 83.6626 483.383 85.1754 481.457 86.2067C479.531 87.2294 477.383 87.7408 475.013 87.7408C472.627 87.7408 470.471 87.2251 468.545 86.1939C466.627 85.1541 465.102 83.6371 463.968 81.6428C462.843 79.6399 462.281 77.1896 462.281 74.2919C462.281 71.3771 462.843 68.9226 463.968 66.9283C465.102 64.9254 466.627 63.4126 468.545 62.3899C470.471 61.3587 472.627 60.843 475.013 60.843C477.383 60.843 479.531 61.3587 481.457 62.3899C483.383 63.4126 484.913 64.9254 486.046 66.9283C487.18 68.9226 487.746 71.3771 487.746 74.2919ZM480.434 74.2919C480.434 72.7237 480.225 71.4027 479.808 70.3288C479.398 69.2464 478.789 68.4283 477.979 67.8743C477.178 67.3118 476.19 67.0305 475.013 67.0305C473.837 67.0305 472.844 67.3118 472.035 67.8743C471.234 68.4283 470.624 69.2464 470.207 70.3288C469.798 71.4027 469.593 72.7237 469.593 74.2919C469.593 75.8601 469.798 77.1854 470.207 78.2678C470.624 79.3416 471.234 80.1598 472.035 80.7223C472.844 81.2763 473.837 81.5533 475.013 81.5533C476.19 81.5533 477.178 81.2763 477.979 80.7223C478.789 80.1598 479.398 79.3416 479.808 78.2678C480.225 77.1854 480.434 75.8601 480.434 74.2919ZM496.031 87.3828L488.309 61.201H496.235L499.815 77.3089H500.019L504.263 61.201H510.502L514.746 77.3601H514.951L518.531 61.201H526.457L518.735 87.3828H511.934L507.485 72.7578H507.281L502.832 87.3828H496.031Z" fill="black"/>
</g>
</g>
<defs>
<filter id="filter0_d_234_379" x="0.794922" y="0.305664" width="635.945" height="148.153" filterUnits="userSpaceOnUse" color-interpolation-filters="sRGB">
<feFlood flood-opacity="0" result="BackgroundImageFix"/>
<feColorMatrix in="SourceAlpha" type="matrix" values="0 0 0 0 0 0 0 0 0 0 0 0 0 0 0 0 0 0 127 0" result="hardAlpha"/>
<feOffset/>
<feGaussianBlur stdDeviation="12"/>
<feComposite in2="hardAlpha" operator="out"/>
<feColorMatrix type="matrix" values="0 0 0 0 0.941176 0 0 0 0 0.741176 0 0 0 0 0.317647 0 0 0 1 0"/>
<feBlend mode="normal" in2="BackgroundImageFix" result="effect1_dropShadow_234_379"/>
<feBlend mode="normal" in="SourceGraphic" in2="effect1_dropShadow_234_379" result="shape"/>
</filter>
<filter id="filter1_d_234_379" x="148.348" y="36.8433" width="402.109" height="74.8975" filterUnits="userSpaceOnUse" color-interpolation-filters="sRGB">
<feFlood flood-opacity="0" result="BackgroundImageFix"/>
<feColorMatrix in="SourceAlpha" type="matrix" values="0 0 0 0 0 0 0 0 0 0 0 0 0 0 0 0 0 0 127 0" result="hardAlpha"/>
<feOffset/>
<feGaussianBlur stdDeviation="12"/>
<feComposite in2="hardAlpha" operator="out"/>
<feColorMatrix type="matrix" values="0 0 0 0 1 0 0 0 0 1 0 0 0 0 1 0 0 0 0.6 0"/>
<feBlend mode="normal" in2="BackgroundImageFix" result="effect1_dropShadow_234_379"/>
<feBlend mode="normal" in="SourceGraphic" in2="effect1_dropShadow_234_379" result="shape"/>
</filter>
</defs>
</svg>
