<svg width="600" height="600" viewBox="0 0 600 600" fill="none" xmlns="http://www.w3.org/2000/svg">
<g opacity="0.1">
<path d="M599.321 152.062C595.585 161.982 593.167 172.692 587.834 181.673C574.648 203.988 554.135 216.192 528.217 217.203C502.913 218.2 477.537 217.731 452.19 217.423C446.121 217.245 440.362 214.701 436.143 210.336C431.923 205.97 429.578 200.128 429.606 194.057C429.635 187.985 432.036 182.166 436.296 177.84C440.557 173.514 446.339 171.025 452.409 170.904C471.456 170.567 490.621 170.787 509.726 170.772H517.917C510.591 160.516 504.452 150.832 497.316 142.026C459.222 95.0529 410.755 64.5044 351.474 52.3728C279.681 37.7212 213.149 51.3765 153.37 94.0566C103.32 129.777 69.8558 177.644 55.043 237.496C37.0948 309.772 48.3912 377.932 90.0018 439.732C131.349 501.108 189.428 538.191 262.891 549.355C280.092 551.978 297.835 551.04 315.329 551.714C319.973 551.89 324.75 551.304 329.248 552.183C334.756 553.249 339.681 556.302 343.085 560.762C346.489 565.223 348.135 570.778 347.709 576.373C347.28 581.978 344.852 587.243 340.866 591.207C336.88 595.171 331.603 597.571 325.995 597.969C322.332 598.277 318.669 598.717 315.021 599.083H282.275C280.37 598.731 278.48 598.292 276.575 598.043C265.572 596.578 254.451 595.786 243.58 593.647C178.688 581.193 123.569 550.63 79.1889 501.796C19.3077 435.908 -6.20071 357.859 1.93093 269.392C7.79157 206.654 31.3807 150.656 73.504 103.712C149.282 19.2309 244.107 -13.9843 355.753 5.6635C430.315 18.8499 490.621 57.5155 537.286 117.235C542.268 123.609 546.839 130.305 552.524 138.099V131.125C552.524 112.005 552.392 92.8992 552.612 73.7788C552.714 63.7132 557.549 56.1969 566.897 52.2263C576.025 48.329 584.757 49.8967 591.805 56.7683C595.116 60.021 596.889 64.856 599.365 68.9731L599.321 152.062Z" fill="#9A732B"/>
<path d="M323.211 206.098C323.211 236.514 323.138 266.931 323.211 297.348C323.318 301.056 322.654 304.746 321.259 308.184C319.864 311.622 317.77 314.732 315.109 317.318C285.044 347.354 255.037 377.507 224.884 407.425C210.804 421.403 189.472 416.304 184.593 397.99C182.16 388.876 185.076 381.111 191.596 374.547C200.27 365.844 208.953 357.156 217.647 348.482C235.99 330.138 254.276 311.75 272.722 293.524C273.979 292.36 274.963 290.933 275.604 289.345C276.244 287.757 276.526 286.047 276.429 284.337C276.331 227.782 276.331 171.232 276.429 114.686C276.429 102.555 282.055 93.7929 291.857 90.2912C307.417 84.7236 323.036 95.9028 323.153 113.074C323.358 140.561 323.153 168.062 323.153 195.548L323.211 206.098Z" fill="#9A732B"/>
<path d="M414.403 574.996C409.264 574.786 404.325 572.948 400.298 569.749C396.272 566.549 393.366 562.153 392.001 557.194C390.619 552.371 390.889 547.225 392.769 542.574C394.649 537.923 398.03 534.033 402.374 531.524C410.148 527.084 418.149 523.055 426.344 519.451C431.748 517.069 437.862 516.854 443.42 518.853C448.978 520.852 453.555 524.912 456.204 530.191C458.932 535.336 459.582 541.332 458.02 546.942C456.458 552.552 452.803 557.349 447.809 560.344C439.97 565.018 431.692 568.915 423.384 572.798C420.659 574.087 417.421 574.292 414.403 574.996Z" fill="#9A732B"/>
<path d="M541.608 377.228C543.806 369.785 546.209 358.064 550.707 347.222C554.941 336.966 567.439 332.922 578.062 336.38C588.684 339.837 595.644 349.932 593.71 360.789C591.992 370.744 589.473 380.543 586.179 390.092C582.486 400.744 571.38 405.887 559.557 403.66C549.388 401.784 541.755 392.305 541.608 377.228Z" fill="#9A732B"/>
<path d="M547.132 464.904C544.89 469.724 543.22 474.925 540.29 479.277C535.994 485.294 531.377 491.075 526.459 496.595C517.668 506.924 503.675 508.639 493.61 500.712C483.544 492.786 481.566 478.735 489.698 467.907C494.84 461.065 500.276 454.413 506.02 448.054C509.149 444.664 513.239 442.309 517.742 441.307C522.246 440.304 526.948 440.7 531.22 442.443C540.173 445.988 545.887 454.501 547.132 464.904Z" fill="#9A732B"/>
</g>
</svg>
