<svg width="32" height="31" viewBox="0 0 32 31" fill="none" xmlns="http://www.w3.org/2000/svg">
<path d="M24.8897 23.0141L23.3468 21.7415L22.4988 22.7696L23.1211 23.9481L24.8897 23.0141ZM21.1313 26.0832L21.5669 24.1312L20.8461 23.9704L20.1938 24.3165L21.1313 26.0832ZM27.2289 27.4438L26.7933 29.3958L31.0194 30.3388L28.9974 26.5098L27.2289 27.4438ZM25.7131 15.1456C25.7131 17.653 24.8261 19.9479 23.3468 21.7415L26.4325 24.2867C28.4811 21.8031 29.7131 18.6156 29.7131 15.1456H25.7131ZM15.339 4.77148C21.0685 4.77148 25.7131 9.41615 25.7131 15.1456H29.7131C29.7131 7.20701 23.2776 0.771484 15.339 0.771484V4.77148ZM4.96484 15.1456C4.96484 9.41615 9.60951 4.77148 15.339 4.77148V0.771484C7.40037 0.771484 0.964844 7.20701 0.964844 15.1456H4.96484ZM15.339 25.5198C9.60951 25.5198 4.96484 20.8751 4.96484 15.1456H0.964844C0.964844 23.0843 7.40037 29.5198 15.339 29.5198V25.5198ZM20.1938 24.3165C18.7473 25.0841 17.097 25.5198 15.339 25.5198V29.5198C17.7665 29.5198 20.0589 28.9164 22.0688 27.8498L20.1938 24.3165ZM27.6645 25.4918L21.5669 24.1312L20.6957 28.0352L26.7933 29.3958L27.6645 25.4918ZM23.1211 23.9481L25.4603 28.3777L28.9974 26.5098L26.6582 22.0802L23.1211 23.9481Z" fill="#D9D9D9"/>
<path d="M15.1416 10.4219H19.6344M19.6344 14.7881H9.82617M9.82617 18.395H19.6344" stroke="white" stroke-width="4" stroke-linecap="round" stroke-linejoin="round"/>
</svg>
