<svg width="137" height="66" viewBox="0 0 137 66" fill="none" xmlns="http://www.w3.org/2000/svg">
<path opacity="0.3" d="M130.497 9.47954L135.17 6.96571V64.9236H8.30073V46.8627L14.1418 45.2272H18.5811L20.9176 46.8627L23.9549 45.2272H27.4596L31.8989 42.8908L38.4409 41.2553L42.8802 42.8908L44.7494 40.087L54.5624 41.2553L59.8556 36.7031L69.0794 32.4971L76.8274 25.9298L81.7713 21.281L90.1834 21.281L94.4632 15.087L97.1934 17.0012L99.7761 10.5076L103.835 11.2455L107.893 10.5076L111.214 12.2833L112.974 12.2833L119.035 9.62215L124.127 10.5076L127.964 9.62215L130.497 9.47954Z" fill="url(#paint0_linear_233_39)"/>
<path d="M135.52 6.78259L130.496 9.4795L127.704 10.0889H123.396L119.288 9.4795L112.973 12.2832H110.972L107.465 10.8814L103.851 11.299L100.051 10.8814L97.2457 16.2006L94.5405 15.087L89.9317 21.11H81.6158L71.3962 30.8286L63.7817 33.8344L59.0726 36.9403L54.5618 41.2552L44.7487 40.087L42.8795 42.8907L38.4403 41.2552L31.8982 42.8907L27.459 45.2272H23.9543L20.9169 46.8627L18.5805 45.2272H14.1412L8.30009 46.8627" stroke="url(#paint1_linear_233_39)" stroke-width="4"/>
<rect x="0.851562" y="0.541504" width="134.318" height="64.5192" fill="url(#paint2_linear_233_39)"/>
<defs>
<linearGradient id="paint0_linear_233_39" x1="23.1387" y1="68.3945" x2="62.7581" y2="-100.999" gradientUnits="userSpaceOnUse">
<stop stop-color="#9A732B"/>
<stop offset="0.13" stop-color="#F0BD51"/>
<stop offset="0.31" stop-color="#FEEC6E"/>
<stop offset="0.68" stop-color="#DD9C2B"/>
<stop offset="0.85" stop-color="#FCD755"/>
</linearGradient>
<linearGradient id="paint1_linear_233_39" x1="23.1386" y1="49.3107" x2="33.4462" y2="-13.1484" gradientUnits="userSpaceOnUse">
<stop stop-color="#9A732B"/>
<stop offset="0.13" stop-color="#F0BD51"/>
<stop offset="0.31" stop-color="#FEEC6E"/>
<stop offset="0.68" stop-color="#DD9C2B"/>
<stop offset="0.85" stop-color="#FCD755"/>
</linearGradient>
<linearGradient id="paint2_linear_233_39" x1="0.851562" y1="37.8812" x2="135.17" y2="37.8812" gradientUnits="userSpaceOnUse">
<stop offset="0.237847" stop-color="#030303"/>
<stop offset="0.612847" stop-color="#030303" stop-opacity="0"/>
</linearGradient>
</defs>
</svg>
