<svg width="155" height="171" viewBox="0 0 155 171" fill="none" xmlns="http://www.w3.org/2000/svg">
<path d="M66.9222 169.987C62.3155 166.692 57.7222 163.375 53.0887 160.138C51.7232 159.18 50.7383 158.101 51.0472 156.324C51.3561 154.547 52.6186 153.938 54.1228 153.463C59.0071 151.919 63.8779 150.329 68.7622 148.78C71.999 147.751 73.9599 149.403 73.5704 152.81C73.4137 154.153 73.1988 155.496 72.957 157.26C77.3847 157.067 81.6601 157.215 85.8325 156.637C112.076 152.984 131.165 139.178 142.689 115.37C150.062 100.18 151.226 84.1523 147.211 67.758C147.103 67.3327 146.987 66.9074 146.897 66.4731C146.57 64.9465 147.233 63.6885 148.545 63.3393C148.876 63.2299 149.227 63.1937 149.574 63.2334C149.92 63.273 150.254 63.3875 150.552 63.5688C150.85 63.7502 151.105 63.9942 151.3 64.2838C151.494 64.5735 151.623 64.9019 151.678 65.2464C152.408 68.4116 153.232 71.5812 153.621 74.8001C156.733 100.766 148.912 123.025 130.073 141.085C114.543 155.975 95.6861 162.739 74.1748 162.072C73.5749 162.072 72.9705 162.072 72.3034 162.072C71.2469 164.736 72.3303 168.219 69.2188 170.032L66.9222 169.987ZM68.3548 154.095L57.9461 157.466L66.873 163.756C67.3789 160.452 67.8445 157.425 68.3548 154.095Z" fill="url(#paint0_linear_234_321)"/>
<path d="M125.109 85.1058C125.149 111.331 103.669 132.838 77.4077 132.861C51.1463 132.883 29.7289 111.542 29.6215 85.1998C29.514 58.8579 51.0299 37.3778 77.3987 37.4136C90.0469 37.4207 102.175 42.4471 111.121 51.3891C120.066 60.3311 125.097 72.4576 125.109 85.1058ZM79.9326 103.116V127.524C87.6373 126.759 95.3465 117.836 98.5117 108.659C92.8268 105.408 86.4692 103.512 79.9326 103.116ZM74.7439 127.524V103.112C68.2025 103.515 61.8448 105.436 56.1739 108.721C59.3972 117.527 66.6274 126.597 74.7439 127.524ZM98.5206 61.4768C95.5972 52.053 86.348 42.7903 79.9237 42.8127V66.9028C84.5035 67.3057 93.896 64.5659 98.5206 61.4724V61.4768ZM74.7932 42.7142C66.9228 43.4843 59.0256 52.9394 56.2634 61.6022C61.9209 64.8625 68.2681 66.7415 74.7887 67.0864L74.7932 42.7142ZM54.0294 103.797C57.7363 102.387 60.9507 100.914 64.3262 99.9556C67.7018 98.9975 71.2878 98.5319 74.7708 97.8515V87.7158H51.491C52.3596 93.2224 53.1967 98.514 54.0294 103.797ZM103.235 87.7203H79.955V98.1111C87.2113 98.5665 94.278 100.616 100.652 104.115C101.547 98.514 102.366 93.2134 103.235 87.7069V87.7203ZM100.625 66.1238C94.2686 69.6236 87.2186 71.678 79.9774 72.1407V82.4644H103.257C102.362 76.9355 101.516 71.6528 100.625 66.1104V66.1238ZM51.5 82.5092H74.7798V72.1049C67.5586 71.6573 60.8164 69.7053 54.0563 66.1238C53.1967 71.7513 52.3551 77.0429 51.5 82.5092ZM34.6983 87.5905C35.1811 96.371 38.3839 104.784 43.8624 111.663C45.3398 110.418 46.5844 109.129 48.0573 108.193C49.7137 107.141 49.848 106.098 49.4272 104.191C48.3527 99.2662 47.7618 94.2297 46.9201 89.2514C46.8217 88.6649 46.3829 87.671 46.0785 87.6621C42.3493 87.5502 38.62 87.5905 34.6983 87.5905ZM110.899 111.627C116.361 104.558 119.499 96.674 119.996 87.6755H108.128C108.038 87.8188 107.985 87.8635 107.98 87.9083C107.483 94.0595 106.74 100.162 104.887 106.084C104.884 106.282 104.926 106.477 105.009 106.656C105.091 106.835 105.214 106.993 105.366 107.119C107.13 108.605 108.938 110.064 110.899 111.627ZM49.6152 63.3705L43.849 58.5803C38.3514 65.6403 35.24 73.5241 34.7207 82.5137H46.4053C47.4798 76.1252 48.5363 69.8486 49.6152 63.3705ZM105.079 63.3705C106.172 69.8441 107.228 76.1162 108.303 82.4913H120.01C119.504 73.7691 116.312 65.4169 110.872 58.5803L105.079 63.3705ZM103.186 111.663L96.0225 123.571C100.29 121.509 104.176 118.737 107.515 115.374L103.186 111.663ZM58.475 123.867L58.663 123.535C56.3082 119.614 53.9488 115.696 51.5 111.654L46.8709 115.683L58.475 123.867ZM47.2111 54.869L51.5492 58.5355L58.6764 46.6852C54.4124 48.7334 50.5338 51.5019 47.2111 54.869ZM107.515 54.8421C104.2 51.4918 100.328 48.7438 96.0718 46.721L103.19 58.5803L107.515 54.8421Z" fill="url(#paint1_linear_234_321)"/>
<path d="M83.2361 8.20632C83.451 6.80058 83.6569 5.38588 83.8763 3.97567C84.4314 0.456841 86.9205 -0.635517 89.8216 1.40146C94.0656 4.37859 98.2873 7.396 102.536 10.3552C103.807 11.2506 104.613 12.334 104.358 13.9636C104.103 15.5932 102.961 16.3587 101.502 16.8198C96.51 18.4091 91.5317 20.0297 86.54 21.6056C83.4868 22.5681 81.4856 20.9386 81.8124 17.7689C81.9602 16.3453 82.2153 14.9351 82.484 13.0816C80.2813 13.0816 78.1638 13.0458 76.0417 13.0816C61.0824 13.3357 46.5743 18.2464 34.536 27.1305C22.4978 36.0145 13.5282 48.4301 8.87515 62.6496C4.52363 75.8251 4.13414 89.1617 7.53209 102.615C8.17676 105.189 7.71564 106.572 6.04577 106.989C4.37589 107.405 3.31487 106.375 2.67468 103.797C-2.19738 84.2652 0.764682 63.6028 10.9276 46.2268C21.0905 28.8507 37.6479 16.14 57.0598 10.8119C64.52 8.7491 72.2574 7.86841 79.9903 8.20184C81.029 8.24213 82.0676 8.20632 83.2361 8.20632ZM97.4636 12.8891C94.3745 10.7089 91.5228 8.69429 88.5098 6.57226C88.004 9.91201 87.5428 12.9831 87.0504 16.2513L97.4636 12.8891Z" fill="url(#paint2_linear_234_321)"/>
<path d="M130.011 8.18405C140.643 8.27806 149.911 14.9889 153.08 24.8873C153.805 27.1571 153.38 28.4688 151.737 29.006C150.219 29.494 149.118 28.6613 148.384 26.4721C146.977 22.127 144.076 18.4212 140.195 16.0127C136.314 13.6041 131.706 12.6488 127.188 13.3162C122.67 13.9836 118.534 16.2306 115.516 19.6583C112.497 23.0859 110.791 27.4723 110.701 32.0387C110.61 36.605 112.141 41.0557 115.02 44.6004C117.9 48.1452 121.943 50.5546 126.432 51.4009C130.92 52.2472 135.562 51.4755 139.536 49.2229C143.509 46.9704 146.555 43.3827 148.133 39.0969C148.326 38.582 148.478 38.0493 148.684 37.5389C149.275 36.0929 150.519 35.4572 151.84 35.9093C152.143 36.0108 152.423 36.1711 152.663 36.3811C152.904 36.5911 153.1 36.8465 153.242 37.1328C153.383 37.419 153.467 37.7304 153.487 38.0491C153.508 38.3677 153.466 38.6873 153.362 38.9894C153.032 40.2175 152.599 41.4155 152.068 42.5709C147.368 52.9125 135.782 58.6877 124.813 56.1538C119.321 54.9392 114.42 51.8598 110.942 47.4394C107.464 43.019 105.625 37.5304 105.737 31.907C106.046 18.736 116.988 8.06765 130.011 8.18405Z" fill="url(#paint3_linear_234_321)"/>
<path d="M24.6291 113.525C36.5107 113.485 46.8926 122.268 48.6609 133.863C50.492 145.853 43.4633 157.318 32.0293 160.872C31.1608 161.146 29.961 161.204 29.2358 160.792C28.609 160.438 28.0091 159.162 28.1837 158.5C28.3372 158.034 28.5883 157.606 28.9203 157.245C29.2522 156.883 29.6574 156.597 30.1087 156.405C35.9287 154.412 40.2534 150.8 42.5142 145.056C45.4779 137.526 44.2109 130.546 38.7178 124.641C33.3052 118.821 26.4288 117.03 18.8986 119.439C11.3685 121.848 6.75736 127.278 5.61576 135.233C4.97879 139.702 5.94613 144.251 8.34598 148.074C10.7458 151.897 14.4229 154.745 18.7241 156.114C19.0419 156.217 19.3598 156.311 19.6642 156.44C21.0655 157.04 21.6788 158.33 21.2042 159.659C20.7566 160.89 19.5254 161.522 18.1018 161.11C11.3865 159.171 6.35892 155.088 3.15795 148.906C-5.20038 132.776 6.47532 113.592 24.6291 113.525Z" fill="url(#paint4_linear_234_321)"/>
<path d="M26.2721 128.115C26.2721 130.313 26.2184 132.144 26.3124 133.935C26.438 134.418 26.7504 134.832 27.1809 135.085C27.8703 135.533 28.6807 135.779 29.4193 136.191C32.5218 137.982 33.6769 140.377 33.1486 144.12C32.7009 147.303 30.7624 149.232 27.745 150.128C26.9347 150.365 26.1423 150.455 26.1915 151.645C26.1915 151.905 25.2558 152.541 25.0365 152.415C24.4276 152.107 23.9665 151.52 23.3039 150.871C21.6699 150.249 19.6553 149.685 17.8421 148.731C16.1454 147.836 15.6977 146.345 16.2529 145.002C16.9289 143.363 17.8556 143.095 19.3509 144.026C20.6939 144.85 22.037 145.597 23.8277 146.627C23.8277 143.833 23.8591 141.608 23.7919 139.383C23.7919 139.092 23.3039 138.725 22.9637 138.542C22.1892 138.125 21.3431 137.843 20.5686 137.431C17.6049 135.86 16.3245 133.581 16.6871 130.6C17.0676 127.466 18.9255 125.411 22.2161 124.587C22.4436 124.562 22.664 124.492 22.8645 124.381C23.065 124.271 23.2417 124.122 23.3845 123.943C23.9307 123.401 24.4142 122.541 25.041 122.425C25.4886 122.344 26.1109 123.267 26.4333 123.978C27.9299 124.262 29.4083 124.634 30.8609 125.093C32.4368 125.68 32.9113 126.915 32.3338 128.258C31.8548 129.382 31.0847 129.901 29.8357 129.418C28.7747 129.006 27.6778 128.634 26.2721 128.115ZM26.1378 139.898V146.094C27.7898 145.678 28.712 144.751 28.7568 143.202C28.8015 141.487 27.7584 140.534 26.1378 139.898ZM23.9665 133.72V128.585C22.1265 128.845 21.2804 129.534 21.164 130.761C21.0342 132.184 21.8579 133.057 23.9665 133.72Z" fill="url(#paint5_linear_234_321)"/>
<path d="M131.613 23.0696C131.613 24.9992 131.573 26.8123 131.649 28.621C131.75 29.0624 132.02 29.4466 132.401 29.6909C132.925 29.9907 133.472 30.2511 134.035 30.4699C137.616 32.2607 138.874 34.5528 138.512 38.4701C138.212 41.6755 136.242 43.8423 132.728 44.881C132.414 44.975 132.101 45.078 131.787 45.1765L132.087 45.5436C131.496 46.0718 130.964 46.8866 130.297 47.0299C129.921 47.1149 129.294 46.1345 128.703 45.5615C126.984 44.9034 124.983 44.3214 123.165 43.3767C121.871 42.7052 120.949 41.492 121.544 39.7952C122.14 38.0985 123.152 37.7493 124.714 38.6939C126.057 39.5042 127.4 40.2474 129.164 41.2413C129.164 38.5104 129.204 36.3167 129.124 34.1589C129.124 33.8186 128.618 33.3978 128.251 33.1874C127.44 32.7397 126.558 32.395 125.721 31.9741C123.013 30.6311 121.746 28.3926 122.014 25.3797C122.288 22.2907 124.042 20.3522 126.939 19.4075C127.615 19.1882 128.318 19.0449 128.752 18.539C129.307 18.0197 129.813 17.1691 130.426 17.0796C130.874 17.0124 131.47 17.9526 132.352 18.7718C133.667 19.0152 134.965 19.3458 136.237 19.7612C137.813 20.3566 138.261 21.5788 137.675 22.9353C137.182 24.0725 136.399 24.538 135.163 24.059C134.241 23.7009 133.305 23.3875 132.365 23.0741C132.115 23.0432 131.863 23.0417 131.613 23.0696ZM131.443 34.6558V40.6459C133.233 40.1982 134.017 39.3968 134.129 37.9597C134.227 36.4152 133.368 35.3408 131.443 34.6558ZM129.361 23.2129C127.405 23.5487 126.599 24.2247 126.505 25.4513C126.397 26.8884 127.23 27.7614 129.361 28.3658V23.2129Z" fill="url(#paint6_linear_234_321)"/>
<defs>
<linearGradient id="paint0_linear_234_321" x1="142.204" y1="176.082" x2="78.717" y2="49.3315" gradientUnits="userSpaceOnUse">
<stop stop-color="#9A732B"/>
<stop offset="0.13" stop-color="#F0BD51"/>
<stop offset="0.31" stop-color="#FEEC6E"/>
<stop offset="0.68" stop-color="#DD9C2B"/>
<stop offset="0.85" stop-color="#FCD755"/>
</linearGradient>
<linearGradient id="paint1_linear_234_321" x1="113.941" y1="138.266" x2="58.3714" y2="23.4948" gradientUnits="userSpaceOnUse">
<stop stop-color="#9A732B"/>
<stop offset="0.13" stop-color="#F0BD51"/>
<stop offset="0.31" stop-color="#FEEC6E"/>
<stop offset="0.68" stop-color="#DD9C2B"/>
<stop offset="0.85" stop-color="#FCD755"/>
</linearGradient>
<linearGradient id="paint2_linear_234_321" x1="92.2392" y1="113.121" x2="29.1305" y2="-13.8999" gradientUnits="userSpaceOnUse">
<stop stop-color="#9A732B"/>
<stop offset="0.13" stop-color="#F0BD51"/>
<stop offset="0.31" stop-color="#FEEC6E"/>
<stop offset="0.68" stop-color="#DD9C2B"/>
<stop offset="0.85" stop-color="#FCD755"/>
</linearGradient>
<linearGradient id="paint3_linear_234_321" x1="147.907" y1="59.4978" x2="119.333" y2="1.48496" gradientUnits="userSpaceOnUse">
<stop stop-color="#9A732B"/>
<stop offset="0.13" stop-color="#F0BD51"/>
<stop offset="0.31" stop-color="#FEEC6E"/>
<stop offset="0.68" stop-color="#DD9C2B"/>
<stop offset="0.85" stop-color="#FCD755"/>
</linearGradient>
<linearGradient id="paint4_linear_234_321" x1="43.2722" y1="163.937" x2="15.7875" y2="106.202" gradientUnits="userSpaceOnUse">
<stop stop-color="#9A732B"/>
<stop offset="0.13" stop-color="#F0BD51"/>
<stop offset="0.31" stop-color="#FEEC6E"/>
<stop offset="0.68" stop-color="#DD9C2B"/>
<stop offset="0.85" stop-color="#FCD755"/>
</linearGradient>
<linearGradient id="paint5_linear_234_321" x1="31.2551" y1="154.131" x2="9.30206" y2="128.09" gradientUnits="userSpaceOnUse">
<stop stop-color="#9A732B"/>
<stop offset="0.13" stop-color="#F0BD51"/>
<stop offset="0.31" stop-color="#FEEC6E"/>
<stop offset="0.68" stop-color="#DD9C2B"/>
<stop offset="0.85" stop-color="#FCD755"/>
</linearGradient>
<linearGradient id="paint6_linear_234_321" x1="136.559" y1="48.7318" x2="114.644" y2="22.7386" gradientUnits="userSpaceOnUse">
<stop stop-color="#9A732B"/>
<stop offset="0.13" stop-color="#F0BD51"/>
<stop offset="0.31" stop-color="#FEEC6E"/>
<stop offset="0.68" stop-color="#DD9C2B"/>
<stop offset="0.85" stop-color="#FCD755"/>
</linearGradient>
</defs>
</svg>
