<svg width="181" height="187" viewBox="0 0 181 187" fill="none" xmlns="http://www.w3.org/2000/svg">
<path d="M108.151 132.956V135.203C108.151 148.655 108.151 162.105 108.151 175.55C108.151 182.649 103.805 186.984 96.687 186.989H11.5093C4.40097 186.999 0.0761719 182.659 0.0761719 175.53V12.2727C0.0761719 5.15939 4.41618 0.844727 11.5549 0.844727H96.7327C103.831 0.844727 108.14 5.17967 108.145 12.3285C108.145 26.7783 108.145 41.2281 108.145 55.6779V57.8885H168.677C175.913 57.8885 180.197 62.1879 180.197 69.4534C180.197 86.7763 180.197 104.103 180.197 121.432C180.197 128.662 175.882 132.951 168.627 132.951H108.151V132.956ZM33.7721 7.00491C33.6076 6.94646 33.4378 6.90402 33.2651 6.87815C26.2616 6.87815 19.2581 6.8697 12.2546 6.8528C7.49374 6.8528 6.08425 8.24708 6.08425 12.9369V174.907C6.08425 179.541 7.51909 180.991 12.0923 180.991H96.1395C100.703 180.991 102.148 179.525 102.148 174.907V12.9623C102.148 12.3387 102.173 11.71 102.148 11.0863C101.945 8.74395 100.236 6.91871 97.8785 6.89336C90.1314 6.82238 82.3792 6.89336 74.5155 6.89336C73.7347 9.97092 72.9944 12.9775 72.1934 15.9891C71.6154 18.2048 70.7636 18.8791 68.4871 18.8842C58.9215 18.8842 49.3542 18.8842 39.7852 18.8842C37.5037 18.8842 36.6621 18.2149 36.0841 15.9942C35.2729 12.9572 34.5174 9.97092 33.7721 7.00491ZM108.242 126.953H109.59C129.415 126.953 149.235 126.953 169.053 126.953C172.46 126.953 174.194 125.174 174.199 121.701C174.199 110.942 174.199 100.185 174.199 89.4296C174.181 88.9766 174.141 88.5248 174.077 88.0759H108.262V96.9334C112.171 96.9334 115.974 96.9334 119.771 96.9334C121.84 96.9334 123.107 98.0082 123.128 99.9146C123.195 105.918 123.195 111.922 123.128 117.929C123.128 119.708 121.936 120.809 120.162 120.925C119.148 120.986 118.164 120.925 117.16 120.925H108.237L108.242 126.953ZM174.194 76.0445H108.242V81.8143H174.153C174.153 81.4239 174.214 81.1248 174.219 80.8257C174.199 79.2691 174.194 77.7177 174.194 76.0445ZM174.026 69.7982C174.533 65.9652 172.708 63.8864 168.926 63.8814C149.18 63.8814 129.428 63.8814 109.672 63.8814C109.195 63.8814 108.723 63.9625 108.303 63.998V69.7982H174.026ZM68.2387 6.92885H39.988C40.4951 8.9569 41.0021 10.8785 41.4533 12.7544H66.8038C67.2652 10.8531 67.7317 8.98732 68.2387 6.95421V6.92885ZM108.262 103.002V114.79H117.013V103.028L108.262 103.002Z" fill="url(#paint0_linear_234_332)"/>
<path d="M54.199 57.8985C73.8862 57.8681 90.1461 74.1228 90.1359 93.8202C90.1359 113.746 74.013 129.95 54.2142 129.945C49.4514 129.955 44.7338 129.021 40.3341 127.197C35.9344 125.373 31.9398 122.695 28.5811 119.318C25.2225 115.941 22.5665 111.932 20.7666 107.522C18.9667 103.113 18.0586 98.3902 18.0948 93.6275C18.1049 74.0011 34.3394 57.9238 54.199 57.8985ZM24.0978 93.8607C24.0945 97.8092 24.869 101.72 26.3773 105.369C27.8855 109.018 30.0979 112.334 32.888 115.128C35.6781 117.922 38.9913 120.139 42.6383 121.652C46.2854 123.165 50.1948 123.945 54.1432 123.947C70.5045 123.982 84.0569 110.516 84.1279 94.17C84.1988 77.5857 70.8594 63.9826 54.4576 63.9015C50.493 63.8607 46.5596 64.6048 42.8839 66.091C39.2082 67.5771 35.8629 69.776 33.0408 72.5609C30.2187 75.3457 27.9756 78.6615 26.4408 82.3171C24.9059 85.9727 24.1096 89.896 24.0978 93.8607Z" fill="url(#paint1_linear_234_332)"/>
<path d="M54.1545 171.991C57.9063 171.991 61.6582 171.991 65.4101 171.991C67.7525 171.991 69.1366 173.152 69.1062 175.033C69.0758 176.914 67.7068 177.989 65.329 177.994C57.8252 177.994 50.3215 177.994 42.8177 177.994C40.4652 177.994 39.0912 176.833 39.1216 174.952C39.152 173.071 40.5108 172.001 42.8988 171.996C46.6507 171.981 50.4026 171.991 54.1545 171.991Z" fill="url(#paint2_linear_234_332)"/>
<path d="M151.89 96.9281C156.083 96.9281 160.271 96.9281 164.464 96.9281C166.816 96.9281 168.19 98.074 168.175 99.9702C168.16 101.866 166.781 102.941 164.408 102.946C155.907 102.946 147.403 102.946 138.895 102.946C136.542 102.946 135.169 101.795 135.184 99.9043C135.199 98.0131 136.568 96.9383 138.946 96.9332C143.26 96.918 147.575 96.9281 151.89 96.9281Z" fill="url(#paint3_linear_234_332)"/>
<path d="M151.672 111.941C147.418 111.941 143.164 111.941 138.91 111.941C136.548 111.941 135.174 110.815 135.174 108.944C135.174 107.074 136.543 105.948 138.91 105.943C147.411 105.943 155.916 105.943 164.423 105.943C166.791 105.943 168.165 107.068 168.165 108.939C168.165 110.81 166.786 111.936 164.428 111.941C160.185 111.951 155.931 111.941 151.672 111.941Z" fill="url(#paint4_linear_234_332)"/>
<path d="M159.278 114.948C161.154 114.948 163.035 114.912 164.906 114.948C166.934 114.998 168.237 116.271 168.181 118.03C168.126 119.789 166.853 120.91 164.916 120.93C161.097 120.971 157.282 120.971 153.473 120.93C151.445 120.905 150.147 119.612 150.203 117.848C150.259 116.083 151.521 114.993 153.468 114.948C155.415 114.902 157.337 114.948 159.278 114.948Z" fill="url(#paint5_linear_234_332)"/>
<path d="M50.859 101.978C57.0344 95.7875 63.0273 89.7693 69.0455 83.7561C69.461 83.2913 69.9212 82.8684 70.4195 82.4937C70.9843 82.0973 71.6696 81.9103 72.3575 81.9648C73.0453 82.0193 73.6926 82.3119 74.188 82.7923C74.6833 83.2726 74.9957 83.9106 75.0713 84.5964C75.147 85.2823 74.9811 85.973 74.6024 86.5498C74.2794 87.0083 73.9071 87.43 73.492 87.8071C66.9989 94.3104 60.5007 100.814 53.9974 107.317C51.9136 109.396 50.8083 109.467 48.4812 107.723C44.8307 104.985 41.1244 102.323 37.5804 99.4532C37.1663 99.0679 36.8366 98.6009 36.6123 98.0816C36.388 97.5623 36.274 97.0021 36.2774 96.4365C36.3847 95.9427 36.6134 95.4834 36.9426 95.1001C37.2719 94.7168 37.6915 94.4216 38.1635 94.2411C39.2926 94.0698 40.4448 94.3324 41.3881 94.9763C44.5721 97.1767 47.6142 99.5495 50.859 101.978Z" fill="url(#paint6_linear_234_332)"/>
<defs>
<linearGradient id="paint0_linear_234_332" x1="159.131" y1="197.531" x2="48.5326" y2="-23.4087" gradientUnits="userSpaceOnUse">
<stop stop-color="#9A732B"/>
<stop offset="0.13" stop-color="#F0BD51"/>
<stop offset="0.31" stop-color="#FEEC6E"/>
<stop offset="0.68" stop-color="#DD9C2B"/>
<stop offset="0.85" stop-color="#FCD755"/>
</linearGradient>
<linearGradient id="paint1_linear_234_332" x1="81.7103" y1="134.025" x2="39.752" y2="47.4081" gradientUnits="userSpaceOnUse">
<stop stop-color="#9A732B"/>
<stop offset="0.13" stop-color="#F0BD51"/>
<stop offset="0.31" stop-color="#FEEC6E"/>
<stop offset="0.68" stop-color="#DD9C2B"/>
<stop offset="0.85" stop-color="#FCD755"/>
</linearGradient>
<linearGradient id="paint2_linear_234_332" x1="65.5997" y1="178.334" x2="64.7428" y2="169.502" gradientUnits="userSpaceOnUse">
<stop stop-color="#9A732B"/>
<stop offset="0.13" stop-color="#F0BD51"/>
<stop offset="0.31" stop-color="#FEEC6E"/>
<stop offset="0.68" stop-color="#DD9C2B"/>
<stop offset="0.85" stop-color="#FCD755"/>
</linearGradient>
<linearGradient id="paint3_linear_234_332" x1="164.317" y1="103.287" x2="163.532" y2="94.4186" gradientUnits="userSpaceOnUse">
<stop stop-color="#9A732B"/>
<stop offset="0.13" stop-color="#F0BD51"/>
<stop offset="0.31" stop-color="#FEEC6E"/>
<stop offset="0.68" stop-color="#DD9C2B"/>
<stop offset="0.85" stop-color="#FCD755"/>
</linearGradient>
<linearGradient id="paint4_linear_234_332" x1="164.307" y1="112.285" x2="163.527" y2="103.444" gradientUnits="userSpaceOnUse">
<stop stop-color="#9A732B"/>
<stop offset="0.13" stop-color="#F0BD51"/>
<stop offset="0.31" stop-color="#FEEC6E"/>
<stop offset="0.68" stop-color="#DD9C2B"/>
<stop offset="0.85" stop-color="#FCD755"/>
</linearGradient>
<linearGradient id="paint5_linear_234_332" x1="166.08" y1="121.302" x2="164.662" y2="112.577" gradientUnits="userSpaceOnUse">
<stop stop-color="#9A732B"/>
<stop offset="0.13" stop-color="#F0BD51"/>
<stop offset="0.31" stop-color="#FEEC6E"/>
<stop offset="0.68" stop-color="#DD9C2B"/>
<stop offset="0.85" stop-color="#FCD755"/>
</linearGradient>
<linearGradient id="paint6_linear_234_332" x1="70.55" y1="110.488" x2="58.4196" y2="74.4939" gradientUnits="userSpaceOnUse">
<stop stop-color="#9A732B"/>
<stop offset="0.13" stop-color="#F0BD51"/>
<stop offset="0.31" stop-color="#FEEC6E"/>
<stop offset="0.68" stop-color="#DD9C2B"/>
<stop offset="0.85" stop-color="#FCD755"/>
</linearGradient>
</defs>
</svg>
