<svg width="456" height="114" viewBox="0 0 456 114" fill="none" xmlns="http://www.w3.org/2000/svg">
<g filter="url(#filter0_d_400_1206)">
<path d="M57.8113 24.7793L48.4034 24.7793L24.3623 89.7793L33.7702 89.7793L57.8113 24.7793Z" fill="#FEEC6E"/>
<path d="M76.8445 24.7793L67.4366 24.7793L43.3955 89.7793L52.8034 89.7793L76.8445 24.7793Z" fill="#FEEC6E"/>
<path d="M432 25L88.279 25L64.2379 90L407.959 90L432 25Z" fill="#FEEC6E"/>
<g filter="url(#filter1_d_400_1206)">
<path d="M194.328 68.252C193.824 68.18 193.308 68.048 192.78 67.856C192.252 67.64 191.772 67.376 191.34 67.064C190.932 66.752 190.584 66.392 190.296 65.984C190.032 65.576 189.9 65.132 189.9 64.652C189.9 63.884 190.152 63.26 190.656 62.78C191.16 62.3 191.868 62.06 192.78 62.06L195.372 64.58C196.044 64.652 196.704 64.676 197.352 64.652C198.024 64.604 198.612 64.508 199.116 64.364C199.62 64.196 200.028 63.968 200.34 63.68C200.652 63.392 200.808 63.044 200.808 62.636C200.808 62.108 200.568 61.688 200.088 61.376C199.608 61.064 198.852 60.908 197.82 60.908C197.196 60.908 196.656 60.932 196.2 60.98C195.744 61.028 195.192 61.112 194.544 61.232C194.04 61.016 193.524 60.716 192.996 60.332C192.468 59.948 191.988 59.516 191.556 59.036C191.124 58.532 190.764 57.992 190.476 57.416C190.212 56.816 190.08 56.192 190.08 55.544C190.08 53.888 190.608 52.676 191.664 51.908C192.744 51.116 194.22 50.72 196.092 50.72H199.08V48.632H188.64V44.888H207.36V48.632H204.012V54.536H197.1C196.308 54.536 195.78 54.656 195.516 54.896C195.252 55.112 195.12 55.424 195.12 55.832C195.12 56.168 195.204 56.468 195.372 56.732C195.54 56.996 195.744 57.2 195.984 57.344C196.608 57.224 197.16 57.14 197.64 57.092C198.12 57.044 198.636 57.02 199.188 57.02C200.148 57.02 201.036 57.14 201.852 57.38C202.692 57.62 203.412 57.968 204.012 58.424C204.612 58.856 205.08 59.408 205.416 60.08C205.752 60.728 205.92 61.46 205.92 62.276C205.92 63.212 205.728 64.04 205.344 64.76C204.984 65.48 204.468 66.092 203.796 66.596C203.148 67.076 202.368 67.448 201.456 67.712C200.568 67.976 199.596 68.144 198.54 68.216L202.392 71.708L198.36 74.084L194.328 68.252ZM219.672 66.272L215.208 68.828L208.728 59.036C208.32 58.412 208.02 57.884 207.828 57.452C207.636 56.996 207.54 56.564 207.54 56.156C207.54 55.484 207.816 54.956 208.368 54.572C208.944 54.164 209.724 53.96 210.708 53.96L211.284 54.716C211.5 55.004 211.74 55.244 212.004 55.436C212.292 55.628 212.592 55.724 212.904 55.724C213.528 55.724 214.044 55.472 214.452 54.968C214.884 54.464 215.1 53.696 215.1 52.664C215.1 51.752 214.956 50.948 214.668 50.252C214.404 49.556 214.128 49.016 213.84 48.632H206.64V44.888H232.812V48.632H229.932V68H224.964V59.72C224.676 59.84 224.28 59.948 223.776 60.044C223.296 60.116 222.66 60.152 221.868 60.152C221.004 60.152 220.116 60.044 219.204 59.828C218.316 59.588 217.536 59.276 216.864 58.892C216.024 59.324 215.184 59.54 214.344 59.54H214.2L219.672 66.272ZM221.328 56.156C222.192 56.156 222.912 56.072 223.488 55.904C224.064 55.712 224.556 55.448 224.964 55.112V48.632H218.916C219.156 48.968 219.42 49.52 219.708 50.288C219.996 51.032 220.14 51.992 220.14 53.168C220.14 53.72 220.092 54.224 219.996 54.68C219.9 55.136 219.768 55.568 219.6 55.976C219.864 56.048 220.152 56.096 220.464 56.12C220.8 56.144 221.088 56.156 221.328 56.156ZM240.337 48.632V55.652H245.629V48.632H240.337ZM240.337 62.276C240.169 62.444 239.881 62.612 239.473 62.78C239.065 62.948 238.537 63.032 237.889 63.032C237.265 63.032 236.665 62.924 236.089 62.708C235.537 62.492 235.045 62.192 234.613 61.808C234.181 61.4 233.833 60.908 233.569 60.332C233.305 59.756 233.173 59.096 233.173 58.352C233.173 57.872 233.245 57.464 233.389 57.128C233.533 56.792 233.701 56.516 233.893 56.3C234.109 56.084 234.337 55.928 234.577 55.832C234.841 55.712 235.081 55.652 235.297 55.652H235.405V48.632H232.093V44.888H253.477V48.632H250.597V68H245.629V59.432H240.337V62.276ZM249.633 40.136C249.633 39.848 249.693 39.572 249.813 39.308C249.933 39.02 250.101 38.768 250.317 38.552C250.533 38.336 250.785 38.168 251.073 38.048C251.361 37.904 251.673 37.832 252.009 37.832C252.729 37.832 253.293 38.084 253.701 38.588C254.133 39.068 254.349 39.584 254.349 40.136C254.349 40.784 254.133 41.336 253.701 41.792C253.269 42.248 252.705 42.476 252.009 42.476C251.313 42.476 250.749 42.248 250.317 41.792C249.861 41.336 249.633 40.784 249.633 40.136ZM235.629 36.212C236.085 35.972 236.649 35.78 237.321 35.636C237.969 35.492 238.665 35.42 239.409 35.42C241.329 35.42 242.949 35.924 244.269 36.932C245.589 37.916 246.681 39.224 247.545 40.856L250.281 46.04H246.645L245.205 43.844C244.365 42.548 243.561 41.588 242.793 40.964C242.001 40.34 241.041 40.028 239.913 40.028C239.433 40.028 238.953 40.088 238.473 40.208C237.993 40.304 237.561 40.424 237.177 40.568L235.629 36.212ZM275.712 55.832C276.096 56.144 276.456 56.624 276.792 57.272C277.152 57.92 277.332 58.748 277.332 59.756C277.332 60.644 277.14 61.46 276.756 62.204C276.396 62.948 275.88 63.596 275.208 64.148C274.56 64.676 273.768 65.096 272.832 65.408C271.92 65.696 270.912 65.84 269.808 65.84C267.624 65.84 265.824 65.3 264.408 64.22C262.992 63.14 262.008 61.76 261.456 60.08L264.876 58.208C265.908 60.68 267.36 61.916 269.232 61.916C270.144 61.916 270.876 61.664 271.428 61.16C272.004 60.632 272.292 59.924 272.292 59.036C272.292 58.028 271.932 57.248 271.212 56.696C270.516 56.12 269.532 55.832 268.26 55.832H266.928V52.052H279.816V48.632H261.132V44.888H287.664V48.632H284.784V68H279.816V55.832H275.712ZM276.965 68.792C277.205 68.552 277.505 68.324 277.865 68.108C278.225 67.916 278.621 67.748 279.053 67.604C279.461 67.436 279.905 67.316 280.385 67.244C280.841 67.148 281.285 67.1 281.717 67.1C282.725 67.1 283.625 67.244 284.417 67.532C285.185 67.82 285.845 68.204 286.397 68.684C286.925 69.164 287.321 69.716 287.585 70.34C287.873 70.964 288.017 71.624 288.017 72.32C288.017 73.16 287.837 73.928 287.477 74.624C287.141 75.32 286.661 75.92 286.037 76.424C285.413 76.928 284.657 77.324 283.769 77.612C282.881 77.9 281.897 78.044 280.817 78.044C278.873 78.044 277.013 77.612 275.237 76.748C273.437 75.884 271.925 74.66 270.701 73.076L273.545 70.448C274.721 71.696 275.885 72.632 277.037 73.256C278.165 73.904 279.341 74.228 280.565 74.228C281.381 74.228 281.993 74.048 282.401 73.688C282.785 73.328 282.977 72.908 282.977 72.428C282.977 72.02 282.809 71.66 282.473 71.348C282.137 71.036 281.657 70.88 281.033 70.88C280.649 70.88 280.253 70.964 279.845 71.132C279.437 71.324 279.113 71.516 278.873 71.708L276.965 68.792ZM294.173 73.184C294.173 72.512 294.413 71.9 294.893 71.348C295.373 70.796 296.021 70.52 296.837 70.52C297.677 70.52 298.325 70.796 298.781 71.348C299.261 71.9 299.501 72.512 299.501 73.184C299.501 73.952 299.261 74.588 298.781 75.092C298.301 75.62 297.653 75.884 296.837 75.884C296.021 75.884 295.373 75.62 294.893 75.092C294.413 74.588 294.173 73.952 294.173 73.184ZM292.877 61.448C292.469 61.256 292.001 60.992 291.473 60.656C290.969 60.296 290.477 59.876 289.997 59.396C289.541 58.892 289.157 58.34 288.845 57.74C288.533 57.116 288.377 56.444 288.377 55.724C288.377 54.26 288.857 53.084 289.817 52.196C290.777 51.308 292.193 50.864 294.065 50.864H298.205V48.632H286.937V44.888H306.629V48.632H303.173V54.68H294.965C294.485 54.68 294.101 54.776 293.813 54.968C293.549 55.136 293.417 55.46 293.417 55.94C293.417 56.228 293.501 56.504 293.669 56.768C293.837 57.032 294.041 57.236 294.281 57.38C294.929 57.26 295.517 57.176 296.045 57.128C296.597 57.08 297.089 57.056 297.521 57.056C300.041 57.056 301.949 57.572 303.245 58.604C304.541 59.636 305.189 61.004 305.189 62.708C305.189 64.412 304.505 65.792 303.137 66.848C301.769 67.88 299.681 68.396 296.873 68.396C295.793 68.396 294.773 68.3 293.813 68.108C292.853 67.94 291.965 67.712 291.149 67.424C290.357 67.136 289.649 66.812 289.025 66.452C288.401 66.092 287.873 65.732 287.441 65.372L289.457 61.988C290.489 62.78 291.605 63.392 292.805 63.824C294.029 64.256 295.313 64.472 296.657 64.472C297.905 64.472 298.793 64.292 299.321 63.932C299.873 63.548 300.149 63.104 300.149 62.6C300.149 62.096 299.873 61.7 299.321 61.412C298.769 61.1 298.025 60.944 297.089 60.944C296.273 60.944 295.541 60.992 294.893 61.088C294.245 61.16 293.573 61.28 292.877 61.448ZM302.895 40.136C302.895 39.848 302.955 39.572 303.075 39.308C303.195 39.02 303.363 38.768 303.579 38.552C303.795 38.336 304.047 38.168 304.335 38.048C304.623 37.904 304.935 37.832 305.271 37.832C305.991 37.832 306.555 38.084 306.963 38.588C307.395 39.068 307.611 39.584 307.611 40.136C307.611 40.784 307.395 41.336 306.963 41.792C306.531 42.248 305.967 42.476 305.271 42.476C304.575 42.476 304.011 42.248 303.579 41.792C303.123 41.336 302.895 40.784 302.895 40.136ZM288.891 36.212C289.347 35.972 289.911 35.78 290.583 35.636C291.231 35.492 291.927 35.42 292.671 35.42C294.591 35.42 296.211 35.924 297.531 36.932C298.851 37.916 299.943 39.224 300.807 40.856L303.543 46.04H299.907L298.467 43.844C297.627 42.548 296.823 41.588 296.055 40.964C295.263 40.34 294.303 40.028 293.175 40.028C292.695 40.028 292.215 40.088 291.735 40.208C291.255 40.304 290.823 40.424 290.439 40.568L288.891 36.212Z" fill="black"/>
</g>
</g>
<defs>
<filter id="filter0_d_400_1206" x="0.362305" y="0.779297" width="455.638" height="113.221" filterUnits="userSpaceOnUse" color-interpolation-filters="sRGB">
<feFlood flood-opacity="0" result="BackgroundImageFix"/>
<feColorMatrix in="SourceAlpha" type="matrix" values="0 0 0 0 0 0 0 0 0 0 0 0 0 0 0 0 0 0 127 0" result="hardAlpha"/>
<feOffset/>
<feGaussianBlur stdDeviation="12"/>
<feComposite in2="hardAlpha" operator="out"/>
<feColorMatrix type="matrix" values="0 0 0 0 0.941176 0 0 0 0 0.741176 0 0 0 0 0.317647 0 0 0 1 0"/>
<feBlend mode="normal" in2="BackgroundImageFix" result="effect1_dropShadow_400_1206"/>
<feBlend mode="normal" in="SourceGraphic" in2="effect1_dropShadow_400_1206" result="shape"/>
</filter>
<filter id="filter1_d_400_1206" x="164.64" y="11.42" width="166.971" height="90.624" filterUnits="userSpaceOnUse" color-interpolation-filters="sRGB">
<feFlood flood-opacity="0" result="BackgroundImageFix"/>
<feColorMatrix in="SourceAlpha" type="matrix" values="0 0 0 0 0 0 0 0 0 0 0 0 0 0 0 0 0 0 127 0" result="hardAlpha"/>
<feOffset/>
<feGaussianBlur stdDeviation="12"/>
<feComposite in2="hardAlpha" operator="out"/>
<feColorMatrix type="matrix" values="0 0 0 0 1 0 0 0 0 1 0 0 0 0 1 0 0 0 0.6 0"/>
<feBlend mode="normal" in2="BackgroundImageFix" result="effect1_dropShadow_400_1206"/>
<feBlend mode="normal" in="SourceGraphic" in2="effect1_dropShadow_400_1206" result="shape"/>
</filter>
</defs>
</svg>
