<svg width="456" height="114" viewBox="0 0 456 114" fill="none" xmlns="http://www.w3.org/2000/svg">
<g filter="url(#filter0_d_234_164)">
<path d="M57.8125 24.7793L48.4046 24.7793L24.3635 89.7793L33.7714 89.7793L57.8125 24.7793Z" fill="#FEEC6E"/>
<path d="M76.8457 24.7793L67.4378 24.7793L43.3967 89.7793L52.8046 89.7793L76.8457 24.7793Z" fill="#FEEC6E"/>
<path d="M431.707 24.7793L87.9861 24.7793L63.9449 89.7793L407.666 89.7793L431.707 24.7793Z" fill="#FEEC6E"/>
<g filter="url(#filter1_d_234_164)">
<path d="M195.303 44.0975H202.309V62.0463C202.301 63.7509 201.87 65.2509 201.018 66.5463C200.174 67.8333 199.007 68.839 197.515 69.5634C196.032 70.2793 194.323 70.6373 192.389 70.6373C190.71 70.6373 189.176 70.3475 187.786 69.7679C186.397 69.1799 185.289 68.2594 184.463 67.0066C183.636 65.7452 183.227 64.1088 183.235 62.0975H190.343C190.369 62.7537 190.48 63.3077 190.676 63.7594C190.88 64.2111 191.161 64.552 191.519 64.7821C191.886 65.0037 192.329 65.1145 192.849 65.1145C193.377 65.1145 193.82 64.9995 194.178 64.7694C194.545 64.5392 194.822 64.1983 195.009 63.7466C195.197 63.2864 195.295 62.7196 195.303 62.0463V44.0975ZM231.041 57.1884C231.041 60.1032 230.475 62.562 229.341 64.5648C228.208 66.5591 226.678 68.0719 224.752 69.1032C222.825 70.1259 220.678 70.6373 218.308 70.6373C215.922 70.6373 213.766 70.1216 211.84 69.0904C209.922 68.0506 208.396 66.5336 207.263 64.5392C206.138 62.5364 205.575 60.0861 205.575 57.1884C205.575 54.2736 206.138 51.8191 207.263 49.8248C208.396 47.8219 209.922 46.3091 211.84 45.2864C213.766 44.2551 215.922 43.7395 218.308 43.7395C220.678 43.7395 222.825 44.2551 224.752 45.2864C226.678 46.3091 228.208 47.8219 229.341 49.8248C230.475 51.8191 231.041 54.2736 231.041 57.1884ZM223.729 57.1884C223.729 55.6202 223.52 54.2992 223.102 53.2253C222.693 52.1429 222.084 51.3248 221.274 50.7708C220.473 50.2083 219.485 49.927 218.308 49.927C217.132 49.927 216.139 50.2083 215.33 50.7708C214.529 51.3248 213.919 52.1429 213.502 53.2253C213.093 54.2992 212.888 55.6202 212.888 57.1884C212.888 58.7566 213.093 60.0819 213.502 61.1642C213.919 62.2381 214.529 63.0563 215.33 63.6188C216.139 64.1728 217.132 64.4498 218.308 64.4498C219.485 64.4498 220.473 64.1728 221.274 63.6188C222.084 63.0563 222.693 62.2381 223.102 61.1642C223.52 60.0819 223.729 58.7566 223.729 57.1884ZM241.438 44.0975V70.2793H234.33V44.0975H241.438ZM267.46 44.0975V70.2793H261.528L252.068 56.5236H251.915V70.2793H244.807V44.0975H250.841L260.148 57.802H260.352V44.0975H267.46ZM285.102 44.0975V70.2793H277.994V44.0975H285.102ZM311.124 44.0975V70.2793H305.192L295.732 56.5236H295.579V70.2793H288.471V44.0975H294.505L303.812 57.802H304.016V44.0975H311.124Z" fill="black"/>
</g>
</g>
<defs>
<filter id="filter0_d_234_164" x="0.363281" y="0.779297" width="455.344" height="113" filterUnits="userSpaceOnUse" color-interpolation-filters="sRGB">
<feFlood flood-opacity="0" result="BackgroundImageFix"/>
<feColorMatrix in="SourceAlpha" type="matrix" values="0 0 0 0 0 0 0 0 0 0 0 0 0 0 0 0 0 0 127 0" result="hardAlpha"/>
<feOffset/>
<feGaussianBlur stdDeviation="12"/>
<feComposite in2="hardAlpha" operator="out"/>
<feColorMatrix type="matrix" values="0 0 0 0 0.941176 0 0 0 0 0.741176 0 0 0 0 0.317647 0 0 0 1 0"/>
<feBlend mode="normal" in2="BackgroundImageFix" result="effect1_dropShadow_234_164"/>
<feBlend mode="normal" in="SourceGraphic" in2="effect1_dropShadow_234_164" result="shape"/>
</filter>
<filter id="filter1_d_234_164" x="159.223" y="19.7395" width="175.902" height="74.8977" filterUnits="userSpaceOnUse" color-interpolation-filters="sRGB">
<feFlood flood-opacity="0" result="BackgroundImageFix"/>
<feColorMatrix in="SourceAlpha" type="matrix" values="0 0 0 0 0 0 0 0 0 0 0 0 0 0 0 0 0 0 127 0" result="hardAlpha"/>
<feOffset/>
<feGaussianBlur stdDeviation="12"/>
<feComposite in2="hardAlpha" operator="out"/>
<feColorMatrix type="matrix" values="0 0 0 0 1 0 0 0 0 1 0 0 0 0 1 0 0 0 0.6 0"/>
<feBlend mode="normal" in2="BackgroundImageFix" result="effect1_dropShadow_234_164"/>
<feBlend mode="normal" in="SourceGraphic" in2="effect1_dropShadow_234_164" result="shape"/>
</filter>
</defs>
</svg>
