<svg width="137" height="66" viewBox="0 0 137 66" fill="none" xmlns="http://www.w3.org/2000/svg">
<path opacity="0.3" d="M2.00391 20.7003L5.35182 16.9999L9.40484 18.9382L13.4577 16.9999L19.0965 13.2994L25.0878 18.9382L28.2596 26.3392L33.1936 28.1013L39.5372 26.3392L44.295 23.3436H48.3479L52.0483 28.1013C53.734 27.6577 56.5518 26.8791 57.4055 26.5245C57.3381 26.4059 57.3651 26.3392 57.5109 26.3392C57.7525 26.3392 57.6822 26.4096 57.4055 26.5245C57.7942 27.2086 61.3237 29.6192 63.326 30.9207L67.7313 26.3392L75.4846 20.7003H82.0045L88.8768 23.3436L97.6874 18.9382L100.859 13.2994L104.736 11.0087L109.141 13.2994L116.19 9.42271L120.771 11.0087L125.353 8.18924L130.639 6.4271L135.045 2.02209V64.9235H2.00391V20.7003Z" fill="url(#paint0_linear_233_109)"/>
<path d="M1.92188 22.3166L5.26979 18.6161L9.32281 20.5544L13.3757 18.6161L19.0145 14.9156L25.0057 20.5544L28.1776 27.9554L33.1115 29.7175L39.4552 27.9554L44.2129 24.9598H48.2658L51.9663 29.7175C54.1983 29.1301 58.4157 27.9554 57.4289 27.9554C56.4421 27.9554 60.8944 31.0097 63.2439 32.5369L67.6492 27.9554L75.4026 22.3166H81.9224L88.7947 24.9598L97.6054 20.5544L100.777 14.9156L104.654 12.6249L109.059 14.9156L116.108 11.0389L120.689 12.6249L125.271 9.80545L130.557 8.04332L134.962 3.63831" stroke="#DD9C2B" stroke-width="3"/>
<rect x="0.726562" y="0.541382" width="134.318" height="64.5192" fill="url(#paint1_linear_233_109)"/>
<defs>
<linearGradient id="paint0_linear_233_109" x1="119.485" y1="68.4859" x2="79.5973" y2="-105.754" gradientUnits="userSpaceOnUse">
<stop stop-color="#9A732B"/>
<stop offset="0.13" stop-color="#F0BD51"/>
<stop offset="0.31" stop-color="#FEEC6E"/>
<stop offset="0.68" stop-color="#DD9C2B"/>
<stop offset="0.85" stop-color="#FCD755"/>
</linearGradient>
<linearGradient id="paint1_linear_233_109" x1="0.726562" y1="37.8811" x2="135.045" y2="37.8811" gradientUnits="userSpaceOnUse">
<stop stop-color="#030303"/>
<stop offset="0.489583" stop-color="#030303" stop-opacity="0"/>
</linearGradient>
</defs>
</svg>
