<svg width="213" height="49" viewBox="0 0 213 49" fill="none" xmlns="http://www.w3.org/2000/svg">
<path d="M115.434 0.175781L18.0764 0.175783L0.322937 48.1758L97.6802 48.1758L115.434 0.175781Z" fill="#FEEC6E"/>
<path d="M194.684 47.6758L212.067 0.675781L115.776 0.675783L98.3925 47.6758L194.684 47.6758Z" stroke="#FEEC6E"/>
<path d="M33.5039 32.6758V15.2212H46.0835V19.0394H38.2425V22.0394H45.4357V25.8576H38.2425V28.8576H46.0494V32.6758H33.5039ZM63.5359 15.2212V32.6758H59.5813L53.2745 23.5053H53.1722V32.6758H48.4336V15.2212H52.4563L58.6609 24.3576H58.7972V15.2212H63.5359ZM77.1126 20.9826C77.0387 20.6815 76.9222 20.4173 76.7631 20.19C76.604 19.957 76.4052 19.761 76.1665 19.6019C75.9336 19.4371 75.6609 19.315 75.3484 19.2354C75.0415 19.1502 74.7035 19.1076 74.3342 19.1076C73.5387 19.1076 72.8597 19.2979 72.2972 19.6786C71.7404 20.0593 71.3143 20.6076 71.0188 21.3235C70.729 22.0394 70.5842 22.9031 70.5842 23.9144C70.5842 24.9371 70.7234 25.8121 71.0018 26.5394C71.2802 27.2667 71.695 27.8235 72.2461 28.2099C72.7972 28.5962 73.4819 28.7894 74.3001 28.7894C75.0217 28.7894 75.6211 28.6843 76.0984 28.4741C76.5813 28.2638 76.9421 27.9656 77.1808 27.5792C77.4194 27.1928 77.5387 26.7383 77.5387 26.2156L78.3569 26.3008H74.3683V22.9258H82.1069V25.3462C82.1069 26.9371 81.7688 28.2979 81.0927 29.4286C80.4222 30.5536 79.4961 31.4173 78.3143 32.0195C77.1381 32.6161 75.7887 32.9144 74.266 32.9144C72.5671 32.9144 71.0756 32.5536 69.7915 31.832C68.5075 31.1104 67.5046 30.082 66.783 28.7468C66.0671 27.4116 65.7092 25.8235 65.7092 23.9826C65.7092 22.5394 65.9279 21.261 66.3654 20.1474C66.8086 19.0337 67.4222 18.0934 68.2063 17.3263C68.9904 16.5536 69.8967 15.9712 70.9251 15.5792C71.9535 15.1815 73.0558 14.9826 74.2319 14.9826C75.266 14.9826 76.2262 15.1303 77.1126 15.4258C78.0046 15.7156 78.7915 16.1303 79.4734 16.6701C80.1609 17.2042 80.7148 17.8377 81.1353 18.5707C81.5558 19.3036 81.8114 20.1076 81.9023 20.9826H77.1126Z" fill="#030303"/>
<path d="M134.855 32.6758V15.2212H139.594V22.0394H145.867V15.2212H150.605V32.6758H145.867V25.8576H139.594V32.6758H134.855ZM157.594 15.2212V32.6758H152.855V15.2212H157.594ZM174.942 15.2212V32.6758H170.988L164.681 23.5053H164.578V32.6758H159.84V15.2212H163.863L170.067 24.3576H170.203V15.2212H174.942Z" fill="white"/>
</svg>
