<svg width="28" height="26" viewBox="0 0 28 26" fill="none" xmlns="http://www.w3.org/2000/svg">
<mask id="path-1-inside-1_236_140" fill="white">
<path fill-rule="evenodd" clip-rule="evenodd" d="M13.7826 3.06081C10.7302 0.00837743 5.7812 0.00837648 2.72877 3.06081C-0.323657 6.11324 -0.323651 11.0622 2.72878 14.1146L11.2444 22.6302C11.3395 22.7321 11.4366 22.8327 11.5359 22.932L14.1237 25.5198L14.1288 25.5147L14.1339 25.5198L16.7217 22.9319C16.8206 22.8331 16.9174 22.7329 17.0121 22.6314L25.5289 14.1147C28.5813 11.0622 28.5813 6.11328 25.5289 3.06085C22.4764 0.00841749 17.5275 0.00841844 14.475 3.06085L14.1288 3.40705L13.7826 3.06081Z"/>
</mask>
<path d="M2.72877 3.06081L5.5572 5.88923L2.72877 3.06081ZM13.7826 3.06081L16.611 0.232382L16.611 0.23238L13.7826 3.06081ZM2.72878 14.1146L5.55721 11.2862H5.55721L2.72878 14.1146ZM11.2444 22.6302L14.1685 19.9008L14.1215 19.8505L14.0728 19.8018L11.2444 22.6302ZM11.5359 22.932L14.3644 20.1036L14.3643 20.1035L11.5359 22.932ZM14.1237 25.5198L11.2953 28.3482L14.1237 31.1767L16.9522 28.3482L14.1237 25.5198ZM14.1288 25.5147L16.9573 22.6863L14.1288 19.8578L11.3004 22.6863L14.1288 25.5147ZM14.1339 25.5198L11.3055 28.3482L14.1339 31.1766L16.9623 28.3482L14.1339 25.5198ZM16.7217 22.9319L13.8933 20.1035L16.7217 22.9319ZM17.0121 22.6314L14.1837 19.803L14.1352 19.8515L14.0884 19.9016L17.0121 22.6314ZM25.5289 14.1147L22.7004 11.2862V11.2862L25.5289 14.1147ZM25.5289 3.06085L22.7004 5.88927V5.88928L25.5289 3.06085ZM14.475 3.06085L17.3035 5.88928L17.3035 5.88928L14.475 3.06085ZM14.1288 3.40705L11.3004 6.23547L14.1288 9.0639L16.9573 6.23548L14.1288 3.40705ZM5.5572 5.88923C7.04753 4.3989 9.46384 4.3989 10.9542 5.88923L16.611 0.23238C11.9965 -4.38215 4.51487 -4.38215 -0.0996548 0.232379L5.5572 5.88923ZM5.55721 11.2862C4.06687 9.79587 4.06687 7.37956 5.5572 5.88923L-0.0996547 0.232379C-4.71419 4.84691 -4.71417 12.3285 -0.0996486 16.9431L5.55721 11.2862ZM14.0728 19.8018L5.55721 11.2862L-0.0996488 16.9431L8.41595 25.4587L14.0728 19.8018ZM8.32027 25.3596C8.44666 25.495 8.57575 25.6287 8.70752 25.7604L14.3643 20.1035C14.2975 20.0367 14.2322 19.9691 14.1685 19.9008L8.32027 25.3596ZM8.7075 25.7604L11.2953 28.3482L16.9522 22.6914L14.3644 20.1036L8.7075 25.7604ZM16.9522 28.3482L16.9573 28.3431L11.3004 22.6863L11.2953 22.6914L16.9522 28.3482ZM16.9623 22.6913L16.9573 22.6863L11.3004 28.3431L11.3055 28.3482L16.9623 22.6913ZM13.8933 20.1035L11.3055 22.6913L16.9623 28.3482L19.5501 25.7604L13.8933 20.1035ZM14.0884 19.9016C14.0249 19.9696 13.9598 20.037 13.8933 20.1035L19.5501 25.7604C19.6814 25.6291 19.8099 25.4961 19.9359 25.3612L14.0884 19.9016ZM19.8405 25.4598L28.3573 16.9431L22.7004 11.2862L14.1837 19.803L19.8405 25.4598ZM28.3573 16.9431C32.9718 12.3286 32.9718 4.84695 28.3573 0.232419L22.7004 5.88928C24.1908 7.3796 24.1908 9.79591 22.7004 11.2862L28.3573 16.9431ZM28.3573 0.23242C23.7428 -4.38211 16.2611 -4.38211 11.6466 0.232421L17.3035 5.88928C18.7938 4.39894 21.2101 4.39894 22.7004 5.88927L28.3573 0.23242ZM11.6466 0.232419L11.3004 0.578621L16.9573 6.23548L17.3035 5.88928L11.6466 0.232419ZM10.9542 5.88923L11.3004 6.23547L16.9573 0.578624L16.611 0.232382L10.9542 5.88923Z" fill="white" mask="url(#path-1-inside-1_236_140)"/>
</svg>
