<svg width="239" height="103" viewBox="0 0 239 103" fill="none" xmlns="http://www.w3.org/2000/svg">
<path opacity="0.68" d="M51.5214 93.1404C74.6537 93.1404 93.4061 74.388 93.4061 51.2558C93.4061 28.1235 74.6537 9.37109 51.5214 9.37109C28.3891 9.37109 9.63672 28.1235 9.63672 51.2558C9.63672 74.388 28.3891 93.1404 51.5214 93.1404Z" fill="url(#paint0_linear_234_192)"/>
<path d="M71.9011 78.7058C66.7088 82.3331 60.6675 84.5577 54.3627 85.1641C48.058 85.7705 41.7035 84.738 35.915 82.1668C30.1265 79.5956 25.1003 75.5728 21.3234 70.4882C17.5465 65.4037 15.147 59.4297 14.3574 53.1453C14.4399 61.6888 17.5702 69.9221 23.1845 76.3623C28.7989 82.8025 36.5284 87.0264 44.9808 88.2732C53.4333 89.52 62.0531 87.7078 69.2879 83.1629C76.5227 78.618 81.8969 71.6392 84.4426 63.4834C81.7357 69.6108 77.3973 74.8766 71.9011 78.7058Z" fill="url(#paint1_linear_234_192)"/>
<path d="M53.736 80.8136C34.042 80.8136 18.076 64.353 18.076 44.0553C18.0636 37.9675 19.5327 31.9682 22.3566 26.575C18.406 32.5643 16.3085 39.5852 16.3263 46.7601C16.3263 66.5632 31.9 82.6179 51.1165 82.6179C58.1332 82.6227 64.9785 80.4502 70.7081 76.4C65.5228 79.3023 59.6782 80.8221 53.736 80.8136Z" fill="url(#paint2_linear_234_192)"/>
<path d="M35.209 69.8378C31.0544 66.1062 27.9878 61.3192 26.3347 55.9852C24.6816 50.6511 24.5036 44.9689 25.8197 39.5418C27.1359 34.1148 29.8969 29.1453 33.8098 25.161C37.7227 21.1768 42.6414 18.3263 48.0438 16.9124C40.9774 17.9421 34.5055 21.4454 29.7795 26.7989C25.0535 32.1524 22.3801 39.0089 22.2348 46.1485C22.0895 53.288 24.4818 60.2476 28.986 65.789C33.4902 71.3303 39.8143 75.094 46.833 76.4104C42.5238 75.097 38.5557 72.8533 35.209 69.8378Z" fill="url(#paint3_linear_234_192)"/>
<path d="M30.8829 43.1073C31.6502 38.5751 33.4935 34.2931 36.258 30.6206C39.0225 26.948 42.6276 23.9922 46.7708 22.0012C50.9139 20.0102 55.4742 19.042 60.0689 19.1779C64.6636 19.3138 69.1587 20.5499 73.1769 22.7823C67.7682 18.9266 61.1659 17.1174 54.5472 17.6775C47.9286 18.2375 41.7241 21.1303 37.0402 25.84C32.3563 30.5497 29.4976 36.77 28.974 43.3916C28.4503 50.0132 30.2958 56.6056 34.1812 61.993C30.9409 56.265 29.7759 49.5945 30.8829 43.1073Z" fill="url(#paint4_linear_234_192)"/>
<path d="M51.2433 58.9981C51.2433 58.9981 51.8231 53.5033 59.5588 48.9022C59.5588 48.9022 58.9108 44.1748 53.7298 37.7147C48.5488 31.2547 48.924 28.5942 48.924 28.5942C48.924 28.5942 35.7207 46.0848 42.0375 53.7523C43.2552 55.2258 47.9178 57.3337 48.5863 58.2478C48.9581 58.7594 47.6279 55.9045 46.9969 52.3982C46.5599 49.6662 46.5772 46.8807 47.048 44.1543C47.048 44.1543 47.6244 56.9619 51.2433 58.9981Z" fill="url(#paint5_linear_234_192)"/>
<path d="M53.5624 74.1898C65.3535 70.2231 75.4836 55.7237 75.4836 55.7237C69.6375 69.077 53.8693 76.1886 53.8693 76.1886C91.0198 78.6 84.0004 37.6465 84.0004 37.6465C84.0004 37.6465 78.8944 44.4238 67.1783 47.647C55.4622 50.8702 50.7587 58.4933 53.1735 62.9035C55.5884 67.3137 53.5624 74.1898 53.5624 74.1898Z" fill="url(#paint6_linear_234_192)"/>
<path d="M53.5624 74.1898C65.3535 70.2231 75.4836 55.7237 75.4836 55.7237C69.6375 69.077 53.8693 76.1886 53.8693 76.1886C91.0198 78.6 84.0004 37.6465 84.0004 37.6465C84.0004 37.6465 78.8944 44.4238 67.1783 47.647C55.4622 50.8702 50.7587 58.4933 53.1735 62.9035C55.5884 67.3137 53.5624 74.1898 53.5624 74.1898Z" fill="url(#paint7_linear_234_192)"/>
<path d="M52.6308 74.2717C54.0633 68.7223 52.8593 65.9152 51.9486 64.1109C50.0352 60.284 44.3118 57.3166 41.5764 55.543C40.4763 54.8587 39.4214 54.1045 38.418 53.285C35.8837 51.1874 35.263 50.5803 35.0072 50.2153C34.6661 49.7378 32.7492 61.471 38.8648 69.0634C38.8648 69.0634 43.7218 75.1039 50.1853 75.4757H50.2194C50.3217 75.3256 46.5323 72.232 43.8275 68.6234C41.4979 65.523 39.5742 61.8564 39.4446 61.4061C39.315 60.9559 46.8017 73.7055 52.6308 74.2717Z" fill="url(#paint8_linear_234_192)"/>
<path d="M51.2836 100.658V98.7136C40.4112 98.7144 29.8749 94.9453 21.47 88.0486C13.065 81.1518 7.31145 71.5541 5.18961 60.8908C3.06778 50.2275 4.70895 39.1584 9.83351 29.5695C14.9581 19.9805 23.2489 12.4652 33.2934 8.30384C43.3379 4.14252 54.5145 3.59274 64.919 6.74819C75.3234 9.90363 84.3118 16.5691 90.3527 25.6087C96.3936 34.6484 99.1132 45.5031 98.0481 56.3232C96.983 67.1432 92.1992 77.2593 84.5116 84.9476C80.154 89.3194 74.9749 92.7863 69.2723 95.1488C63.5697 97.5113 57.4562 98.7228 51.2836 98.7136V102.609C63.0571 102.609 74.4664 98.5265 83.5674 91.0576C92.6685 83.5886 98.8982 73.195 101.195 61.6477C103.492 50.1005 101.714 38.114 96.1642 27.7307C90.6142 17.3474 81.6357 9.20968 70.7584 4.70412C59.8812 0.198559 47.7782 -0.396069 36.5116 3.02155C25.2451 6.43918 15.5121 13.6576 8.97108 23.4469C2.43005 33.2361 -0.514325 44.9906 0.63964 56.7074C1.7936 68.4242 6.97451 79.3784 15.2996 87.7035C20.0205 92.4352 25.6296 96.1878 31.8048 98.7456C37.9799 101.304 44.5996 102.616 51.2836 102.609V100.658Z" fill="url(#paint9_linear_234_192)"/>
<path d="M51.2836 100.658V98.7136C40.4112 98.7144 29.8749 94.9453 21.47 88.0486C13.065 81.1518 7.31145 71.5541 5.18961 60.8908C3.06778 50.2275 4.70895 39.1584 9.83351 29.5695C14.9581 19.9805 23.2489 12.4652 33.2934 8.30384C43.3379 4.14252 54.5145 3.59274 64.919 6.74819C75.3234 9.90363 84.3118 16.5691 90.3527 25.6087C96.3936 34.6484 99.1132 45.5031 98.0481 56.3232C96.983 67.1432 92.1992 77.2593 84.5116 84.9476C80.154 89.3194 74.9749 92.7863 69.2723 95.1488C63.5697 97.5113 57.4562 98.7228 51.2836 98.7136V102.609C63.0571 102.609 74.4664 98.5265 83.5674 91.0576C92.6685 83.5886 98.8982 73.195 101.195 61.6477C103.492 50.1005 101.714 38.114 96.1642 27.7307C90.6142 17.3474 81.6357 9.20968 70.7584 4.70412C59.8812 0.198559 47.7782 -0.396069 36.5116 3.02155C25.2451 6.43918 15.5121 13.6576 8.97108 23.4469C2.43005 33.2361 -0.514325 44.9906 0.63964 56.7074C1.7936 68.4242 6.97451 79.3784 15.2996 87.7035C20.0205 92.4352 25.6296 96.1878 31.8048 98.7456C37.9799 101.304 44.5996 102.616 51.2836 102.609V100.658Z" fill="url(#paint10_linear_234_192)"/>
<path d="M51.0823 4.57882V5.41447C61.7485 5.41531 72.0845 9.11445 80.3291 15.8816C88.5737 22.6488 94.2169 32.0652 96.2971 42.5266C98.3774 52.988 96.766 63.8471 91.7375 73.2536C86.709 82.6601 78.5745 90.0321 68.72 94.1134C58.8656 98.1948 47.9008 98.7331 37.694 95.6365C27.4871 92.5399 18.6697 86.0001 12.7441 77.1313C6.81847 68.2626 4.15123 57.6136 5.19685 46.9987C6.24246 36.3839 10.9362 26.46 18.4784 18.9178C22.7555 14.6303 27.8377 11.2301 33.4329 8.91275C39.0281 6.5954 45.0262 5.40654 51.0823 5.41447V3.74658C41.6334 3.74726 32.3969 6.54979 24.5408 11.7998C16.6846 17.0498 10.5617 24.5115 6.94626 33.2413C3.33079 41.9712 2.38517 51.577 4.22897 60.8443C6.07277 70.1115 10.6232 78.6239 17.3048 85.305C23.9864 91.9862 32.4991 96.536 41.7665 98.3791C51.0339 100.222 60.6397 99.2759 69.3692 95.6599C78.0988 92.0438 85.5601 85.9203 90.8095 78.0638C96.059 70.2073 98.8608 60.9706 98.8608 51.5217C98.8608 45.2475 97.625 39.0347 95.2239 33.2382C92.8227 27.4416 89.3033 22.1748 84.8666 17.7384C80.4299 13.302 75.1628 9.78299 69.3661 7.38227C63.5694 4.98154 57.3565 3.74613 51.0823 3.74658V4.57882Z" fill="url(#paint11_linear_234_192)"/>
<path d="M135.395 40.8459L133.212 33.6833H122.239L120.06 40.8459H113.184L123.805 10.6262H131.609L142.271 40.8459H135.395ZM131.691 28.3283C129.671 21.8387 128.534 18.1675 128.28 17.3148C128.025 16.4621 127.843 15.7902 127.734 15.299C127.279 17.0567 125.982 21.3998 123.842 28.3283H131.691Z" fill="url(#paint12_linear_234_192)"/>
<path d="M152.438 29.3106V40.846H146.057V10.7627H154.826C158.919 10.7627 161.945 11.5074 163.905 12.9968C165.865 14.4862 166.847 16.7475 166.849 19.7809C166.873 21.4701 166.362 23.1238 165.389 24.5048C164.334 25.946 162.901 27.0674 161.248 27.7451C165.778 34.5121 168.734 38.8836 170.116 40.8596H163.019L155.835 29.3106H152.438ZM152.438 24.1228H154.485C156.499 24.1228 157.989 23.7817 158.953 23.0996C159.917 22.4174 160.397 21.3612 160.392 19.9309C160.392 18.5052 159.901 17.4899 158.919 16.8851C157.936 16.2802 156.422 15.9824 154.376 15.9915H152.438V24.1228Z" fill="url(#paint13_linear_234_192)"/>
<path d="M201.205 25.7702C201.205 30.7546 199.97 34.5838 197.501 37.2578C195.031 39.9319 191.49 41.2701 186.876 41.2723C182.269 41.2723 178.729 39.9342 176.255 37.2578C173.781 34.5815 172.546 30.7386 172.551 25.7293C172.551 20.7268 173.789 16.901 176.265 14.252C178.741 11.6029 182.292 10.2818 186.917 10.2886C191.542 10.2886 195.08 11.62 197.532 14.2827C199.983 16.9454 201.207 20.7745 201.205 25.7702ZM179.239 25.7702C179.239 29.1333 179.878 31.6652 181.156 33.3661C182.434 35.067 184.341 35.9174 186.876 35.9174C191.967 35.9174 194.514 32.535 194.516 25.7702C194.519 19.0055 191.986 15.6174 186.917 15.606C184.379 15.606 182.466 16.4599 181.177 18.1676C179.887 19.8752 179.242 22.4095 179.239 25.7702Z" fill="url(#paint14_linear_234_192)"/>
<path d="M234.143 40.846H226.032L212.938 18.0925H212.754C213.013 22.1127 213.143 24.9812 213.143 26.698V40.846H207.443V10.7627H215.493L228.563 33.3047H228.706C228.502 29.3936 228.399 26.6286 228.399 25.0096V10.7627H234.143V40.846Z" fill="url(#paint15_linear_234_192)"/>
<path d="M123.689 54.6836H132.349V66.0006C131.057 66.431 129.731 66.7527 128.386 66.9625C127.128 67.1481 125.858 67.2404 124.586 67.2388C121.291 67.2388 118.775 66.2712 117.038 64.3362C115.301 62.4011 114.433 59.6213 114.436 55.9968C114.436 52.4745 115.443 49.7277 117.458 47.7563C119.472 45.7848 122.267 44.7991 125.841 44.7991C128.071 44.7961 130.277 45.2536 132.322 46.1429L130.787 49.8437C129.246 49.0608 127.542 48.6518 125.814 48.6499C123.811 48.6499 122.209 49.3218 121.008 50.6657C119.808 52.0095 119.205 53.8161 119.2 56.0854C119.2 58.4548 119.686 60.2637 120.657 61.512C121.628 62.7604 123.039 63.3857 124.89 63.388C125.877 63.3845 126.862 63.284 127.83 63.0878V58.5344H123.689V54.6836Z" fill="url(#paint16_linear_234_192)"/>
<path d="M142.172 58.5821V66.9385H137.561V45.1094H143.905C146.861 45.1094 149.056 45.6494 150.491 46.7295C151.926 47.8096 152.636 49.4491 152.623 51.6479C152.638 52.8677 152.268 54.0613 151.565 55.0587C150.801 56.104 149.762 56.9174 148.564 57.4087C151.847 62.3157 153.987 65.4855 154.983 66.9181H149.839L144.638 58.5821H142.172ZM142.172 54.8302H143.666C145.13 54.8302 146.21 54.5857 146.906 54.0968C147.602 53.608 147.95 52.8417 147.95 51.798C147.95 50.7656 147.594 50.0289 146.882 49.5878C146.171 49.1466 145.069 48.9283 143.577 48.9329H142.172V54.8302Z" fill="url(#paint17_linear_234_192)"/>
<path d="M177.542 55.9967C177.542 59.6099 176.646 62.3862 174.854 64.3259C173.062 66.2655 170.494 67.2364 167.149 67.2387C163.806 67.2387 161.239 66.2677 159.447 64.3259C157.656 62.384 156.76 59.5974 156.76 55.966C156.76 52.3278 157.658 49.5537 159.454 47.6436C161.251 45.7336 163.826 44.7751 167.18 44.7683C170.536 44.7683 173.102 45.7336 174.878 47.6641C176.654 49.5946 177.542 52.3721 177.542 55.9967ZM161.613 55.9967C161.613 58.4343 162.076 60.2704 163.002 61.5051C163.927 62.7398 165.31 63.3572 167.149 63.3572C170.844 63.3572 172.692 60.9037 172.692 55.9967C172.692 51.0897 170.854 48.6316 167.18 48.6225C165.338 48.6225 163.95 49.241 163.015 50.478C162.081 51.715 161.613 53.5545 161.613 55.9967Z" fill="url(#paint18_linear_234_192)"/>
<path d="M199.832 45.1128V59.2369C199.864 60.7222 199.49 62.188 198.75 63.4766C198.016 64.703 196.925 65.6763 195.623 66.2666C194.103 66.9468 192.451 67.2789 190.786 67.2387C187.98 67.2387 185.799 66.519 184.244 65.0796C182.689 63.6403 181.913 61.6723 181.918 59.1755V45.1128H186.529V58.4729C186.529 60.1579 186.87 61.3892 187.553 62.177C188.235 62.9649 189.347 63.3572 190.912 63.3572C192.424 63.3572 193.522 62.9615 194.204 62.1702C194.886 61.3789 195.227 60.1374 195.227 58.4456V45.1128H199.832Z" fill="url(#paint19_linear_234_192)"/>
<path d="M220.255 51.9208C220.255 54.2719 219.522 56.0683 218.055 57.3098C216.588 58.5514 214.5 59.1733 211.789 59.1755H209.804V66.9385H205.176V45.1094H212.147C214.799 45.1094 216.812 45.6778 218.188 46.8148C219.564 47.9517 220.253 49.6537 220.255 51.9208ZM209.804 55.3827H211.329C212.752 55.3827 213.816 55.1019 214.521 54.5402C214.879 54.2436 215.162 53.8665 215.346 53.4397C215.531 53.0128 215.612 52.5485 215.582 52.0845C215.582 50.9998 215.287 50.204 214.695 49.6969C214.104 49.1898 213.178 48.9261 211.916 48.9056H209.811L209.804 55.3827Z" fill="url(#paint20_linear_234_192)"/>
<path d="M237.261 60.8775C237.261 62.849 236.552 64.402 235.133 65.5367C233.714 66.6713 231.741 67.2398 229.215 67.2421C227.08 67.2831 224.965 66.8338 223.031 65.9289V61.6245C224.243 62.185 225.498 62.6492 226.783 63.0127C227.695 63.2664 228.637 63.4017 229.583 63.4152C230.607 63.4152 231.377 63.2207 231.92 62.8353C232.19 62.6379 232.405 62.3756 232.547 62.0728C232.689 61.77 232.753 61.4364 232.732 61.1026C232.742 60.6951 232.623 60.2948 232.39 59.96C232.101 59.579 231.745 59.2532 231.34 58.9982C230.426 58.4499 229.481 57.9556 228.509 57.5179C227.434 57.0491 226.426 56.4426 225.507 55.7136C224.853 55.1485 224.311 54.4645 223.911 53.6978C223.498 52.8634 223.293 51.9411 223.314 51.0101C223.314 49.0795 223.968 47.5617 225.276 46.4566C226.583 45.3515 228.383 44.799 230.675 44.799C231.77 44.7936 232.861 44.9289 233.922 45.2015C235.027 45.497 236.108 45.8767 237.155 46.3373L235.665 49.9357C234.726 49.5359 233.761 49.2009 232.776 48.9329C232.041 48.7482 231.286 48.6531 230.528 48.6498C229.804 48.6009 229.087 48.8194 228.512 49.2637C228.283 49.46 228.101 49.7055 227.979 49.9818C227.858 50.2581 227.8 50.5582 227.81 50.86C227.801 51.2354 227.9 51.6056 228.093 51.9276C228.332 52.279 228.639 52.5784 228.997 52.8076C229.944 53.3753 230.923 53.8867 231.93 54.339C233.977 55.3145 235.375 56.2923 236.125 57.2723C236.901 58.3109 237.301 59.5819 237.261 60.8775Z" fill="url(#paint21_linear_234_192)"/>
<path d="M116.324 73.0474H123.235C126.391 73.0474 128.682 73.4964 130.107 74.3946C131.533 75.2928 132.246 76.7208 132.246 78.6786C132.294 79.8416 131.965 80.9891 131.308 81.9496C131.017 82.3593 130.648 82.7066 130.221 82.9709C129.794 83.2351 129.318 83.4109 128.821 83.4878V83.6413C130.229 83.9551 131.245 84.5429 131.871 85.4047C132.496 86.2665 132.809 87.4125 132.809 88.8428C132.809 90.8711 132.075 92.4537 130.609 93.5906C129.142 94.7276 127.151 95.296 124.636 95.296H116.324V73.0474ZM121.041 81.8609H123.77C125.05 81.8609 125.977 81.6631 126.55 81.2674C127.123 80.8717 127.409 80.2169 127.409 79.3028C127.438 78.9401 127.365 78.5766 127.2 78.2527C127.034 77.9287 126.782 77.6571 126.471 77.4678C125.847 77.0994 124.861 76.9118 123.514 76.9118H121.031L121.041 81.8609ZM121.041 85.6128V91.4111H124.111C125.407 91.4111 126.366 91.1621 126.986 90.6642C127.607 90.1662 127.916 89.4056 127.914 88.3823C127.914 86.5382 126.595 85.615 123.958 85.6128H121.041Z" fill="url(#paint22_linear_234_192)"/>
<path d="M141.994 86.7588V95.2858H137.264V73.0474H143.744C146.766 73.0474 149.004 73.5976 150.457 74.6982C151.91 75.7987 152.636 77.4757 152.636 79.7291C152.648 80.9737 152.266 82.1901 151.545 83.2047C150.763 84.2697 149.7 85.0963 148.475 85.5923C151.824 90.5948 154.006 93.826 155.02 95.2858H149.805L144.495 86.7588H141.994ZM141.994 82.925H143.519C145.011 82.925 146.111 82.6761 146.821 82.1781C147.53 81.6835 147.885 80.899 147.885 79.8349C147.885 78.7707 147.523 78.0305 146.797 77.5837C146.07 77.1369 144.948 76.9016 143.427 76.9016H141.994V82.925Z" fill="url(#paint23_linear_234_192)"/>
<path d="M178.032 84.1427C178.032 87.8241 177.122 90.6539 175.303 92.6322C173.484 94.6105 170.869 95.5996 167.458 95.5996C164.047 95.5996 161.432 94.6105 159.613 92.6322C157.794 90.6539 156.885 87.8116 156.885 84.1052C156.885 80.401 157.8 77.5724 159.63 75.6191C161.461 73.6659 164.086 72.6904 167.506 72.6926C170.917 72.6926 173.532 73.6761 175.351 75.643C177.17 77.6099 178.064 80.4431 178.032 84.1427ZM161.796 84.1427C161.796 86.6303 162.267 88.5017 163.208 89.7569C164.15 91.0121 165.561 91.6408 167.441 91.6431C171.202 91.6431 173.084 89.1418 173.086 84.1393C173.088 79.1368 171.217 76.6355 167.472 76.6355C165.594 76.6355 164.178 77.2665 163.225 78.5285C162.273 79.7905 161.796 81.6619 161.796 84.1427Z" fill="url(#paint24_linear_234_192)"/>
<path d="M200.541 95.296H195.183L189.357 85.9231L187.358 87.3523V95.296H182.645V73.0474H187.358V83.2286L189.214 80.6125L195.241 73.0474H200.476L192.717 82.8944L200.541 95.296Z" fill="url(#paint25_linear_234_192)"/>
<path d="M216.154 95.296H203.34V73.0474H216.154V76.9118H208.057V81.7995H215.588V85.6639H208.057V91.4009H216.154V95.296Z" fill="url(#paint26_linear_234_192)"/>
<path d="M225.511 86.7588V95.2858H220.783V73.0474H227.264C230.286 73.0474 232.523 73.5976 233.976 74.6982C235.429 75.7987 236.159 77.4757 236.166 79.7291C236.184 80.9784 235.805 82.2012 235.085 83.2218C234.303 84.2868 233.24 85.1134 232.015 85.6094C235.364 90.6119 237.546 93.843 238.56 95.3029H233.335L228.024 86.7759L225.511 86.7588ZM225.511 82.925H227.035C228.525 82.925 229.625 82.6761 230.337 82.1781C231.046 81.6835 231.401 80.899 231.401 79.8349C231.401 78.7707 231.039 78.0305 230.313 77.5837C229.586 77.1369 228.464 76.9016 226.943 76.9016H225.511V82.925Z" fill="url(#paint27_linear_234_192)"/>
<defs>
<linearGradient id="paint0_linear_234_192" x1="51.5214" y1="9.37109" x2="51.5214" y2="93.1404" gradientUnits="userSpaceOnUse">
<stop offset="0.01" stop-color="#42371B"/>
<stop offset="1" stop-color="#201B0F" stop-opacity="0"/>
</linearGradient>
<linearGradient id="paint1_linear_234_192" x1="63.1387" y1="86.7383" x2="36.398" y2="40.4196" gradientUnits="userSpaceOnUse">
<stop stop-color="#9A732B"/>
<stop offset="0.13" stop-color="#F0BD51"/>
<stop offset="0.31" stop-color="#FEEC6E"/>
<stop offset="0.68" stop-color="#DD9C2B"/>
<stop offset="0.85" stop-color="#FCD755"/>
</linearGradient>
<linearGradient id="paint2_linear_234_192" x1="54.6535" y1="85.8206" x2="20.924" y2="27.4004" gradientUnits="userSpaceOnUse">
<stop stop-color="#9A732B"/>
<stop offset="0.13" stop-color="#F0BD51"/>
<stop offset="0.31" stop-color="#FEEC6E"/>
<stop offset="0.68" stop-color="#DD9C2B"/>
<stop offset="0.85" stop-color="#FCD755"/>
</linearGradient>
<linearGradient id="paint3_linear_234_192" x1="55.609" y1="71.342" x2="29.0729" y2="25.3848" gradientUnits="userSpaceOnUse">
<stop stop-color="#9A732B"/>
<stop offset="0.13" stop-color="#F0BD51"/>
<stop offset="0.31" stop-color="#FEEC6E"/>
<stop offset="0.68" stop-color="#DD9C2B"/>
<stop offset="0.85" stop-color="#FCD755"/>
</linearGradient>
<linearGradient id="paint4_linear_234_192" x1="57.2314" y1="48.6738" x2="41.8111" y2="21.9706" gradientUnits="userSpaceOnUse">
<stop stop-color="#9A732B"/>
<stop offset="0.13" stop-color="#F0BD51"/>
<stop offset="0.31" stop-color="#FEEC6E"/>
<stop offset="0.68" stop-color="#DD9C2B"/>
<stop offset="0.85" stop-color="#FCD755"/>
</linearGradient>
<linearGradient id="paint5_linear_234_192" x1="54.62" y1="57.0472" x2="40.8745" y2="33.2398" gradientUnits="userSpaceOnUse">
<stop stop-color="#9A732B"/>
<stop offset="0.13" stop-color="#F0BD51"/>
<stop offset="0.31" stop-color="#FEEC6E"/>
<stop offset="0.68" stop-color="#DD9C2B"/>
<stop offset="0.85" stop-color="#FCD755"/>
</linearGradient>
<linearGradient id="paint6_linear_234_192" x1="76.5239" y1="70.0662" x2="63.9619" y2="48.3052" gradientUnits="userSpaceOnUse">
<stop stop-color="#9A732B"/>
<stop offset="0.13" stop-color="#F0BD51"/>
<stop offset="0.31" stop-color="#FEEC6E"/>
<stop offset="0.68" stop-color="#DD9C2B"/>
<stop offset="0.85" stop-color="#FCD755"/>
</linearGradient>
<linearGradient id="paint7_linear_234_192" x1="76.5239" y1="70.0662" x2="63.9619" y2="48.3052" gradientUnits="userSpaceOnUse">
<stop stop-color="#9A732B"/>
<stop offset="0.13" stop-color="#F0BD51"/>
<stop offset="0.31" stop-color="#FEEC6E"/>
<stop offset="0.68" stop-color="#DD9C2B"/>
<stop offset="0.85" stop-color="#FCD755"/>
</linearGradient>
<linearGradient id="paint8_linear_234_192" x1="50.4683" y1="75.5337" x2="35.6382" y2="49.8503" gradientUnits="userSpaceOnUse">
<stop stop-color="#9A732B"/>
<stop offset="0.13" stop-color="#F0BD51"/>
<stop offset="0.31" stop-color="#FEEC6E"/>
<stop offset="0.68" stop-color="#DD9C2B"/>
<stop offset="0.85" stop-color="#FCD755"/>
</linearGradient>
<linearGradient id="paint9_linear_234_192" x1="76.7316" y1="95.7974" x2="25.8356" y2="7.64513" gradientUnits="userSpaceOnUse">
<stop stop-color="#9A732B"/>
<stop offset="0.13" stop-color="#F0BD51"/>
<stop offset="0.31" stop-color="#FEEC6E"/>
<stop offset="0.68" stop-color="#DD9C2B"/>
<stop offset="0.85" stop-color="#FCD755"/>
</linearGradient>
<linearGradient id="paint10_linear_234_192" x1="76.7316" y1="95.7974" x2="25.8356" y2="7.64513" gradientUnits="userSpaceOnUse">
<stop stop-color="#9A732B"/>
<stop offset="0.13" stop-color="#F0BD51"/>
<stop offset="0.31" stop-color="#FEEC6E"/>
<stop offset="0.68" stop-color="#DD9C2B"/>
<stop offset="0.85" stop-color="#FCD755"/>
</linearGradient>
<linearGradient id="paint11_linear_234_192" x1="74.975" y1="92.9016" x2="27.193" y2="10.1418" gradientUnits="userSpaceOnUse">
<stop stop-color="#9A732B"/>
<stop offset="0.13" stop-color="#F0BD51"/>
<stop offset="0.31" stop-color="#FEEC6E"/>
<stop offset="0.68" stop-color="#DD9C2B"/>
<stop offset="0.85" stop-color="#FCD755"/>
</linearGradient>
<linearGradient id="paint12_linear_234_192" x1="133.908" y1="45.6893" x2="116.206" y2="15.0296" gradientUnits="userSpaceOnUse">
<stop stop-color="#9A732B"/>
<stop offset="0.13" stop-color="#F0BD51"/>
<stop offset="0.42" stop-color="#FEEC6E"/>
<stop offset="0.68" stop-color="#DD9C2B"/>
<stop offset="1" stop-color="#FCD755"/>
</linearGradient>
<linearGradient id="paint13_linear_234_192" x1="165.034" y1="43.7861" x2="145.992" y2="10.8036" gradientUnits="userSpaceOnUse">
<stop stop-color="#9A732B"/>
<stop offset="0.13" stop-color="#F0BD51"/>
<stop offset="0.42" stop-color="#FEEC6E"/>
<stop offset="0.68" stop-color="#DD9C2B"/>
<stop offset="1" stop-color="#FCD755"/>
</linearGradient>
<linearGradient id="paint14_linear_234_192" x1="194.776" y1="39.4271" x2="179.001" y2="12.1066" gradientUnits="userSpaceOnUse">
<stop stop-color="#9A732B"/>
<stop offset="0.13" stop-color="#F0BD51"/>
<stop offset="0.42" stop-color="#FEEC6E"/>
<stop offset="0.68" stop-color="#DD9C2B"/>
<stop offset="1" stop-color="#FCD755"/>
</linearGradient>
<linearGradient id="paint15_linear_234_192" x1="230.644" y1="42.8788" x2="210.939" y2="8.74351" gradientUnits="userSpaceOnUse">
<stop stop-color="#9A732B"/>
<stop offset="0.13" stop-color="#F0BD51"/>
<stop offset="0.42" stop-color="#FEEC6E"/>
<stop offset="0.68" stop-color="#DD9C2B"/>
<stop offset="1" stop-color="#FCD755"/>
</linearGradient>
<linearGradient id="paint16_linear_234_192" x1="131.176" y1="66.676" x2="119.405" y2="46.2896" gradientUnits="userSpaceOnUse">
<stop stop-color="#9A732B"/>
<stop offset="0.13" stop-color="#F0BD51"/>
<stop offset="0.42" stop-color="#FEEC6E"/>
<stop offset="0.68" stop-color="#DD9C2B"/>
<stop offset="1" stop-color="#FCD755"/>
</linearGradient>
<linearGradient id="paint17_linear_234_192" x1="151.306" y1="69.06" x2="137.496" y2="45.1401" gradientUnits="userSpaceOnUse">
<stop stop-color="#9A732B"/>
<stop offset="0.13" stop-color="#F0BD51"/>
<stop offset="0.42" stop-color="#FEEC6E"/>
<stop offset="0.68" stop-color="#DD9C2B"/>
<stop offset="1" stop-color="#FCD755"/>
</linearGradient>
<linearGradient id="paint18_linear_234_192" x1="172.879" y1="65.9017" x2="161.439" y2="46.0849" gradientUnits="userSpaceOnUse">
<stop stop-color="#9A732B"/>
<stop offset="0.13" stop-color="#F0BD51"/>
<stop offset="0.42" stop-color="#FEEC6E"/>
<stop offset="0.68" stop-color="#DD9C2B"/>
<stop offset="1" stop-color="#FCD755"/>
</linearGradient>
<linearGradient id="paint19_linear_234_192" x1="197.649" y1="65.1274" x2="185.049" y2="43.3017" gradientUnits="userSpaceOnUse">
<stop stop-color="#9A732B"/>
<stop offset="0.13" stop-color="#F0BD51"/>
<stop offset="0.42" stop-color="#FEEC6E"/>
<stop offset="0.68" stop-color="#DD9C2B"/>
<stop offset="1" stop-color="#FCD755"/>
</linearGradient>
<linearGradient id="paint20_linear_234_192" x1="215.712" y1="63.5277" x2="205.104" y2="45.1537" gradientUnits="userSpaceOnUse">
<stop stop-color="#9A732B"/>
<stop offset="0.13" stop-color="#F0BD51"/>
<stop offset="0.42" stop-color="#FEEC6E"/>
<stop offset="0.68" stop-color="#DD9C2B"/>
<stop offset="1" stop-color="#FCD755"/>
</linearGradient>
<linearGradient id="paint21_linear_234_192" x1="235.464" y1="65.4309" x2="224.648" y2="46.6954" gradientUnits="userSpaceOnUse">
<stop stop-color="#9A732B"/>
<stop offset="0.13" stop-color="#F0BD51"/>
<stop offset="0.42" stop-color="#FEEC6E"/>
<stop offset="0.68" stop-color="#DD9C2B"/>
<stop offset="1" stop-color="#FCD755"/>
</linearGradient>
<linearGradient id="paint22_linear_234_192" x1="113.916" y1="75.4554" x2="131.373" y2="92.9119" gradientUnits="userSpaceOnUse">
<stop stop-color="#9A732B"/>
<stop offset="0.13" stop-color="#F0BD51"/>
<stop offset="0.42" stop-color="#FEEC6E"/>
<stop offset="0.68" stop-color="#DD9C2B"/>
<stop offset="1" stop-color="#FCD755"/>
</linearGradient>
<linearGradient id="paint23_linear_234_192" x1="134.607" y1="75.7078" x2="154.618" y2="95.719" gradientUnits="userSpaceOnUse">
<stop stop-color="#9A732B"/>
<stop offset="0.13" stop-color="#F0BD51"/>
<stop offset="0.42" stop-color="#FEEC6E"/>
<stop offset="0.68" stop-color="#DD9C2B"/>
<stop offset="1" stop-color="#FCD755"/>
</linearGradient>
<linearGradient id="paint24_linear_234_192" x1="159.262" y1="75.9534" x2="175.624" y2="92.3116" gradientUnits="userSpaceOnUse">
<stop stop-color="#9A732B"/>
<stop offset="0.13" stop-color="#F0BD51"/>
<stop offset="0.42" stop-color="#FEEC6E"/>
<stop offset="0.68" stop-color="#DD9C2B"/>
<stop offset="1" stop-color="#FCD755"/>
</linearGradient>
<linearGradient id="paint25_linear_234_192" x1="181.543" y1="74.1525" x2="201.612" y2="94.2251" gradientUnits="userSpaceOnUse">
<stop stop-color="#9A732B"/>
<stop offset="0.13" stop-color="#F0BD51"/>
<stop offset="0.42" stop-color="#FEEC6E"/>
<stop offset="0.68" stop-color="#DD9C2B"/>
<stop offset="1" stop-color="#FCD755"/>
</linearGradient>
<linearGradient id="paint26_linear_234_192" x1="200.98" y1="75.4076" x2="218.511" y2="92.9392" gradientUnits="userSpaceOnUse">
<stop stop-color="#9A732B"/>
<stop offset="0.13" stop-color="#F0BD51"/>
<stop offset="0.42" stop-color="#FEEC6E"/>
<stop offset="0.68" stop-color="#DD9C2B"/>
<stop offset="1" stop-color="#FCD755"/>
</linearGradient>
<linearGradient id="paint27_linear_234_192" x1="218.136" y1="75.7078" x2="238.148" y2="95.719" gradientUnits="userSpaceOnUse">
<stop stop-color="#9A732B"/>
<stop offset="0.13" stop-color="#F0BD51"/>
<stop offset="0.42" stop-color="#FEEC6E"/>
<stop offset="0.68" stop-color="#DD9C2B"/>
<stop offset="1" stop-color="#FCD755"/>
</linearGradient>
</defs>
</svg>
