<svg width="182" height="181" viewBox="0 0 182 181" fill="none" xmlns="http://www.w3.org/2000/svg">
<path d="M180.992 155.478C180.236 156.991 178.967 157.358 177.355 157.358C162.051 157.32 146.75 157.32 131.453 157.358H129.103C129.103 158.805 129.127 160.073 129.103 161.337C129.066 163.423 128.107 164.626 126.496 164.626C124.884 164.626 123.86 163.442 123.846 161.384C123.818 157.518 123.846 153.651 123.846 149.779C123.804 143.672 120.966 139.762 115.159 137.831C110.334 136.225 105.504 134.637 100.537 132.997C98.6581 137.047 95.5807 139.575 91.0233 139.598C86.4659 139.622 83.3368 137.178 81.3635 132.959C75.796 134.839 70.1627 136.46 64.769 138.654C60.0706 140.566 58.055 144.606 58.0503 149.634C58.0503 157.605 58.0503 165.577 58.0503 173.548C58.0503 174.06 58.1114 174.577 58.1443 175.122H67.7101V165.57C67.7101 163.813 67.7101 162.056 67.7101 160.299C67.7101 158.241 68.7109 157.071 70.3694 157.095C72.0279 157.118 72.9676 158.316 72.977 160.384C72.977 163.903 72.977 167.431 72.977 170.936V175.071H108.896V168.422C108.896 165.603 108.868 162.784 108.896 159.965C108.924 158.194 110 157.076 111.536 157.081C113.073 157.085 114.139 158.189 114.149 159.975C114.177 164.95 114.149 169.926 114.149 175.033H123.606C124.227 172.449 125.068 171.528 126.66 171.66C128.361 171.8 129.085 172.984 129.094 175.653C129.094 176.297 129.118 176.945 129.094 177.584C128.972 179.464 128.051 180.347 126.214 180.431C125.862 180.431 125.509 180.431 125.161 180.431H56.7489C53.4601 180.431 52.7694 179.731 52.7647 176.386C52.7647 170.645 52.7177 164.899 52.7929 159.157C52.7929 157.71 52.4123 157.278 50.9135 157.278C35.5547 157.33 20.1958 157.311 4.83687 157.306C1.53393 157.306 0.880859 156.667 0.880859 153.294C0.880859 152.65 0.880859 152.006 0.880859 151.363C0.960731 149.704 1.97557 148.52 3.42266 148.544C4.98252 148.577 5.90339 149.441 6.13361 151.001C6.1759 151.283 6.18999 151.569 6.22758 151.941H15.7981C15.7981 149.925 15.6806 147.952 15.8498 145.997C15.925 145.09 16.3196 143.967 16.9821 143.437C17.3559 143.199 17.7813 143.053 18.2227 143.013C18.6641 142.973 19.1086 143.039 19.5192 143.206C19.9145 143.474 20.2493 143.822 20.5018 144.228C20.7543 144.633 20.9189 145.087 20.9851 145.56C21.1918 147.637 21.0509 149.751 21.0509 151.959H52.7647C52.7647 151.156 52.7647 150.367 52.7647 149.577C52.8775 141.285 57.2657 135.332 65.1542 132.762L71.154 130.793C70.1768 128.012 68.4995 125.761 65.9013 124.747C60.2633 122.543 54.4561 120.701 48.7523 118.723C44.5849 127.584 33.4498 127.509 29.4092 118.822C25.27 120.175 21.1072 121.528 16.9492 122.891C15.8921 123.238 14.8256 123.567 13.7872 123.957C11.565 124.756 9.6423 126.219 8.2799 128.148C6.91749 130.077 6.18131 132.378 6.1712 134.74C6.1712 136.149 6.22288 137.559 6.13831 138.968C6.13612 139.308 6.06545 139.643 5.93054 139.955C5.79563 140.266 5.59925 140.547 5.35316 140.781C5.10706 141.015 4.81632 141.197 4.49833 141.316C4.18034 141.434 3.84165 141.488 3.50254 141.473C1.98497 141.421 0.951335 140.533 0.956033 139.095C0.956033 136.3 0.862066 133.415 1.48695 130.723C2.84007 124.888 6.59405 120.927 12.2556 118.944C17.2828 117.182 22.3523 115.552 27.4359 113.959C28.6669 113.574 29.2072 112.987 28.9864 111.727C28.977 111.668 28.977 111.608 28.9864 111.549C29.4139 109.026 28.5165 107.367 26.3882 105.718C22.0234 102.307 19.6742 97.5713 19.4769 91.9991C19.2545 87.4332 19.2624 82.8591 19.5004 78.294C20.036 69.79 24.4853 63.8184 32.4303 60.943C40.3752 58.0676 47.418 59.9658 53.3849 65.9092C53.5916 66.1159 53.7748 66.3461 53.9769 66.5622C54.1789 66.7784 54.3715 66.9851 54.5548 67.1824C54.7098 67.1495 54.8743 67.1824 54.9165 67.0979C57.5335 62.7472 61.4519 60.2289 66.2489 58.7959C70.6748 57.4756 75.0349 55.9252 79.4372 54.5298C80.4004 54.2244 80.7809 53.8062 80.8467 52.7256C81.0393 49.9677 80.499 47.9709 77.9995 46.0822C73.6441 42.7933 71.4735 37.9493 71.3091 32.4898C71.154 27.3217 71.0131 22.1535 71.6098 17.0464C72.6152 8.56587 79.1694 2.209 87.6781 0.68674C87.9533 0.610069 88.2207 0.507826 88.4768 0.381348L93.4007 0.381348C93.717 0.516029 94.0439 0.624457 94.3779 0.705534C102.666 2.17142 109.267 8.66453 110.263 17.0558C110.836 21.8575 110.639 26.7626 110.611 31.6206C110.573 37.4325 108.454 42.5537 103.883 46.0963C101.421 48.0038 100.796 49.9677 101.035 52.7303C101.115 53.67 101.299 54.1774 102.271 54.4828C106.678 55.8923 111.034 57.4381 115.459 58.7583C120.308 60.2007 124.306 62.6955 126.956 67.112C126.999 67.1777 127.163 67.1683 127.323 67.2059C127.661 66.8347 128.009 66.4448 128.366 66.0642C130.98 63.2186 134.377 61.2096 138.129 60.29C141.882 59.3703 145.823 59.5812 149.457 60.896C153.101 62.1729 156.28 64.5104 158.586 67.6082C160.892 70.7059 162.219 74.4224 162.396 78.2799C162.584 82.842 162.574 87.4229 162.396 91.985C162.184 97.623 159.802 102.387 155.348 105.779C153.29 107.353 152.75 108.932 152.792 111.314C152.825 113.001 153.384 113.597 154.902 114.063C159.82 115.575 164.709 117.187 169.57 118.897C175.439 120.96 179.042 125.141 180.578 131.146C180.677 131.526 180.837 131.893 180.968 132.264V139.65C180.17 140.946 179.089 141.858 177.501 141.313C175.913 140.768 175.622 139.434 175.683 137.893C175.73 136.784 175.734 135.666 175.683 134.557C175.443 129.966 173.451 126.25 169.19 124.512C163.74 122.285 158.059 120.626 152.403 118.7C150.415 122.881 147.361 125.329 142.762 125.324C138.162 125.32 135.164 122.797 133.186 118.747C127.638 120.626 122.169 122.303 116.798 124.281C113.838 125.376 111.842 127.664 110.691 130.742C113.237 131.606 115.713 132.325 118.095 133.274C124.616 135.872 128.281 140.707 128.977 147.707C129.113 149.084 128.977 150.484 128.977 151.936H160.784C160.784 149.699 160.601 147.581 160.869 145.513C160.977 145.004 161.195 144.525 161.507 144.109C161.82 143.692 162.219 143.349 162.678 143.103C163.326 142.807 164.637 143.277 165.271 143.841C165.812 144.31 165.962 145.41 166.004 146.242C166.108 148.121 166.037 150.052 166.037 151.964H175.659C175.716 150.442 176.054 149.192 177.614 148.675C179.174 148.158 180.104 149.178 181.001 150.207L180.992 155.478ZM71.2104 92.6851C71.6802 87.6014 73.4985 83.1427 77.182 79.5626C80.7073 76.041 85.4588 74.0206 90.4407 73.9246C94.6954 73.7721 98.8781 75.0527 102.318 77.5611C107.486 81.2681 110.094 86.4456 110.686 92.6522H123.155C123.155 92.0696 123.155 91.6091 123.155 91.1487C123.216 86.2295 123.019 81.2822 123.409 76.4006C123.818 71.3123 121.769 66.816 116.996 64.9789C111.611 62.9022 106.067 61.2202 100.519 59.3832C98.5783 63.5788 95.4492 66.0266 90.9012 66.0172C86.3532 66.0078 83.2523 63.5224 81.3541 59.4396L70.0781 63.1325C68.4666 63.6634 66.8362 64.152 65.2623 64.7722C61.1418 66.3884 57.9423 70.9129 58.1537 74.5776C58.3886 78.6652 58.5781 82.7528 58.7222 86.8403C58.7927 88.7525 58.7222 90.6742 58.7222 92.6898L71.2104 92.6851ZM105.494 25.7524H105.344C105.344 23.7039 105.4 21.6555 105.344 19.607C105.222 16.0566 103.797 12.6753 101.341 10.1085C98.8854 7.54165 95.5703 5.96894 92.0288 5.69048C84.6759 5.17836 77.8492 10.168 76.9095 17.4598C76.2705 22.4166 76.4068 27.5096 76.6182 32.5274C76.9048 39.5327 82.9375 45.4009 89.7736 45.7768C97.3567 46.1902 103.817 41.3744 105.02 34.139C105.471 31.3904 105.353 28.5714 105.494 25.7524ZM105.494 99.3003H105.344C105.344 97.2518 105.396 95.1987 105.344 93.1502C105.22 89.5994 103.795 86.2182 101.34 83.6502C98.8844 81.0823 95.5704 79.507 92.0288 79.2243C84.8168 78.6088 77.8633 83.7065 76.9001 90.9702C76.2658 95.7484 76.4772 100.663 76.5618 105.535C76.6887 112.63 82.5099 118.747 89.4024 119.287C97.1218 119.898 103.77 115.059 105.01 107.696C105.475 104.943 105.353 102.096 105.499 99.2956L105.494 99.3003ZM24.4525 85.1489H24.725C24.725 87.3712 24.6075 89.6029 24.725 91.8206C24.9661 95.4314 26.5663 98.8169 29.2034 101.295C31.8405 103.774 35.3186 105.161 38.9375 105.178C46.5018 105.244 52.9432 99.4742 53.3661 91.9474C53.6104 87.387 53.6104 82.8168 53.3661 78.2564C53.0043 71.3922 47.3569 65.6743 40.7228 65.1011C33.2948 64.4527 26.7547 68.8597 25.2183 75.9073C24.5229 78.9001 24.6686 82.0621 24.4525 85.1489ZM157.416 85.1912H157.134C157.134 82.9125 157.256 80.6197 157.11 78.3457C156.877 74.7438 155.282 71.3654 152.65 68.8956C150.018 66.4257 146.545 65.049 142.935 65.0447C135.319 64.993 128.944 70.6827 128.516 78.2564C128.267 82.8151 128.267 87.384 128.516 91.9427C128.892 98.9386 134.535 104.511 141.526 105.154C148.517 105.798 155.151 101.194 156.683 94.2684C157.336 91.3225 157.214 88.2404 157.434 85.1912H157.416ZM110.62 98.0741C110.62 100.329 110.62 102.303 110.62 104.299C110.651 111.425 107.781 117.082 102.008 121.27C101.553 121.581 101.228 122.047 101.092 122.581C100.476 127.359 100.622 127.58 105.264 128.961C105.353 128.989 105.475 128.923 105.668 128.886C106.611 126.425 108.109 124.215 110.045 122.427C111.981 120.639 114.303 119.322 116.831 118.578C120.844 117.3 124.819 115.956 128.836 114.664C132.745 113.4 132.787 113.409 132.693 109.233C132.693 108.528 132.373 107.555 131.861 107.184C128.884 105.086 126.493 102.26 124.917 98.9761C124.811 98.7587 124.656 98.5681 124.466 98.4184C124.276 98.2687 124.054 98.1639 123.818 98.1116C119.495 98.0506 115.173 98.0741 110.639 98.0741H110.62ZM71.2245 98.0741C66.7188 98.0741 62.401 98.0365 58.0691 98.121C57.6322 98.121 57.1295 98.8023 56.7912 99.2533C55.0998 101.4 53.803 104.055 51.6935 105.615C49.3866 107.316 48.9496 109.134 49.0389 111.652C49.0859 113.019 49.5087 113.565 50.7726 113.959C55.7904 115.543 60.7801 117.21 65.7697 118.878C69.3706 120.047 72.4467 122.444 74.4617 125.649C75.1476 126.72 75.6973 127.88 76.3034 128.989C80.9454 127.758 80.9736 127.754 80.7339 122.971C80.6689 122.318 80.3479 121.719 79.8413 121.303C74.0106 117.074 71.1352 111.366 71.201 104.163C71.2574 102.19 71.2433 100.216 71.2433 98.0741H71.2245ZM86.0995 124.418C86.0995 126.053 86.0995 127.739 86.0995 129.421C86.1169 129.83 86.1815 130.235 86.2921 130.629C86.5479 131.687 87.1544 132.626 88.0127 133.295C88.871 133.964 89.9305 134.323 91.0186 134.312C93.1705 134.265 95.2471 132.785 95.5149 130.624C95.7827 128.463 95.5713 126.396 95.5713 124.418H86.0995ZM95.6747 50.8886H86.184C86.184 52.7679 86.0243 54.6942 86.2216 56.5924C86.3692 57.7263 86.9212 58.7688 87.7762 59.5281C88.6312 60.2874 89.7317 60.7124 90.8751 60.725C92.0185 60.7376 93.128 60.3369 93.9995 59.5966C94.871 58.8562 95.4458 57.8261 95.6183 56.6957C95.8532 54.7459 95.6747 52.7491 95.6747 50.8886ZM34.2955 110.243C34.2955 112.061 34.2062 113.931 34.2955 115.787C34.3824 116.937 34.8972 118.012 35.7383 118.801C36.5794 119.59 37.6857 120.035 38.8388 120.048C41.2631 120.133 43.4808 118.507 43.7157 116.172C43.9177 114.161 43.758 112.117 43.758 110.243H34.2955ZM138.026 110.243C138.026 110.755 138.026 111.333 138.026 111.906C138.026 113.193 137.979 114.485 138.073 115.763C138.163 116.912 138.676 117.985 139.513 118.777C140.35 119.569 141.45 120.022 142.602 120.048C145.097 120.142 147.3 118.446 147.526 116.022C147.699 114.063 147.563 112.075 147.563 110.243H138.026Z" fill="url(#paint0_linear_234_311)"/>
<defs>
<linearGradient id="paint0_linear_234_311" x1="159.935" y1="190.628" x2="55.1073" y2="-25.8719" gradientUnits="userSpaceOnUse">
<stop stop-color="#9A732B"/>
<stop offset="0.13" stop-color="#F0BD51"/>
<stop offset="0.31" stop-color="#FEEC6E"/>
<stop offset="0.68" stop-color="#DD9C2B"/>
<stop offset="0.85" stop-color="#FCD755"/>
</linearGradient>
</defs>
</svg>
