<svg width="261" height="189" viewBox="0 0 261 189" fill="none" xmlns="http://www.w3.org/2000/svg">
<path d="M189.519 186.848L257.563 2.87695L71.2818 2.87696L3.23788 186.848L189.519 186.848Z" fill="#030303" stroke="url(#paint0_linear_234_278)" stroke-width="4"/>
<path fill-rule="evenodd" clip-rule="evenodd" d="M104.093 43.6026C101.038 44.6639 98.8382 46.9948 98.0551 50.0012C97.785 51.0379 97.7461 54.5266 97.7461 77.6606V104.134L98.2409 104.628C98.8414 105.229 99.7321 105.274 100.394 104.738L100.87 104.352L100.971 77.6773L101.072 51.002L101.532 50.0693C102.167 48.7799 103.259 47.7162 104.586 47.0938L105.708 46.5675H130.4H155.092L156.214 47.0938C157.542 47.7162 158.634 48.7799 159.269 50.0693C159.715 50.9752 159.731 51.213 159.829 58.327L159.93 65.652L160.406 66.037C161.068 66.5731 161.959 66.5278 162.559 65.9271L163.054 65.4324V58.31C163.054 50.5886 162.967 49.7909 161.918 47.8621C161.121 46.3984 159.525 44.9249 157.826 44.0852L156.323 43.3424L130.713 43.297C106.823 43.2547 105.035 43.2753 104.093 43.6026ZM121.741 49.7299C121.21 50.2995 121.213 51.3029 121.747 51.9826L122.165 52.5137H127.981H133.798L134.215 51.9826C134.779 51.2664 134.757 50.282 134.167 49.7269C133.71 49.2979 133.577 49.2886 127.926 49.2886C122.245 49.2886 122.145 49.2959 121.741 49.7299ZM136.858 49.7299C136.327 50.2995 136.33 51.3029 136.865 51.9826C137.793 53.1622 139.672 52.3761 139.672 50.8083C139.672 49.4543 137.788 48.7321 136.858 49.7299ZM126.6 65.8078C125.784 66.0081 124.242 66.6056 123.173 67.1357C121.511 67.9597 120.949 68.3802 119.302 70.0324C117.646 71.694 117.238 72.2453 116.39 73.9618C115.654 75.4522 115.384 76.249 115.322 77.1045C115.245 78.1611 115.282 78.2846 115.792 78.6858C116.96 79.6045 117.973 78.9986 118.714 76.9378C120.025 73.296 123.495 70.1717 127.377 69.1401C128.848 68.7491 131.941 68.7593 133.495 69.1603C137.847 70.283 141.67 74.2654 142.597 78.6428C143.164 81.3211 142.839 83.8886 141.608 86.4474C140.96 87.7962 139.444 89.8039 139.075 89.8039C138.987 89.8039 138.801 89.5287 138.662 89.1923C138.318 88.3619 136.848 87.1053 135.881 86.8158C134.812 86.4955 125.996 86.4929 124.929 86.8128C123.91 87.1182 122.633 88.2252 122.104 89.2621L121.682 90.0881L121.052 89.3201C119.937 87.9601 118.904 86.1099 118.478 84.7112C118.229 83.8939 117.892 83.2279 117.636 83.0483C116.982 82.5899 116.14 82.6792 115.55 83.2698C115.086 83.7338 115.042 83.9003 115.148 84.7955C115.213 85.3482 115.568 86.4975 115.937 87.3496C117.963 92.0368 121.666 95.2178 126.57 96.4836C128.475 96.9755 131.969 97.0178 133.889 96.5727C139.566 95.2559 144.059 90.8929 145.644 85.1561C145.906 84.2073 146.003 83.1247 146.003 81.1364C146.003 77.9079 145.722 76.6632 144.376 73.9229C142.889 70.8949 139.857 67.998 136.75 66.6358C133.958 65.4119 129.645 65.0602 126.6 65.8078ZM160.699 70.2455C160.457 70.3473 160.162 70.6111 160.044 70.8319C159.894 71.111 159.829 81.3965 159.829 104.67C159.829 134.019 159.792 138.233 159.522 139.14C159.115 140.51 157.582 142.195 156.155 142.84L155.092 143.32H130.4H105.708L104.646 142.84C103.218 142.195 101.685 140.51 101.278 139.14C101.016 138.258 100.971 136.049 100.971 124.061C100.971 110.156 100.967 110.01 100.553 109.484C99.9633 108.734 98.7539 108.734 98.1639 109.484C97.7501 110.01 97.7461 110.155 97.7461 124.171C97.7461 132.766 97.8253 138.753 97.9481 139.413C98.432 142.016 100.517 144.656 103.025 145.843L104.297 146.444H130.4H156.503L157.769 145.846C159.293 145.124 161.032 143.532 161.843 142.114C163.109 139.902 163.048 141.781 163.051 104.793C163.054 73.0007 163.034 71.0788 162.701 70.6779C162.293 70.1856 161.334 69.9786 160.699 70.2455ZM127.619 72.0775C125.41 73.1811 124.358 74.9699 124.355 77.6271C124.353 79.045 124.434 79.4191 124.97 80.4914C126.036 82.6258 127.955 83.7923 130.4 83.7923C132.845 83.7923 134.764 82.6258 135.831 80.4914C136.368 79.4175 136.447 79.0448 136.447 77.609C136.447 76.1732 136.368 75.8005 135.831 74.7266C134.744 72.5524 132.931 71.4664 130.382 71.4632C129.076 71.4614 128.671 71.5517 127.619 72.0775ZM131.952 75.2829C133.709 76.3538 133.608 79.0986 131.777 80.0455C129.875 81.029 127.581 79.7196 127.579 77.6493C127.577 76.0303 128.743 74.8892 130.4 74.8892C130.945 74.8892 131.565 75.0464 131.952 75.2829ZM135.455 90.5946C136.359 91.4991 136.25 92.0862 135.087 92.5764C132.274 93.7613 128.978 93.8221 126.083 92.7425C125.046 92.3559 124.847 92.2025 124.793 91.7482C124.748 91.3664 124.903 91.0367 125.332 90.6081L125.935 90.0054H130.4H134.866L135.455 90.5946ZM111.643 102.555C111.266 102.808 110.752 103.322 110.5 103.696C110.068 104.338 110.042 104.571 110.042 107.844C110.042 111.109 110.068 111.351 110.495 111.978C111.126 112.904 111.863 113.404 112.892 113.603C114.039 113.825 146.761 113.825 147.908 113.603C148.937 113.404 149.675 112.904 150.305 111.978C150.732 111.351 150.759 111.109 150.759 107.844C150.759 104.58 150.732 104.337 150.305 103.71C150.055 103.344 149.596 102.854 149.282 102.622C148.716 102.202 148.623 102.2 130.521 102.147L112.328 102.093L111.643 102.555ZM122.136 107.945V110.364H117.917C114.351 110.364 113.65 110.315 113.382 110.047C113.142 109.807 113.065 109.3 113.065 107.947C113.065 106.966 113.12 106.02 113.188 105.845C113.294 105.568 113.885 105.526 117.723 105.526H122.136V107.945ZM147.613 105.845C147.68 106.02 147.735 106.966 147.735 107.947C147.735 109.3 147.658 109.807 147.418 110.047C147.138 110.327 145.835 110.364 136.131 110.364H125.159V107.945V105.526H136.325C146.32 105.526 147.503 105.56 147.613 105.845ZM111.639 118.683C111.264 118.935 110.752 119.448 110.5 119.822C110.068 120.464 110.042 120.696 110.042 123.97C110.042 127.234 110.068 127.477 110.495 128.104C111.126 129.03 111.863 129.53 112.892 129.729C114.039 129.95 146.761 129.95 147.908 129.729C148.937 129.53 149.675 129.03 150.305 128.104C150.732 127.477 150.759 127.234 150.759 123.97C150.759 120.705 150.732 120.463 150.305 119.836C149.303 118.363 149.19 118.333 144.418 118.265L140.122 118.203L139.695 118.745C139.134 119.459 139.156 120.288 139.755 120.985L140.241 121.551L143.836 121.619C146.282 121.665 147.478 121.761 147.58 121.921C147.662 122.05 147.73 122.988 147.732 124.006C147.734 125.422 147.661 125.93 147.418 126.173C147.138 126.453 145.835 126.489 136.131 126.489H125.159V124.084V121.678L129.875 121.615C135.373 121.54 135.439 121.519 135.439 119.818C135.439 118.136 136.111 118.225 123.431 118.225H112.319L111.639 118.683ZM122.136 124.07V126.489H117.917C114.351 126.489 113.65 126.44 113.382 126.173C113.142 125.932 113.065 125.425 113.065 124.072C113.065 123.092 113.12 122.146 113.188 121.971C113.294 121.693 113.885 121.652 117.723 121.652H122.136V124.07Z" fill="url(#paint1_linear_234_278)"/>
<defs>
<linearGradient id="paint0_linear_234_278" x1="154.467" y1="199.493" x2="293.719" y2="51.5543" gradientUnits="userSpaceOnUse">
<stop stop-color="#9A732B"/>
<stop offset="0.13" stop-color="#F0BD51"/>
<stop offset="0.31" stop-color="#FEEC6E"/>
<stop offset="0.68" stop-color="#DD9C2B"/>
<stop offset="0.85" stop-color="#FCD755"/>
</linearGradient>
<linearGradient id="paint1_linear_234_278" x1="155.416" y1="152.287" x2="10.2905" y2="-37.4594" gradientUnits="userSpaceOnUse">
<stop stop-color="#9A732B"/>
<stop offset="0.13" stop-color="#F0BD51"/>
<stop offset="0.31" stop-color="#FEEC6E"/>
<stop offset="0.68" stop-color="#DD9C2B"/>
<stop offset="0.85" stop-color="#FCD755"/>
</linearGradient>
</defs>
</svg>
