<svg width="165" height="66" viewBox="0 0 165 66" fill="none" xmlns="http://www.w3.org/2000/svg">
<path d="M139.214 63.7856L161.776 2.78564H25.567L3.0054 63.7857L139.214 63.7856Z" fill="#030303" stroke="url(#paint0_linear_233_17)" stroke-width="4"/>
<path d="M57.4358 28.7856C57.3752 28.0281 57.0911 27.4372 56.5835 27.0129C56.0835 26.5887 55.3222 26.3766 54.2994 26.3766C53.6479 26.3766 53.1138 26.4561 52.6972 26.6152C52.2881 26.7667 51.985 26.975 51.7881 27.2402C51.5911 27.5053 51.4888 27.8084 51.4813 28.1493C51.4661 28.4296 51.5154 28.6834 51.629 28.9106C51.7502 29.1303 51.9396 29.3311 52.1972 29.5129C52.4547 29.6872 52.7843 29.8463 53.1858 29.9902C53.5873 30.1341 54.0646 30.2629 54.6176 30.3766L56.5267 30.7856C57.8146 31.0584 58.9169 31.4182 59.8335 31.8652C60.7502 32.3122 61.5002 32.8387 62.0835 33.4447C62.6669 34.0432 63.0949 34.7175 63.3676 35.4675C63.6479 36.2175 63.7919 37.0356 63.7994 37.922C63.7919 39.4523 63.4093 40.7478 62.6517 41.8084C61.8941 42.869 60.8108 43.6758 59.4017 44.2288C58.0002 44.7819 56.3146 45.0584 54.3449 45.0584C52.3222 45.0584 50.557 44.7591 49.0494 44.1606C47.5494 43.5622 46.3828 42.6417 45.5494 41.3993C44.7237 40.1493 44.307 38.5508 44.2994 36.6038H50.2994C50.3373 37.3159 50.5154 37.9144 50.8335 38.3993C51.1517 38.8841 51.5987 39.2516 52.1744 39.5016C52.7578 39.7516 53.451 39.8766 54.254 39.8766C54.9282 39.8766 55.4926 39.7932 55.9472 39.6266C56.4017 39.4599 56.7464 39.2288 56.9813 38.9334C57.2161 38.6379 57.3373 38.3008 57.3449 37.922C57.3373 37.5659 57.2199 37.2553 56.9926 36.9902C56.7729 36.7175 56.4093 36.475 55.9017 36.2629C55.3941 36.0432 54.7085 35.8387 53.8449 35.6493L51.5267 35.1493C49.4661 34.7023 47.8411 33.9561 46.6517 32.9106C45.4699 31.8576 44.8828 30.422 44.8904 28.6038C44.8828 27.1266 45.2767 25.8349 46.0722 24.7288C46.8752 23.6152 47.985 22.7478 49.4017 22.1266C50.826 21.5053 52.4585 21.1947 54.2994 21.1947C56.1782 21.1947 57.8032 21.5091 59.1744 22.1379C60.5457 22.7667 61.6025 23.6531 62.3449 24.797C63.0949 25.9334 63.4737 27.2629 63.4813 28.7856H57.4358ZM66.2029 44.7856V21.5129H82.9756V26.6038H72.521V30.6038H82.1119V35.6947H72.521V39.6947H82.9301V44.7856H66.2029ZM86.1091 44.7856V21.5129H92.4273V39.6947H101.836V44.7856H86.1091ZM104.39 44.7856V21.5129H110.709V39.6947H120.118V44.7856H104.39Z" fill="white"/>
<defs>
<linearGradient id="paint0_linear_233_17" x1="-36.0508" y1="69.4669" x2="-27.8508" y2="-26.3139" gradientUnits="userSpaceOnUse">
<stop stop-color="#9A732B"/>
<stop offset="0.13" stop-color="#F0BD51"/>
<stop offset="0.31" stop-color="#FEEC6E"/>
<stop offset="0.68" stop-color="#DD9C2B"/>
<stop offset="0.85" stop-color="#FCD755"/>
</linearGradient>
</defs>
</svg>
