<svg width="178" height="198" viewBox="0 0 178 198" fill="none" xmlns="http://www.w3.org/2000/svg">
<path d="M92.6335 0.177246C96.5873 0.926382 100.624 1.37378 104.479 2.47668C120.393 7.02872 132.192 16.8247 139.985 31.3913C144.667 40.1676 146.592 49.6358 146.54 59.5515C146.504 66.7359 146.54 73.9203 146.54 81.1048C146.54 88.9083 141.754 93.7256 133.976 93.7516C132.057 93.7516 130.137 93.7516 128.519 93.7516C127.047 98.7563 125.861 103.662 124.154 108.381C122.412 113.177 119.296 117.225 115.768 120.981C117.849 125.143 119.826 129.2 121.943 133.222C122.406 133.875 123.078 134.35 123.848 134.569C129.596 136.551 135.428 138.315 141.135 140.422C156.914 146.243 167.245 157.589 173.436 172.947C175.903 179.16 177.217 185.771 177.312 192.456C177.39 195.816 175.949 197.309 172.573 197.309C116.696 197.309 60.8195 197.309 4.94299 197.309C1.70194 197.309 0.104823 195.775 0.292107 192.58C1.58749 169.82 11.6124 152.444 32.3021 142.201C38.7322 139.017 45.875 137.238 52.7368 134.959C54.5056 134.371 55.671 133.534 56.4461 131.791C57.8559 128.638 59.4635 125.548 61.0762 122.51C61.6588 121.402 61.5964 120.731 60.7484 119.685C58.6675 117.084 56.5866 114.452 55.0259 111.544C53.9854 109.582 52.8565 109.041 50.7704 109.067C45.7813 109.125 41.8432 106.986 39.9131 102.304C39.0183 100.14 38.9715 97.5806 38.7998 95.1823C38.7009 93.8037 38.5189 92.9661 37.1038 92.2326C33.2749 90.2557 31.1367 86.895 31.1107 82.603C31.0639 72.6666 30.6633 62.6781 31.4697 52.7937C32.9888 34.1225 42.0981 19.6288 57.7311 9.33856C65.592 4.17623 74.6435 1.11191 84.0237 0.437363C84.3349 0.380405 84.6398 0.293289 84.9341 0.177246L92.6335 0.177246ZM123.228 65.7839C118.973 65.0035 115.024 64.4729 111.169 63.5417C99.8231 60.8488 89.3461 55.3194 80.7202 47.4717C80.1429 46.9175 79.3818 46.5952 78.582 46.5665C73.7687 46.9888 69.1612 48.7135 65.2537 51.5555C61.0918 54.5208 58.345 58.7503 55.3692 62.7561C54.7825 63.5611 54.4805 64.5385 54.5108 65.5342C55.1091 73.0099 55.7178 80.4857 56.5606 87.9354C57.0808 92.4302 57.9912 96.873 58.7403 101.425C62.2883 101.425 65.5034 101.373 68.6872 101.456C69.8213 101.456 70.3155 101.061 70.8254 100.078C72.9063 96.1083 76.241 93.9857 80.7098 93.7724C83.467 93.6372 86.2295 93.6528 88.9867 93.7724C95.4324 94.0222 100.312 99.0164 100.333 105.275C100.354 111.533 95.3596 116.621 88.8306 116.819C86.4584 116.892 84.0809 116.819 81.7086 116.819C76.6988 116.819 72.9791 114.67 70.6693 110.165C70.4612 109.764 70.0398 109.192 69.7017 109.182C67.3762 109.093 65.0508 109.135 62.4184 109.135C65.9872 114.962 70.4508 119.29 76.3658 121.881C94.7613 129.944 113.791 119.279 118.713 100.489C120.378 94.1418 121.007 87.4828 121.86 80.9695C122.521 75.9649 122.781 70.929 123.228 65.7839ZM81.8335 189.542C76.7404 181.676 71.5381 174.351 67.1265 166.574C62.7149 158.796 59.0785 150.447 55.0363 142.263C50.76 143.694 46.1923 145.291 41.5362 146.769C25.2529 151.971 15.2696 163.296 10.1141 179.21C9.07365 182.498 8.63145 185.973 7.88231 189.516L81.8335 189.542ZM95.5729 189.475H169.342C168.822 176.146 160.498 161.32 149.396 153.308C141.182 147.383 131.334 145.681 121.876 141.982C116.2 159.494 105.905 174.284 95.5729 189.449V189.475ZM123.27 57.8139C124.742 44.1318 116.471 30.6005 103.886 25.5594C97.5393 23.0207 90.9636 23.1716 84.367 23.3432C78.2407 23.5305 72.3066 25.5263 67.3123 29.0793C62.3179 32.6323 58.4864 37.5836 56.3004 43.3098C55.416 45.6509 54.9114 48.1376 54.2195 50.5567L55.0363 51.0769C55.2404 50.6138 55.497 50.1757 55.801 49.7711C62.1114 43.0809 69.9045 39.5485 79.0346 38.7682C80.1109 38.6404 81.2021 38.7616 82.224 39.1224C83.246 39.4832 84.1714 40.074 84.9289 40.8491C95.6561 51.0197 108.553 56.3625 123.27 57.7879V57.8139ZM138.555 54.0214C137.134 28.3999 114.104 7.4397 88.2324 7.90792C60.0513 8.42815 40.3189 30.8502 39.0599 54.0006H46.2079C46.312 53.8705 46.3848 53.8237 46.39 53.7769C46.4472 53.2046 46.4888 52.6272 46.5461 52.0549C48.2992 35.293 56.9872 23.7958 72.745 17.7715C79.8826 15.0403 87.3792 15.316 94.7977 15.7478C102.854 16.2543 110.549 19.2758 116.797 24.3866C123.046 29.4973 127.533 36.4398 129.627 44.2358C130.47 47.4144 130.845 50.7231 131.448 54.0214H138.555ZM88.4197 150.036C84.0913 154.614 79.9815 159.01 75.7988 163.338C74.93 164.238 74.8416 164.868 75.5491 165.939C79.8774 172.442 84.1277 178.992 88.4145 185.521C88.5029 185.651 88.711 185.703 88.9347 185.843C90.8075 182.888 92.6127 179.954 94.5064 177.072C97.0035 173.275 99.5995 169.539 102.06 165.721C102.367 165.247 102.424 164.16 102.102 163.811C97.6538 159.218 93.107 154.718 88.4197 150.036ZM93.9757 144.167L107.226 157.418C109.89 150.967 112.543 144.547 115.165 138.112C115.285 137.695 115.246 137.248 115.056 136.858C113.495 133.643 111.877 130.449 110.176 127.041L93.9757 144.167ZM70.4976 157.777L82.7699 144.802L66.5594 128.717C65.2328 131.365 63.823 134.143 62.4652 136.947C62.2962 137.347 62.2851 137.797 62.434 138.206C65.0352 144.584 67.6779 150.951 70.4976 157.777ZM38.7634 61.8353C38.7634 68.7648 38.7113 75.5331 38.7998 82.3013C38.79 83.2495 39.1541 84.1634 39.8133 84.845C40.4725 85.5266 41.3738 85.9211 42.3218 85.9429C44.2778 86.0886 46.2547 85.9741 48.3045 85.9741C47.6594 77.8429 47.0247 69.8469 46.3848 61.8249L38.7634 61.8353ZM129.284 85.8649C129.484 85.9369 129.692 85.9858 129.903 86.0106C131.375 86.0106 132.848 86.047 134.32 86.0106C137.316 85.9585 138.815 84.5019 138.83 81.5105C138.867 75.3042 138.83 69.0978 138.83 62.8966C138.801 62.5564 138.745 62.219 138.664 61.8873H131.172C130.538 69.9197 129.913 77.8221 129.284 85.8649ZM84.9133 109.114C86.1983 109.114 87.4832 109.182 88.763 109.114C91.0052 108.963 92.5919 107.34 92.6023 105.316C92.6024 104.305 92.2025 103.335 91.4901 102.618C90.7776 101.901 89.8104 101.494 88.7994 101.488C86.2399 101.373 83.6699 101.378 81.1104 101.488C80.1014 101.486 79.1324 101.881 78.4122 102.588C77.692 103.294 77.2784 104.256 77.2606 105.264C77.2606 107.293 78.8213 108.937 81.0636 109.104C82.3433 109.187 83.6335 109.109 84.9133 109.114ZM94.9486 131.932H81.9427L88.5861 138.643L94.9486 131.932ZM50.9108 101.311C50.4478 98.7095 50.0056 96.2904 49.5738 93.8713H46.5305C46.1507 99.5418 47.0871 101.233 50.9108 101.311Z" fill="url(#paint0_linear_234_343)"/>
<path d="M158.271 175.36C158.167 177.379 157.418 178.674 155.67 179.278C153.839 179.918 152.403 179.319 151.311 177.821C149.427 175.22 147.669 172.582 145.702 170.064C144.808 168.92 143.564 168.051 142.498 167.037C140.531 165.169 140.297 162.995 141.853 161.283C143.408 159.571 145.494 159.582 147.513 161.215C151.666 164.559 155.086 168.722 157.559 173.446C157.845 174.065 158.083 174.705 158.271 175.36Z" fill="url(#paint1_linear_234_343)"/>
<path d="M131.224 152.663C131.979 152.682 132.711 152.924 133.328 153.359C133.946 153.794 134.42 154.402 134.692 155.107C134.964 155.811 135.02 156.58 134.855 157.317C134.689 158.054 134.309 158.725 133.762 159.246C133.215 159.767 132.526 160.113 131.782 160.243C131.038 160.372 130.273 160.278 129.582 159.972C128.892 159.666 128.308 159.162 127.903 158.524C127.499 157.886 127.293 157.143 127.312 156.388C127.364 155.385 127.798 154.439 128.526 153.746C129.253 153.053 130.219 152.666 131.224 152.663Z" fill="url(#paint2_linear_234_343)"/>
<defs>
<linearGradient id="paint0_linear_234_343" x1="156.61" y1="208.474" x2="34.3513" y2="-18.1978" gradientUnits="userSpaceOnUse">
<stop stop-color="#9A732B"/>
<stop offset="0.13" stop-color="#F0BD51"/>
<stop offset="0.31" stop-color="#FEEC6E"/>
<stop offset="0.68" stop-color="#DD9C2B"/>
<stop offset="0.85" stop-color="#FCD755"/>
</linearGradient>
<linearGradient id="paint1_linear_234_343" x1="156.232" y1="180.639" x2="144.074" y2="158.237" gradientUnits="userSpaceOnUse">
<stop stop-color="#9A732B"/>
<stop offset="0.13" stop-color="#F0BD51"/>
<stop offset="0.31" stop-color="#FEEC6E"/>
<stop offset="0.68" stop-color="#DD9C2B"/>
<stop offset="0.85" stop-color="#FCD755"/>
</linearGradient>
<linearGradient id="paint2_linear_234_343" x1="134.054" y1="160.731" x2="129.608" y2="151.551" gradientUnits="userSpaceOnUse">
<stop stop-color="#9A732B"/>
<stop offset="0.13" stop-color="#F0BD51"/>
<stop offset="0.31" stop-color="#FEEC6E"/>
<stop offset="0.68" stop-color="#DD9C2B"/>
<stop offset="0.85" stop-color="#FCD755"/>
</linearGradient>
</defs>
</svg>
