<svg width="182" height="132" viewBox="0 0 182 132" fill="none" xmlns="http://www.w3.org/2000/svg">
<path d="M181.082 52.8892C177.777 56.2073 174.473 59.5269 171.171 62.8482C168.475 65.5439 166.541 65.8916 162.598 64.1055C161.483 65.3534 160.293 66.7917 158.992 68.1253C157.692 69.4589 156.054 69.5208 154.958 68.3968C153.863 67.2728 153.953 65.7058 155.33 64.3675C156.583 63.1482 157.945 62.0337 159.364 60.7764C149.553 51.3889 140.099 42.3587 130.173 32.8522C127.01 36.2338 123.981 39.5201 120.905 42.7445C118.823 44.902 117.271 45.2688 114.823 43.5113C108.469 38.9533 101.525 37.4007 93.7806 38.0675C88.8273 38.4961 83.7788 38.0675 78.8112 38.2056C77.7248 38.2664 76.6909 38.6928 75.8773 39.4153C72.7577 42.3539 69.7619 45.4212 66.7519 48.4646C64.3419 50.9127 64.1752 53.9227 66.2756 56.1612C68.2902 58.3235 71.286 58.3997 73.8722 56.3184C76.3393 54.3323 78.7302 52.2415 81.2545 50.3268C82.0799 49.6938 83.0742 49.3192 84.1122 49.2504C88.0414 49.1314 91.9803 49.1742 95.9143 49.2076C98.3243 49.2076 99.1101 50.1935 99.0006 52.6225C99.0102 53.1657 99.2167 53.6869 99.5816 54.0894C101.325 55.9183 103.154 57.6615 104.911 59.4714C106.283 60.9002 106.373 62.329 105.24 63.5102C104.106 64.6914 102.539 64.558 101.191 63.2292C98.5529 60.6382 95.9858 57.9901 93.3091 55.4135C92.7852 54.9372 91.8802 54.7848 91.1801 54.4895C91.1277 54.4895 91.061 54.4895 91.0039 54.4895C86.4602 53.7989 82.6166 55.0182 79.5256 58.5283C78.7328 59.314 77.8722 60.028 76.9537 60.6621C72.3481 64.3056 66.1517 63.896 62.3272 59.7095C58.5027 55.523 58.6123 49.3266 62.713 45.064C65.6564 41.9872 68.7332 38.9819 71.7575 35.948C72.1671 35.5384 72.5577 35.1098 73.1483 34.4858C72.1243 33.7714 71.2431 33.057 70.2334 32.4855C69.35 32.0246 68.4329 31.6314 67.4901 31.3091C63.5798 29.7945 59.3505 28.8181 56.931 24.5364C54.6877 26.8321 52.7779 28.8229 50.8394 30.7661C46.6101 35.0082 42.3728 39.2423 38.1276 43.4684C36.6987 44.8973 35.4747 45.083 34.2364 44.159C32.86 43.1303 32.7742 41.4252 34.1221 40.0297C36.1653 37.9198 38.2609 35.8623 40.3137 33.7857C45.1336 28.9721 49.952 24.1554 54.7687 19.3355C56.5357 17.5685 56.5357 16.7016 54.7687 14.9299C51.6586 11.8103 48.5342 8.70495 45.4289 5.58533C43.8762 4.02791 43.7096 2.46572 44.9241 1.29884C46.1386 0.131958 47.6198 0.346283 49.0962 1.79893C52.4492 5.09477 55.7816 8.41283 59.0933 11.7531C61.4033 14.0726 61.8557 16.7874 60.9174 19.8737C60.8532 20.2027 60.8568 20.5414 60.928 20.869C60.9993 21.1966 61.1367 21.5061 61.3318 21.7788C62.6338 23.45 64.4282 24.6696 66.4613 25.2651C70.9764 26.6939 75.2248 28.5991 78.4587 32.3045C78.8255 32.7236 79.7209 32.8332 80.3639 32.8379C87.9843 32.876 95.6381 32.7522 103.273 32.9332C105.292 32.9808 107.388 33.6857 109.274 34.5001C111.679 35.5479 113.889 37.053 116.232 38.2675C116.666 38.4961 117.571 38.5294 117.847 38.2675C120.738 35.3527 123.562 32.3569 126.472 29.2849C124.991 25.6033 125.305 24.122 128.411 21.0167L146.728 2.68004C147.1 2.30855 147.467 1.92276 147.852 1.56555C149.172 0.331995 150.667 0.222451 151.777 1.2655C152.887 2.30855 152.887 3.99457 151.577 5.31386C146.449 10.4831 141.3 15.6348 136.131 20.7691C134.398 22.5027 132.645 24.2173 130.749 26.0891L166.47 60.1905C169.618 56.9995 172.662 53.9084 175.705 50.8364C177.877 48.6503 178.991 48.6503 181.106 50.7745L181.082 52.8892Z" fill="url(#paint0_linear_234_350)"/>
<path d="M125.177 102.703C124.415 108.6 121.438 111.586 116.318 112.143C115.047 114.582 114.151 116.939 112.713 118.892C111.189 120.954 108.708 121.64 106.102 121.778C105.988 122.345 105.874 122.85 105.783 123.359C105.102 127.093 102.997 129.67 99.382 130.827C95.7671 131.985 92.5284 131.156 89.8136 128.513C87.6704 126.427 85.6033 124.264 83.1171 121.75C81.7359 123.288 80.4738 124.722 79.1831 126.136C76.3254 129.284 72.8391 130.627 68.705 129.175C64.5709 127.722 62.5944 124.631 62.2038 120.264C56.5504 119.668 53.3451 116.51 52.7449 110.852C47.0058 109.933 44.7768 107.823 43.4909 102.246C43.4004 101.855 42.9003 101.293 42.5669 101.293C34.8274 100.874 30.8219 90.7344 37.2326 84.9238C37.3581 84.7625 37.4607 84.5846 37.5374 84.3951C34.2035 81.4612 32.9366 77.6463 33.3795 73.3264C33.67 70.4973 32.7556 68.4732 30.6123 66.6157C27.9547 64.3105 25.6257 61.6386 23.0681 59.2191C22.4511 58.6631 21.6551 58.3471 20.8248 58.3285C19.7347 58.3922 18.6435 58.2225 17.6242 57.8307C16.605 57.4389 15.681 56.8341 14.9142 56.0566C10.5515 51.7003 6.19201 47.3392 1.83566 42.9733C0.363963 41.5111 0.240131 40.0013 1.43082 38.8154C2.62152 37.6294 4.12655 37.8057 5.59349 39.2631C9.72123 43.3622 13.8331 47.4725 17.9291 51.5939C19.858 53.499 20.6057 53.499 22.5823 51.5463C23.6635 50.4651 24.716 49.3602 25.8305 48.3171C27.0641 47.1645 28.5358 47.1217 29.6169 48.1361C30.6981 49.1506 30.7886 50.7652 29.5312 52.0321C28.5501 53.0275 27.4213 53.8705 26.2782 54.8564C30.0884 58.6666 33.4938 62.1339 36.9897 65.525C37.5598 66.0272 38.0065 66.6542 38.2947 67.3572C38.583 68.0602 38.7053 68.8202 38.6519 69.5781C38.5566 71.4547 38.6519 73.336 38.6519 75.2173C38.645 76.2729 38.8867 77.3154 39.3575 78.2603C39.8283 79.2053 40.515 80.0261 41.3619 80.6563C46.8058 74.6743 55.1406 76.2032 58.0983 83.4711C67.6238 81.8137 72.4485 86.2955 70.9245 95.4781C74.8966 96.7879 77.2208 99.5598 77.8543 103.737C78.9186 103.807 79.9778 103.941 81.0263 104.137C82.3252 104.461 83.5398 105.06 84.5888 105.892C85.6378 106.724 86.497 107.77 87.1089 108.961C87.7208 110.152 88.0712 111.46 88.1369 112.797C88.2025 114.134 87.9817 115.47 87.4894 116.715C87.0131 117.839 87.1274 118.458 87.9942 119.263C89.8041 120.935 91.4853 122.745 93.2333 124.469C95.1813 126.374 97.6531 126.508 99.3534 124.864C101.154 123.126 101.059 120.673 99.0439 118.635C95.8242 115.377 92.5141 112.205 89.385 108.866C89.0522 108.453 88.8047 107.978 88.6567 107.469C88.5087 106.96 88.4632 106.426 88.5229 105.899C88.6229 105.227 89.7374 104.27 90.428 104.223C91.4494 104.239 92.4279 104.636 93.1714 105.337C96.5291 108.533 99.7249 111.905 103.068 115.12C105.583 117.53 109.374 116.42 110.093 113.148C110.455 111.486 109.76 110.176 108.617 109.038C105.664 106.091 102.716 103.141 99.7726 100.188C99.4392 99.8598 99.0963 99.536 98.7819 99.1883C97.5865 97.869 97.5293 96.3544 98.6247 95.2781C99.7202 94.2017 101.22 94.1969 102.525 95.4733C105.545 98.4358 108.517 101.446 111.508 104.432C111.922 104.846 112.322 105.28 112.761 105.67C114.523 107.228 116.9 107.237 118.476 105.709C118.875 105.335 119.194 104.884 119.414 104.384C119.634 103.883 119.75 103.343 119.756 102.796C119.761 102.25 119.655 101.708 119.445 101.203C119.235 100.698 118.925 100.241 118.533 99.8598C115.518 96.7355 112.408 93.6968 109.336 90.6201C108.965 90.2486 108.569 89.8914 108.222 89.4961C107.117 88.2339 107.107 86.7765 108.165 85.7144C109.222 84.6523 110.717 84.6428 111.941 85.7716C113.023 86.7622 114.028 87.8338 115.066 88.8721C117.352 91.1535 119.619 93.4587 121.924 95.7162C123.958 97.7071 126.449 97.7976 128.163 96.0163C129.802 94.316 129.673 91.8298 127.759 89.9056C122.005 84.1141 116.236 78.3385 110.451 72.5787C110.013 72.1871 109.61 71.7585 109.246 71.2975C108.403 70.0877 108.412 68.8494 109.489 67.7921C110.565 66.7347 111.684 66.7443 112.823 67.573C113.284 67.9344 113.716 68.3326 114.113 68.7637C119.806 74.4504 125.495 80.142 131.178 85.8382C131.588 86.2478 131.931 86.7241 132.388 87.2671C137.06 82.5853 141.528 78.0987 146.005 73.6217C146.39 73.1794 146.82 72.7773 147.286 72.4215C148.458 71.6404 149.639 71.6976 150.649 72.7073C151.658 73.717 151.711 74.9029 150.939 76.0746C150.582 76.5399 150.18 76.9691 149.739 77.3557C145.005 82.0947 140.266 86.8194 135.551 91.5774C135.085 91.9943 134.754 92.5395 134.598 93.1443C133.722 99.3217 131.297 101.822 125.177 102.703ZM53.2831 105.432C53.7261 105.218 54.712 104.994 55.3407 104.394C58.6317 101.222 61.8847 98.0071 65.0424 94.7018C65.3853 94.3347 65.6523 93.9035 65.8279 93.4329C66.0035 92.9623 66.0844 92.4616 66.0658 91.9597C66.0472 91.4577 65.9295 90.9644 65.7196 90.5081C65.5096 90.0518 65.2115 89.6415 64.8424 89.3008C63.4136 87.8719 61.0846 87.5957 59.5795 89.0245C56.1789 92.2489 52.8783 95.5829 49.6396 98.974C48.4918 100.179 48.487 101.77 49.2348 103.26C49.9825 104.751 51.197 105.366 53.2831 105.432ZM78.1401 109.171C77.7733 109.343 76.7731 109.538 76.1445 110.124C73.5535 112.572 71.0054 115.082 68.5716 117.692C67.0857 119.282 67.2905 121.535 68.7907 123.093C70.291 124.65 72.6009 124.998 74.1727 123.531C76.8827 121.04 79.4689 118.401 81.9931 115.71C83.1314 114.496 83.141 112.91 82.3837 111.424C81.6264 109.938 80.3928 109.181 78.1401 109.171ZM72.5438 105.056C72.4247 102.932 71.7103 101.646 70.1958 100.917C69.4883 100.535 68.6754 100.395 67.8809 100.518C67.0864 100.641 66.3539 101.02 65.7949 101.598C63.5803 103.703 61.4037 105.847 59.3176 108.076C58.566 108.812 58.1377 109.817 58.127 110.869C58.1217 111.39 58.2191 111.907 58.4135 112.39C58.608 112.874 58.8958 113.314 59.2604 113.686C59.6251 114.058 60.0594 114.355 60.5387 114.559C61.018 114.764 61.5329 114.871 62.0539 114.877C63.106 114.887 64.1194 114.48 64.871 113.743C67.1047 111.667 69.2622 109.495 71.3436 107.266C71.9818 106.58 72.2723 105.57 72.5438 105.056ZM43.7338 95.9591C44.0576 95.8448 44.9435 95.7924 45.4389 95.3257C47.8202 93.0824 50.2016 90.8344 52.3687 88.3768C53.6642 86.8956 53.1879 84.638 51.7257 83.3092C50.2635 81.9804 48.1632 81.7946 46.7391 83.0758C44.4434 85.1524 42.2621 87.3623 40.1569 89.6437C39.0758 90.8153 39.0615 92.3442 39.7759 93.7635C40.4903 95.1828 41.681 95.9401 43.7338 95.9591Z" fill="url(#paint1_linear_234_350)"/>
<defs>
<linearGradient id="paint0_linear_234_350" x1="163.803" y1="73.0742" x2="142.008" y2="-23.9118" gradientUnits="userSpaceOnUse">
<stop stop-color="#9A732B"/>
<stop offset="0.13" stop-color="#F0BD51"/>
<stop offset="0.31" stop-color="#FEEC6E"/>
<stop offset="0.68" stop-color="#DD9C2B"/>
<stop offset="0.85" stop-color="#FCD755"/>
</linearGradient>
<linearGradient id="paint1_linear_234_350" x1="133.826" y1="136.622" x2="95.7493" y2="9.53513" gradientUnits="userSpaceOnUse">
<stop stop-color="#9A732B"/>
<stop offset="0.13" stop-color="#F0BD51"/>
<stop offset="0.31" stop-color="#FEEC6E"/>
<stop offset="0.68" stop-color="#DD9C2B"/>
<stop offset="0.85" stop-color="#FCD755"/>
</linearGradient>
</defs>
</svg>
